%TF.GenerationSoftware,KiCad,Pcbnew,(6.0.2)*%
%TF.CreationDate,2024-01-19T20:32:51-05:00*%
%TF.ProjectId,top,746f702e-6b69-4636-9164-5f7063625858,rev?*%
%TF.SameCoordinates,Original*%
%TF.FileFunction,Profile,NP*%
%FSLAX46Y46*%
G04 Gerber Fmt 4.6, Leading zero omitted, Abs format (unit mm)*
G04 Created by KiCad (PCBNEW (6.0.2)) date 2024-01-19 20:32:51*
%MOMM*%
%LPD*%
G01*
G04 APERTURE LIST*
%TA.AperFunction,Profile*%
%ADD10C,0.100000*%
%TD*%
G04 APERTURE END LIST*
D10*
X158231481Y-119531572D02*
X158249674Y-119572626D01*
X150199000Y-81859968D02*
X150200243Y-81200867D01*
X169657552Y-93318440D02*
X169635089Y-93319023D01*
X185774369Y-113434225D02*
X185735739Y-113435239D01*
X160818298Y-93318400D02*
X158660001Y-93320999D01*
X136260481Y-94537972D02*
X136278674Y-94579026D01*
X111299216Y-112941204D02*
X111287874Y-112901562D01*
X149908581Y-93332952D02*
X149886771Y-93327587D01*
X169606826Y-119807855D02*
X171769974Y-119808999D01*
X111278564Y-112861446D02*
X111271281Y-112820810D01*
X172069354Y-82142241D02*
X172099517Y-82108975D01*
X186457216Y-112850984D02*
X186448213Y-112888483D01*
X178570152Y-132714618D02*
X178522559Y-132735111D01*
X139117646Y-105983375D02*
X139102236Y-105967034D01*
X139043569Y-118408271D02*
X139025802Y-118394531D01*
X147230302Y-106906387D02*
X147232642Y-106951244D01*
X185909266Y-76743129D02*
X185980848Y-76818999D01*
X161101317Y-82108975D02*
X161115058Y-82091209D01*
X150104983Y-80930696D02*
X150075036Y-80897234D01*
X150028496Y-94746086D02*
X150047037Y-94733411D01*
X111364175Y-113092572D02*
X111345083Y-113056025D01*
X136237853Y-106201477D02*
X136231000Y-106250070D01*
X172078414Y-107227450D02*
X172110269Y-107195801D01*
X136331888Y-82140225D02*
X136365155Y-82170388D01*
X136567612Y-119802891D02*
X136612226Y-119807855D01*
X158501360Y-80791737D02*
X158459415Y-80807761D01*
X172164777Y-106056070D02*
X172140408Y-106018352D01*
X160924016Y-118340652D02*
X160902882Y-118333046D01*
X186500995Y-87120092D02*
X185531000Y-87830507D01*
X158592231Y-105845893D02*
X158548302Y-105855186D01*
X161196098Y-81156010D02*
X161189099Y-81111653D01*
X136333930Y-80895986D02*
X136303766Y-80929247D01*
X169632152Y-80770840D02*
X169609689Y-80771423D01*
X150228999Y-106929878D02*
X150225644Y-106270670D01*
X136228536Y-81066313D02*
X136216675Y-81109619D01*
X160902882Y-80791846D02*
X160881381Y-80785352D01*
X169361992Y-118407246D02*
X169328530Y-118437186D01*
X161175876Y-94581561D02*
X161194338Y-94540627D01*
X150011842Y-105898518D02*
X149971924Y-105877949D01*
X147210653Y-118672877D02*
X147205684Y-118717489D01*
X172187299Y-118652853D02*
X172182075Y-118631009D01*
X136612226Y-119807855D02*
X138769980Y-119808999D01*
X147252805Y-118545452D02*
X147234343Y-118586382D01*
X169562212Y-82261691D02*
X169610081Y-82268999D01*
X172200145Y-107041695D02*
X172212005Y-106998385D01*
X136302629Y-106035266D02*
X136280005Y-106074052D01*
X136236143Y-118586382D02*
X136222041Y-118629011D01*
X172221450Y-106248133D02*
X172216777Y-106203541D01*
X160789912Y-94818999D02*
X160815268Y-94814466D01*
X178706444Y-69291369D02*
X178740414Y-69388845D01*
X136460398Y-82229310D02*
X136481107Y-82238007D01*
X161026696Y-94746086D02*
X161045237Y-94733411D01*
X147262151Y-82051187D02*
X147286518Y-82088906D01*
X138906482Y-80791846D02*
X138884981Y-80785352D01*
X138769980Y-119808999D02*
X138815983Y-119806295D01*
X136640032Y-118311000D02*
X136570431Y-118317293D01*
X120624377Y-68008498D02*
X120729274Y-68000204D01*
X158545541Y-107321906D02*
X158630118Y-107338999D01*
X172113258Y-82091209D02*
X172137871Y-82053651D01*
X158566831Y-118317293D02*
X158522902Y-118326586D01*
X171904981Y-93332952D02*
X171883171Y-93327587D01*
X147241842Y-82011136D02*
X147262151Y-82051187D01*
X150049402Y-93400931D02*
X150011842Y-93376318D01*
X169274605Y-106074052D02*
X169256143Y-106114982D01*
X185586297Y-76479770D02*
X185672084Y-76539199D01*
X149789968Y-80770999D02*
X147635752Y-80770840D01*
X158212438Y-119467001D02*
X158224013Y-119510389D01*
X136260481Y-107060172D02*
X136278674Y-107101226D01*
X178113940Y-68459861D02*
X178191579Y-68527888D01*
X150199653Y-118719573D02*
X150194977Y-118674941D01*
X158232543Y-118586382D02*
X158224936Y-118607513D01*
X147424980Y-94744525D02*
X147444081Y-94756341D01*
X161176545Y-119513095D02*
X161183040Y-119491594D01*
X119341969Y-68665653D02*
X119414130Y-68588999D01*
X149794726Y-107337240D02*
X149839583Y-107334895D01*
X111793068Y-113460744D02*
X111754823Y-113445469D01*
X116888903Y-120913073D02*
X116840136Y-120884953D01*
X172005719Y-107279978D02*
X172043437Y-107255611D01*
X116549064Y-120622498D02*
X116516065Y-120576890D01*
X161116808Y-118489752D02*
X161088646Y-118454775D01*
X161189099Y-81111653D02*
X161183875Y-81089809D01*
X161071154Y-82142241D02*
X161101317Y-82108975D01*
X172219293Y-106954076D02*
X172221194Y-106931715D01*
X150185675Y-118631009D02*
X150171851Y-118588284D01*
X138906482Y-118333046D02*
X138863171Y-118321187D01*
X169274605Y-93551852D02*
X169256143Y-93592782D01*
X143827310Y-132307099D02*
X143825349Y-132281345D01*
X158363792Y-80866046D02*
X158330330Y-80895986D01*
X169521102Y-118326586D02*
X169499560Y-118332937D01*
X158363792Y-118407246D02*
X158330330Y-118437186D01*
X143888619Y-132502553D02*
X143876664Y-132479657D01*
X178831000Y-76379000D02*
X185410192Y-76379018D01*
X169499560Y-118332937D02*
X169457615Y-118348961D01*
X150210240Y-107020194D02*
X150219827Y-106976325D01*
X171940270Y-119771688D02*
X171980319Y-119751378D01*
X171902182Y-94800473D02*
X171944906Y-94786650D01*
X116457492Y-120480784D02*
X116432080Y-120430552D01*
X150211075Y-106159609D02*
X150197251Y-106116884D01*
X111610801Y-113365536D02*
X111577606Y-113341162D01*
X169483015Y-105877561D02*
X169462726Y-105887190D01*
X147332130Y-118437186D02*
X147301966Y-118470447D01*
X171857771Y-118321187D02*
X171835711Y-118316966D01*
X161170051Y-81047084D02*
X161151855Y-81006030D01*
X116703600Y-120785736D02*
X116661794Y-120748037D01*
X160984642Y-80828718D02*
X160944724Y-80808149D01*
X161177255Y-106075830D02*
X161166577Y-106056070D01*
X169361992Y-80866046D02*
X169328530Y-80895986D01*
X111645272Y-113388253D02*
X111610801Y-113365536D01*
X147421166Y-80828063D02*
X147401990Y-80839752D01*
X158230999Y-94379997D02*
X158229091Y-94406701D01*
X150162041Y-82013735D02*
X150178345Y-81971895D01*
X116661794Y-120748037D02*
X116622029Y-120708190D01*
X147252136Y-106136113D02*
X147240275Y-106179419D01*
X136265411Y-118525764D02*
X136254605Y-118545452D01*
X178814490Y-132457165D02*
X178791736Y-132503608D01*
X160860052Y-94809774D02*
X160903982Y-94800473D01*
X172174745Y-119513095D02*
X172186605Y-119469785D01*
X136618099Y-93320776D02*
X136573745Y-93327767D01*
X160856738Y-82258096D02*
X160878582Y-82252873D01*
X147504707Y-107307807D02*
X147547341Y-107321906D01*
X172020402Y-80853331D02*
X171982842Y-80828718D01*
X169216641Y-81087811D02*
X169207053Y-81131677D01*
X185889072Y-113419118D02*
X185851153Y-113426148D01*
X169308318Y-107158706D02*
X169336479Y-107193684D01*
X185531000Y-87830507D02*
X185531000Y-100939502D01*
X111995011Y-76596627D02*
X112080408Y-76534076D01*
X139212875Y-106159609D02*
X139199051Y-106116884D01*
X139076836Y-80897234D02*
X139043569Y-80867071D01*
X171942924Y-80808149D02*
X171901082Y-80791846D01*
X177771578Y-68230363D02*
X177861508Y-68281041D01*
X161201945Y-107041695D02*
X161208440Y-107020194D01*
X136331888Y-119681425D02*
X136365155Y-119711588D01*
X161222994Y-94409516D02*
X161219000Y-93750006D01*
X149794726Y-94815040D02*
X149839583Y-94812695D01*
X147259743Y-106114982D02*
X147252136Y-106136113D01*
X158636833Y-93319028D02*
X158592231Y-93323693D01*
X169229042Y-94429044D02*
X169236038Y-94473401D01*
X139048837Y-94733411D02*
X139083814Y-94705250D01*
X161170051Y-118588284D02*
X161161488Y-118567520D01*
X139143271Y-82053651D02*
X139163841Y-82013735D01*
X150067169Y-105936871D02*
X150049402Y-105923131D01*
X171901082Y-118333046D02*
X171857771Y-118321187D01*
X111209004Y-87090092D02*
X111219000Y-78149998D01*
X150088469Y-82126001D02*
X150116858Y-82091209D01*
X147458598Y-82229310D02*
X147479307Y-82238007D01*
X139118658Y-119632409D02*
X139143271Y-119594851D01*
X136662952Y-105840640D02*
X136618099Y-105842976D01*
X158659352Y-105840640D02*
X158636889Y-105841223D01*
X178657803Y-132659856D02*
X178615386Y-132689443D01*
X169216641Y-118629011D02*
X169207053Y-118672877D01*
X160990351Y-93365513D02*
X160949416Y-93347052D01*
X120314124Y-68066284D02*
X120416462Y-68041590D01*
X149948506Y-107308850D02*
X149969270Y-107300288D01*
X136385248Y-80852425D02*
X136367392Y-80866046D01*
X172080596Y-105951519D02*
X172063569Y-105936871D01*
X169609689Y-80771423D02*
X169565031Y-80776093D01*
X111262946Y-112738844D02*
X111261900Y-112697600D01*
X177948705Y-68336288D02*
X178032895Y-68395928D01*
X158564012Y-119802891D02*
X158608626Y-119807855D01*
X178293498Y-132764644D02*
X144360067Y-132761000D01*
X158208853Y-118672877D02*
X158203884Y-118717488D01*
X161007519Y-94757778D02*
X161026696Y-94746086D01*
X158520141Y-119793306D02*
X158564012Y-119802891D01*
X178032895Y-68395928D02*
X178113940Y-68459861D01*
X161139671Y-119594851D02*
X161160241Y-119554935D01*
X116990488Y-120961404D02*
X116939083Y-120938587D01*
X138948324Y-80808149D02*
X138906482Y-80791846D01*
X169584462Y-119805955D02*
X169606826Y-119807855D01*
X144002000Y-132641680D02*
X143964692Y-132606193D01*
X147591212Y-107331491D02*
X147640082Y-107338999D01*
X161073236Y-80897234D02*
X161039969Y-80867071D01*
X169248536Y-93613913D02*
X169236675Y-93657219D01*
X147205684Y-118717489D02*
X147201000Y-119379894D01*
X158425590Y-105909552D02*
X158407048Y-105922225D01*
X158636889Y-105841223D02*
X158592231Y-105845893D01*
X160925525Y-94794118D02*
X160967470Y-94778088D01*
X147220241Y-81087811D02*
X147210653Y-81131677D01*
X139043569Y-80867071D02*
X139025802Y-80853331D01*
X169227296Y-106928963D02*
X169231962Y-106973514D01*
X138888571Y-93327587D02*
X138844317Y-93320308D01*
X149904682Y-80791846D02*
X149883181Y-80785352D01*
X147241842Y-119552336D02*
X147262151Y-119592387D01*
X136301042Y-94617964D02*
X136313718Y-94636506D01*
X158548302Y-93332986D02*
X158505579Y-93346802D01*
X177680316Y-68189051D02*
X177771578Y-68230363D01*
X172140408Y-106018352D02*
X172112246Y-105983375D01*
X158407048Y-105922225D02*
X158389192Y-105935846D01*
X147461215Y-80807761D02*
X147421166Y-80828063D01*
X178853251Y-132307326D02*
X178845428Y-132358447D01*
X160837511Y-80775766D02*
X160789966Y-80770999D01*
X144360067Y-132761000D02*
X144333361Y-132764601D01*
X150166871Y-94601251D02*
X150187441Y-94561335D01*
X119049062Y-69099651D02*
X119096489Y-69006845D01*
X147638689Y-93319023D02*
X147594031Y-93323693D01*
X186392959Y-113032447D02*
X186374508Y-113066430D01*
X111754823Y-113445469D02*
X111717310Y-113428234D01*
X172069354Y-119683441D02*
X172084869Y-119667201D01*
X149969270Y-107300288D02*
X150009319Y-107279978D01*
X147225813Y-81969189D02*
X147241842Y-82011136D01*
X136236143Y-81045182D02*
X136228536Y-81066313D01*
X178845428Y-132358447D02*
X178839570Y-132383720D01*
X169543741Y-107321906D02*
X169587612Y-107331491D01*
X111407757Y-113162489D02*
X111385094Y-113128104D01*
X185754616Y-76602986D02*
X185833788Y-76671057D01*
X147613594Y-94812379D02*
X147640121Y-94818999D01*
X111623829Y-76971920D02*
X111689901Y-76889217D01*
X111266073Y-112779908D02*
X111262946Y-112738844D01*
X120416462Y-68041590D02*
X120520010Y-68022303D01*
X111271281Y-112820810D02*
X111266073Y-112779908D01*
X181157721Y-126269571D02*
X181113985Y-126300313D01*
X119096489Y-69006845D02*
X119151045Y-68916808D01*
X158229285Y-93723885D02*
X158230999Y-94379997D01*
X111268823Y-77733852D02*
X111295087Y-77631362D01*
X172115008Y-118489752D02*
X172086846Y-118454775D01*
X147418681Y-82208741D02*
X147458598Y-82229310D01*
X178778588Y-132525972D02*
X178749040Y-132568478D01*
X111485859Y-113258276D02*
X111458251Y-113227719D01*
X139205545Y-94519495D02*
X139217405Y-94476185D01*
X158330330Y-118437186D02*
X158300166Y-118470447D01*
X158240042Y-82011136D02*
X158260351Y-82051187D01*
X158265442Y-107080936D02*
X158285751Y-107120987D01*
X158284718Y-82088906D02*
X158298342Y-82106762D01*
X136261543Y-93592782D02*
X136253936Y-93613913D01*
X139186640Y-119491594D02*
X139196227Y-119447725D01*
X150056614Y-82157650D02*
X150072954Y-82142241D01*
X158224013Y-81969189D02*
X158240042Y-82011136D01*
X147267242Y-94558736D02*
X147287551Y-94598787D01*
X158566831Y-80776093D02*
X158522902Y-80785386D01*
X172139377Y-80986270D02*
X172115008Y-80948552D01*
X169236038Y-94473401D02*
X169241260Y-94495246D01*
X149930082Y-93339446D02*
X149908581Y-93332952D01*
X150166871Y-107123451D02*
X150187441Y-107083535D01*
X171926482Y-93339446D02*
X171904981Y-93332952D01*
X150005543Y-118381735D02*
X149966751Y-118359113D01*
X161165071Y-94601251D02*
X161175876Y-94581561D01*
X111405880Y-77334012D02*
X111453110Y-77239278D01*
X150215605Y-94476185D02*
X150222924Y-94431719D01*
X158228502Y-106906388D02*
X158230842Y-106951244D01*
X161045237Y-107255611D02*
X161080214Y-107227450D01*
X111911942Y-113494753D02*
X111871776Y-113485435D01*
X111363726Y-77431111D02*
X111405880Y-77334012D01*
X169524960Y-105861537D02*
X169483015Y-105877561D01*
X169297229Y-106035266D02*
X169274605Y-106074052D01*
X169546502Y-93332986D02*
X169524960Y-93339337D01*
X139163841Y-119554935D02*
X139180145Y-119513095D01*
X158328288Y-119681425D02*
X158361555Y-119711588D01*
X138799955Y-80770999D02*
X136637552Y-80770840D01*
X150082014Y-94705250D02*
X150098354Y-94689841D01*
X139058414Y-82157650D02*
X139074754Y-82142241D01*
X149905782Y-107322673D02*
X149948506Y-107308850D01*
X171965670Y-107300288D02*
X172005719Y-107279978D01*
X111295087Y-77631362D02*
X111326748Y-77530354D01*
X136357288Y-107210025D02*
X136390555Y-107240188D01*
X161198999Y-118740026D02*
X161193177Y-118674941D01*
X169480398Y-94776910D02*
X169501107Y-94785607D01*
X158482198Y-107299110D02*
X158502907Y-107307807D01*
X160982119Y-119751378D02*
X161019837Y-119727011D01*
X171835983Y-94812695D02*
X171880338Y-94805696D01*
X147342015Y-93459823D02*
X147327366Y-93476847D01*
X172158441Y-82013735D02*
X172174745Y-81971895D01*
X116516065Y-120576890D02*
X116485513Y-120529609D01*
X147252805Y-81004252D02*
X147243040Y-81024476D01*
X136573745Y-93327767D02*
X136530360Y-93339337D01*
X111326748Y-77530354D02*
X111363726Y-77431111D01*
X158386955Y-94717988D02*
X158423180Y-94744525D01*
X161160241Y-82013735D02*
X161176545Y-81971895D01*
X180861625Y-126380502D02*
X180834821Y-126381253D01*
X111952528Y-113502024D02*
X111911942Y-113494753D01*
X169359755Y-119711588D02*
X169395980Y-119738125D01*
X161056996Y-118422919D02*
X161039969Y-118408271D01*
X158217660Y-81947646D02*
X158224013Y-81969189D01*
X139133085Y-118508293D02*
X139120408Y-118489752D01*
X139180855Y-93553630D02*
X139170177Y-93533870D01*
X150075036Y-80897234D02*
X150041769Y-80867071D01*
X178824876Y-69792316D02*
X178832855Y-69895234D01*
X144156670Y-132732824D02*
X144109316Y-132712475D01*
X139180145Y-81971895D02*
X139186640Y-81950394D01*
X136465572Y-107289346D02*
X136485798Y-107299110D01*
X169437326Y-80817390D02*
X169398390Y-80839752D01*
X111453110Y-77239278D02*
X111505256Y-77147219D01*
X136527640Y-107315412D02*
X136570952Y-107327270D01*
X147300829Y-106035266D02*
X147278205Y-106074052D01*
X172099517Y-82108975D02*
X172113258Y-82091209D01*
X172198999Y-81859898D02*
X172196644Y-81200869D01*
X186480228Y-77945440D02*
X186488381Y-78049429D01*
X169610081Y-82268999D02*
X171765726Y-82267440D01*
X158498640Y-119786812D02*
X158520141Y-119793306D01*
X172063569Y-105936871D02*
X172027343Y-105910335D01*
X169207053Y-81131677D02*
X169203984Y-81153939D01*
X136426780Y-94744525D02*
X136465572Y-94767146D01*
X139011119Y-94757778D02*
X139048837Y-94733411D01*
X161065369Y-105936871D02*
X161047602Y-105923131D01*
X186137446Y-113316237D02*
X186104565Y-113336388D01*
X150128517Y-107178775D02*
X150142258Y-107161009D01*
X118829028Y-69999762D02*
X119049062Y-69099651D01*
X136403790Y-118380952D02*
X136367392Y-118407246D01*
X147565812Y-119802891D02*
X147610426Y-119807855D01*
X138882182Y-82252873D02*
X138924906Y-82239050D01*
X161166577Y-93533870D02*
X161142208Y-93496152D01*
X180834821Y-126381253D02*
X178851000Y-126361010D01*
X169201000Y-81180056D02*
X169201301Y-81836586D01*
X147240275Y-106179419D02*
X147232987Y-106223720D01*
X139145808Y-106018352D02*
X139117646Y-105983375D01*
X136429190Y-93387352D02*
X136392792Y-93413646D01*
X147390992Y-93413646D02*
X147357530Y-93443586D01*
X172183841Y-107083535D02*
X172200145Y-107041695D01*
X158630118Y-107338999D02*
X160792926Y-107337240D01*
X139011119Y-107279978D02*
X139048837Y-107255611D01*
X181349924Y-125957075D02*
X181336889Y-126008921D01*
X116939083Y-120938587D02*
X116888903Y-120913073D01*
X138985719Y-82210178D02*
X139004896Y-82198486D01*
X147288225Y-118488211D02*
X147263611Y-118525764D01*
X138991359Y-94768455D02*
X139011119Y-94757778D01*
X111432161Y-113195724D02*
X111407757Y-113162489D01*
X185410192Y-76379018D02*
X185497529Y-76424895D01*
X111834689Y-76734861D02*
X111913041Y-76663605D01*
X150142977Y-118527470D02*
X150118608Y-118489752D01*
X138931882Y-105861646D02*
X138888571Y-105849787D01*
X136422966Y-118369263D02*
X136403790Y-118380952D01*
X161129485Y-118508293D02*
X161116808Y-118489752D01*
X172150055Y-81006030D02*
X172139377Y-80986270D01*
X136530360Y-93339337D02*
X136488415Y-93355361D01*
X169215860Y-81947646D02*
X169222213Y-81969189D01*
X111913041Y-76663605D02*
X111995011Y-76596627D01*
X139145808Y-93496152D02*
X139117646Y-93461175D01*
X161022202Y-80853331D02*
X160984642Y-80828718D01*
X139155455Y-81006030D02*
X139144777Y-80986270D01*
X139120408Y-118489752D02*
X139092246Y-118454775D01*
X136615288Y-94812359D02*
X136640130Y-94818999D01*
X143848015Y-132407894D02*
X143835104Y-132357996D01*
X169635089Y-93319023D02*
X169590431Y-93323693D01*
X143825349Y-132281345D02*
X143828999Y-121001000D01*
X169231962Y-106973514D02*
X169241260Y-107017446D01*
X161208440Y-94497994D02*
X161218027Y-94454125D01*
X172018037Y-119727011D02*
X172053014Y-119698850D01*
X169398390Y-118380952D02*
X169361992Y-118407246D01*
X147268440Y-93572076D02*
X147259743Y-93592782D01*
X158249413Y-107038989D02*
X158265442Y-107080936D01*
X136341879Y-94671484D02*
X136357288Y-94687825D01*
X147635752Y-80770840D02*
X147590899Y-80773176D01*
X136390555Y-94717988D02*
X136426780Y-94744525D01*
X139144058Y-94638809D02*
X139168671Y-94601251D01*
X139173651Y-118588284D02*
X139165088Y-118567520D01*
X136367392Y-118407246D02*
X136333930Y-118437186D01*
X169230743Y-118586382D02*
X169216641Y-118629011D01*
X144109316Y-132712475D02*
X144064306Y-132687467D01*
X150144008Y-106018352D02*
X150130383Y-106000496D01*
X147357530Y-93443586D02*
X147342015Y-93459823D01*
X136206702Y-81836590D02*
X136209042Y-81881444D01*
X149819966Y-105840999D02*
X147661152Y-105840640D01*
X147204901Y-81836583D02*
X147207242Y-81881444D01*
X160789966Y-80770999D02*
X158633952Y-80770840D01*
X111385094Y-113128104D02*
X111364175Y-113092572D01*
X158407048Y-93400025D02*
X158372071Y-93428180D01*
X147236053Y-93679277D02*
X147232985Y-93701536D01*
X136315425Y-106016811D02*
X136302629Y-106035266D01*
X171982842Y-80828718D02*
X171942924Y-80808149D01*
X147521941Y-82252106D02*
X147543752Y-82257470D01*
X172024896Y-94746086D02*
X172043437Y-94733411D01*
X139187475Y-118631009D02*
X139173651Y-118588284D01*
X147300142Y-119647962D02*
X147330088Y-119681425D01*
X117043104Y-120981514D02*
X116990488Y-120961404D01*
X136210999Y-119379994D02*
X136207295Y-119400356D01*
X158272042Y-119611564D02*
X158298342Y-119647962D01*
X149883938Y-107327896D02*
X149905782Y-107322673D01*
X138796526Y-107337240D02*
X138841383Y-107334895D01*
X169423790Y-105909552D02*
X169387392Y-105935846D01*
X172124917Y-94656575D02*
X172138658Y-94638809D01*
X161071154Y-119683441D02*
X161086669Y-119667201D01*
X171816497Y-105840600D02*
X169635080Y-105841224D01*
X186448213Y-112888483D02*
X186437247Y-112925510D01*
X111312551Y-112980221D02*
X111299216Y-112941204D01*
X158459415Y-118348961D02*
X158419366Y-118369263D01*
X150130383Y-106000496D02*
X150100436Y-105967034D01*
X161141177Y-118527470D02*
X161129485Y-118508293D01*
X169568345Y-105849967D02*
X169524960Y-105861537D01*
X169206562Y-119444914D02*
X169215860Y-119488846D01*
X147590899Y-80773176D02*
X147568631Y-80776093D01*
X138885738Y-107327896D02*
X138907582Y-107322673D01*
X161029143Y-93388135D02*
X160990351Y-93365513D01*
X119414130Y-68588999D02*
X119490222Y-68516246D01*
X116389359Y-120326427D02*
X116372168Y-120272823D01*
X161142208Y-106018352D02*
X161128583Y-106000496D01*
X111222955Y-78047841D02*
X111232695Y-77942434D01*
X158203101Y-81836585D02*
X158205442Y-81881444D01*
X169229398Y-93701440D02*
X169230999Y-93720006D01*
X139163841Y-82013735D02*
X139180145Y-81971895D01*
X172112246Y-105983375D02*
X172080596Y-105951519D01*
X160792926Y-107337240D02*
X160837783Y-107334895D01*
X136523741Y-82252106D02*
X136545552Y-82257470D01*
X186170652Y-77067629D02*
X186224995Y-77156724D01*
X171980319Y-119751378D02*
X172018037Y-119727011D01*
X172164777Y-93533870D02*
X172140408Y-93496152D01*
X158285751Y-94598787D02*
X158297442Y-94617964D01*
X150088469Y-119667201D02*
X150116858Y-119632409D01*
X119653392Y-68383207D02*
X119739933Y-68323352D01*
X169385155Y-107240188D02*
X169421380Y-107266725D01*
X147440926Y-118358590D02*
X147401990Y-118380952D01*
X136242075Y-93657219D02*
X136231000Y-93720100D01*
X149836452Y-119803374D02*
X149880382Y-119794073D01*
X136468126Y-93364990D02*
X136429190Y-93387352D01*
X158416881Y-82208741D02*
X158456798Y-82229310D01*
X147325542Y-94654362D02*
X147355488Y-94687825D01*
X138985719Y-119751378D02*
X139023437Y-119727011D01*
X150118608Y-118489752D02*
X150090446Y-118454775D01*
X158265442Y-94558736D02*
X158285751Y-94598787D01*
X172219000Y-106270003D02*
X172221450Y-106248133D01*
X136367392Y-80866046D02*
X136333930Y-80895986D01*
X139227444Y-106270669D02*
X139225098Y-106225810D01*
X169338415Y-105982023D02*
X169323766Y-105999047D01*
X136570952Y-94805070D02*
X136615288Y-94812359D01*
X149880382Y-119794073D02*
X149901925Y-119787718D01*
X171854938Y-82258096D02*
X171876782Y-82252873D01*
X149986442Y-80828718D02*
X149946524Y-80808149D01*
X186470994Y-101649897D02*
X186471000Y-112699981D01*
X136523741Y-119793306D02*
X136567612Y-119802891D01*
X161096554Y-107212041D02*
X161126717Y-107178775D01*
X186199949Y-113270822D02*
X186169271Y-113294364D01*
X161114046Y-93461175D02*
X161082396Y-93429319D01*
X139051202Y-93400931D02*
X139013642Y-93376318D01*
X136278674Y-107101226D02*
X136301042Y-107140164D01*
X161183875Y-118631009D02*
X161170051Y-118588284D01*
X185497529Y-76424895D02*
X185586297Y-76479770D01*
X139144058Y-107161009D02*
X139168671Y-107123451D01*
X177861508Y-68281041D02*
X177948705Y-68336288D01*
X169421380Y-107266725D02*
X169460172Y-107289346D01*
X169385155Y-94717988D02*
X169421380Y-94744525D01*
X150197251Y-93594684D02*
X150179055Y-93553630D01*
X150170738Y-119534227D02*
X150184840Y-119491594D01*
X161192627Y-81906525D02*
X161198999Y-81859932D01*
X158251005Y-81004252D02*
X158241240Y-81024476D01*
X161166577Y-106056070D02*
X161142208Y-106018352D01*
X181113985Y-126300313D02*
X181090936Y-126314017D01*
X136662952Y-93318440D02*
X136618099Y-93320776D01*
X136390555Y-107240188D02*
X136426780Y-107266725D01*
X169630039Y-118311000D02*
X169565031Y-118317293D01*
X147661152Y-93318440D02*
X147638689Y-93319023D01*
X150142977Y-80986270D02*
X150118608Y-80948552D01*
X160921306Y-119780250D02*
X160942070Y-119771688D01*
X139144777Y-80986270D02*
X139120408Y-80948552D01*
X169587612Y-107331491D02*
X169632226Y-107336455D01*
X111248003Y-77837639D02*
X111268823Y-77733852D01*
X185531000Y-100939502D02*
X186470994Y-101649897D01*
X150178345Y-81971895D02*
X150190205Y-81928585D01*
X150152276Y-119575161D02*
X150170738Y-119534227D01*
X139196777Y-118674941D02*
X139187475Y-118631009D01*
X147259743Y-93592782D02*
X147245641Y-93635411D01*
X147262151Y-119592387D02*
X147273842Y-119611564D01*
X150152276Y-82033961D02*
X150162041Y-82013735D01*
X171791126Y-94815040D02*
X171835983Y-94812695D01*
X172175455Y-93553630D02*
X172164777Y-93533870D01*
X161139671Y-82053651D02*
X161160241Y-82013735D01*
X158323742Y-94654362D02*
X158353688Y-94687825D01*
X172043437Y-107255611D02*
X172078414Y-107227450D01*
X150116858Y-82091209D02*
X150141471Y-82053651D01*
X150222924Y-94431719D02*
X150228999Y-94409866D01*
X147543752Y-82257470D02*
X147610095Y-82268999D01*
X116330000Y-76379000D02*
X118829000Y-76379000D01*
X149883181Y-118326552D02*
X149839311Y-118316966D01*
X172078414Y-94705250D02*
X172094754Y-94689841D01*
X158230842Y-106951244D02*
X158237838Y-106995601D01*
X160970124Y-105877949D02*
X160928282Y-105861646D01*
X171810583Y-82265095D02*
X171854938Y-82258096D01*
X147399580Y-82196925D02*
X147418681Y-82208741D01*
X149839583Y-107334895D02*
X149883938Y-107327896D01*
X160942070Y-119771688D02*
X160982119Y-119751378D01*
X147214238Y-119467001D02*
X147225813Y-119510389D01*
X149791792Y-82266852D02*
X149836452Y-82262174D01*
X150168377Y-93533870D02*
X150144008Y-93496152D01*
X150225644Y-106270670D02*
X150223298Y-106225810D01*
X147332130Y-80895986D02*
X147316615Y-80912223D01*
X161039969Y-118408271D02*
X161022202Y-118394531D01*
X169395980Y-82196925D02*
X169415081Y-82208741D01*
X158461972Y-94767146D02*
X158502907Y-94785607D01*
X147640121Y-94818999D02*
X149794726Y-94815040D01*
X161080214Y-94705250D02*
X161112069Y-94673601D01*
X186374508Y-113066430D02*
X186354330Y-113099356D01*
X161045237Y-94733411D02*
X161080214Y-94705250D01*
X138885738Y-94805696D02*
X138907582Y-94800473D01*
X161219000Y-106929992D02*
X161223843Y-106270664D01*
X147466326Y-105887190D02*
X147427390Y-105909552D01*
X150041769Y-80867071D02*
X150024002Y-80853331D01*
X136429190Y-105909552D02*
X136392792Y-105935846D01*
X147210162Y-119444914D02*
X147214238Y-119467001D01*
X136231000Y-106250070D02*
X136232687Y-106928852D01*
X136301942Y-82106762D02*
X136331888Y-82140225D01*
X150056614Y-119698850D02*
X150088469Y-119667201D01*
X147234343Y-81045182D02*
X147220241Y-81087811D01*
X158299029Y-106035266D02*
X158276405Y-106074052D01*
X186283868Y-113191182D02*
X186257285Y-113219194D01*
X169499560Y-80791737D02*
X169457615Y-80807761D01*
X136573745Y-105849967D02*
X136530360Y-105861537D01*
X111287874Y-112901562D02*
X111278564Y-112861446D01*
X158224013Y-119510389D02*
X158231481Y-119531572D01*
X120834540Y-67997435D02*
X176830000Y-67999000D01*
X147365592Y-118407246D02*
X147332130Y-118437186D01*
X139051202Y-105923131D02*
X139013642Y-105898518D01*
X169353930Y-93443586D02*
X169323766Y-93476847D01*
X161183040Y-81950394D02*
X161192627Y-81906525D01*
X158505579Y-93346802D02*
X158464526Y-93364990D01*
X169249205Y-81004252D02*
X169239440Y-81024476D01*
X172195795Y-119403111D02*
X172198999Y-118740069D01*
X144333361Y-132764601D02*
X144281888Y-132761957D01*
X169230999Y-93720006D02*
X169226702Y-94384190D01*
X181360999Y-125820004D02*
X181359468Y-125877422D01*
X138884981Y-80785352D02*
X138841111Y-80775766D01*
X171965670Y-94778088D02*
X172005719Y-94757778D01*
X139068969Y-93414671D02*
X139051202Y-93400931D01*
X158285751Y-107120987D02*
X158310118Y-107158706D01*
X171879581Y-80785352D02*
X171835711Y-80775766D01*
X169460172Y-107289346D02*
X169501107Y-107307807D01*
X169270242Y-119611564D02*
X169296542Y-119647962D01*
X158355730Y-105965786D02*
X158325566Y-105999047D01*
X158477507Y-82238007D02*
X158520141Y-82252106D01*
X158257943Y-93592782D02*
X158243841Y-93635411D01*
X171947616Y-105869252D02*
X171904981Y-105855152D01*
X178791736Y-132503608D02*
X178778588Y-132525972D01*
X139199051Y-93594684D02*
X139180855Y-93553630D01*
X136375671Y-93428180D02*
X136359330Y-93443586D01*
X169632226Y-107336455D02*
X171789951Y-107338999D01*
X147547341Y-107321906D02*
X147591212Y-107331491D01*
X139218099Y-106181453D02*
X139212875Y-106159609D01*
X147661152Y-105840640D02*
X147638689Y-105841223D01*
X136481107Y-82238007D02*
X136523741Y-82252106D01*
X185812867Y-113431192D02*
X185774369Y-113434225D01*
X116409348Y-120379052D02*
X116389359Y-120326427D01*
X147205465Y-119400088D02*
X147210162Y-119444914D01*
X158436572Y-119760746D02*
X158456798Y-119770510D01*
X147365592Y-80866046D02*
X147332130Y-80895986D01*
X136485798Y-107299110D02*
X136527640Y-107315412D01*
X171876782Y-82252873D02*
X171919506Y-82239050D01*
X186274620Y-77248531D02*
X186319411Y-77342848D01*
X136301042Y-107140164D02*
X136313718Y-107158706D01*
X139144777Y-118527470D02*
X139133085Y-118508293D01*
X169222213Y-81969189D02*
X169238242Y-82011136D01*
X150179055Y-106075830D02*
X150168377Y-106056070D01*
X147220241Y-118629011D02*
X147210653Y-118672877D01*
X161022202Y-118394531D02*
X160984642Y-118369918D01*
X147232987Y-106223720D02*
X147230999Y-106250038D01*
X139115669Y-94673601D02*
X139144058Y-94638809D01*
X186354330Y-113099356D02*
X186332487Y-113131139D01*
X161140458Y-107161009D02*
X161165071Y-107123451D01*
X150098354Y-107212041D02*
X150128517Y-107178775D01*
X136280005Y-106074052D02*
X136261543Y-106114982D01*
X136570431Y-80776093D02*
X136526502Y-80785386D01*
X180992929Y-126356533D02*
X180967175Y-126364000D01*
X150222918Y-106953942D02*
X150228999Y-106929878D01*
X158260351Y-82051187D02*
X158284718Y-82088906D01*
X169609977Y-94812375D02*
X169630159Y-94818999D01*
X158325566Y-105999047D02*
X158311825Y-106016811D01*
X169543741Y-94799706D02*
X169587612Y-94809291D01*
X169475707Y-119779207D02*
X169518341Y-119793306D01*
X161088646Y-118454775D02*
X161056996Y-118422919D01*
X144230996Y-132754132D02*
X144181107Y-132741190D01*
X169203984Y-81153939D02*
X169201000Y-81180056D01*
X172183841Y-94561335D02*
X172200145Y-94519495D01*
X169308318Y-94636506D02*
X169321942Y-94654362D01*
X178793062Y-69588400D02*
X178811600Y-69689948D01*
X161197595Y-119403112D02*
X161198999Y-118740026D01*
X178855219Y-132281418D02*
X178853251Y-132307326D01*
X160903982Y-107322673D02*
X160946706Y-107308850D01*
X169521102Y-80785386D02*
X169499560Y-80791737D01*
X144281888Y-132761957D02*
X144230996Y-132754132D01*
X158231186Y-93701525D02*
X158229285Y-93723885D01*
X158400190Y-80839752D02*
X158363792Y-80866046D01*
X138993951Y-105887713D02*
X138953016Y-105869252D01*
X172182075Y-81089809D02*
X172168251Y-81047084D01*
X136302629Y-93513066D02*
X136280005Y-93551852D01*
X160882138Y-107327896D02*
X160903982Y-107322673D01*
X150190205Y-81928585D02*
X150197492Y-81884287D01*
X139106783Y-80930696D02*
X139076836Y-80897234D01*
X172158441Y-119554935D02*
X172174745Y-119513095D01*
X161007519Y-107279978D02*
X161026696Y-107268286D01*
X158423180Y-94744525D02*
X158461972Y-94767146D01*
X136526502Y-80785386D02*
X136504960Y-80791737D01*
X161082396Y-93429319D02*
X161065369Y-93414671D01*
X136570431Y-118317293D02*
X136526502Y-118326586D01*
X111505256Y-77147219D02*
X111562253Y-77057957D01*
X172138658Y-94638809D02*
X172163271Y-94601251D01*
X160928282Y-105861646D02*
X160906781Y-105855152D01*
X120520010Y-68022303D02*
X120624377Y-68008498D01*
X172207475Y-93637409D02*
X172193651Y-93594684D01*
X149836452Y-82262174D02*
X149880382Y-82252873D01*
X158397780Y-82196925D02*
X158416881Y-82208741D01*
X160903982Y-94800473D02*
X160925525Y-94794118D01*
X119490222Y-68516246D02*
X119570077Y-68447563D01*
X138988242Y-80828718D02*
X138948324Y-80808149D01*
X147278205Y-93551852D02*
X147268440Y-93572076D01*
X169202085Y-118717487D02*
X169201000Y-119379978D01*
X138838252Y-119803374D02*
X138882182Y-119794073D01*
X158311825Y-106016811D02*
X158299029Y-106035266D01*
X172053014Y-82157650D02*
X172069354Y-82142241D01*
X161039969Y-80867071D02*
X161022202Y-80853331D01*
X139058414Y-119698850D02*
X139074754Y-119683441D01*
X185963648Y-113399135D02*
X185926622Y-113410103D01*
X147390992Y-105935846D02*
X147357530Y-105965786D01*
X172005719Y-94757778D02*
X172024896Y-94746086D01*
X169417566Y-118369263D02*
X169398390Y-118380952D01*
X186048445Y-76898577D02*
X186111737Y-76981488D01*
X119829546Y-68268102D02*
X119921941Y-68217642D01*
X111717310Y-113428234D02*
X111680807Y-113409168D01*
X150049402Y-105923131D02*
X150011842Y-105898518D01*
X169227485Y-106246083D02*
X169230999Y-106909994D01*
X147244860Y-107017446D02*
X147251213Y-107038989D01*
X147287551Y-107120987D02*
X147311918Y-107158706D01*
X147466326Y-93364990D02*
X147427390Y-93387352D01*
X111760253Y-76810124D02*
X111834689Y-76734861D01*
X143835104Y-132357996D02*
X143827310Y-132307099D01*
X161128583Y-106000496D02*
X161098636Y-105967034D01*
X161209275Y-93637409D02*
X161195451Y-93594684D01*
X139013642Y-105898518D02*
X138993951Y-105887713D01*
X147207562Y-81154058D02*
X147201000Y-81180121D01*
X158233762Y-94451314D02*
X158237838Y-94473401D01*
X150210240Y-94497994D02*
X150215605Y-94476185D01*
X186491105Y-78153779D02*
X186500995Y-87120092D01*
X150197251Y-106116884D02*
X150179055Y-106075830D01*
X147251213Y-94516789D02*
X147267242Y-94558736D01*
X169247613Y-107038989D02*
X169263642Y-107080936D01*
X158548302Y-105855186D02*
X158526760Y-105861537D01*
X150168377Y-106056070D02*
X150144008Y-106018352D01*
X144042745Y-132673245D02*
X144002000Y-132641680D01*
X120729274Y-68000204D02*
X120834540Y-67997435D01*
X139192005Y-81928585D02*
X139199287Y-81884324D01*
X138907582Y-107322673D02*
X138950306Y-107308850D01*
X172168251Y-81047084D02*
X172150055Y-81006030D01*
X150130383Y-93478296D02*
X150100436Y-93444834D01*
X160815268Y-94814466D02*
X160860052Y-94809774D01*
X139201194Y-119403115D02*
X139199000Y-118740003D01*
X172038169Y-80867071D02*
X172020402Y-80853331D01*
X149842518Y-93320308D02*
X147661152Y-93318440D01*
X186409561Y-112997639D02*
X186392959Y-113032447D01*
X147610426Y-119807855D02*
X149791783Y-119808052D01*
X186437247Y-112925510D02*
X186424339Y-112961962D01*
X147640030Y-118311000D02*
X147568631Y-118317293D01*
X112034495Y-113510355D02*
X111993431Y-113507230D01*
X172140408Y-93496152D02*
X172126783Y-93478296D01*
X116333171Y-119882975D02*
X116338999Y-113511000D01*
X150187441Y-94561335D02*
X150203745Y-94519495D01*
X136365155Y-82170388D02*
X136401380Y-82196925D01*
X158502907Y-94785607D02*
X158545541Y-94799706D01*
X147524702Y-80785386D02*
X147503160Y-80791737D01*
X171883171Y-93327587D02*
X171838921Y-93320308D01*
X178811600Y-69689948D02*
X178824876Y-69792316D01*
X149839311Y-80775766D02*
X149789968Y-80770999D01*
X150047037Y-107255611D02*
X150082014Y-107227450D01*
X138991359Y-107290655D02*
X139011119Y-107279978D01*
X158608626Y-119807855D02*
X160769976Y-119808999D01*
X171944906Y-94786650D02*
X171965670Y-94778088D01*
X178265607Y-68599829D02*
X178335826Y-68675492D01*
X172194298Y-81156010D02*
X172187299Y-81111653D01*
X171880338Y-107327896D02*
X171902182Y-107322673D01*
X160878582Y-82252873D02*
X160921306Y-82239050D01*
X161165071Y-107123451D02*
X161185641Y-107083535D01*
X160837783Y-107334895D02*
X160882138Y-107327896D01*
X158232543Y-81045182D02*
X158218441Y-81087811D01*
X169323766Y-105999047D02*
X169297229Y-106035266D01*
X147483998Y-107299110D02*
X147504707Y-107307807D01*
X111545649Y-113315107D02*
X111515015Y-113287432D01*
X136468126Y-105887190D02*
X136429190Y-105909552D01*
X149883938Y-94805696D02*
X149905782Y-94800473D01*
X178769313Y-69487943D02*
X178793062Y-69588400D01*
X158564012Y-82261691D02*
X158610088Y-82268999D01*
X143964692Y-132606193D02*
X143947382Y-132587023D01*
X150194977Y-118674941D02*
X150185675Y-118631009D01*
X186469301Y-112774675D02*
X186464262Y-112812962D01*
X186224995Y-77156724D02*
X186274620Y-77248531D01*
X160906781Y-93332952D02*
X160862911Y-93323366D01*
X169475707Y-82238007D02*
X169518341Y-82252106D01*
X171880338Y-94805696D02*
X171902182Y-94800473D01*
X136263951Y-119592387D02*
X136275642Y-119611564D01*
X160946706Y-107308850D02*
X160967470Y-107300288D01*
X169359755Y-82170388D02*
X169395980Y-82196925D01*
X158456798Y-82229310D02*
X158477507Y-82238007D01*
X139187475Y-81089809D02*
X139173651Y-81047084D01*
X158522902Y-118326586D02*
X158501360Y-118332937D01*
X147219460Y-81947646D02*
X147225813Y-81969189D01*
X171902182Y-107322673D02*
X171944906Y-107308850D01*
X147275429Y-80965466D02*
X147252805Y-81004252D01*
X150009319Y-107279978D02*
X150028496Y-107268286D01*
X138796526Y-94815040D02*
X138841383Y-94812695D01*
X172212699Y-93659253D02*
X172207475Y-93637409D01*
X147230999Y-106250038D02*
X147230302Y-106906387D01*
X147479307Y-82238007D02*
X147521941Y-82252106D01*
X158386955Y-107240188D02*
X158423180Y-107266725D01*
X139104917Y-82108975D02*
X139118658Y-82091209D01*
X150223298Y-106225810D02*
X150216299Y-106181453D01*
X172150055Y-118547230D02*
X172139377Y-118527470D01*
X181251610Y-126174703D02*
X181216976Y-126215493D01*
X169565031Y-80776093D02*
X169521102Y-80785386D01*
X169249205Y-118545452D02*
X169230743Y-118586382D01*
X169230999Y-106909994D02*
X169227296Y-106928963D01*
X158298342Y-82106762D02*
X158328288Y-82140225D01*
X139217405Y-106998385D02*
X139228999Y-106929912D01*
X147273842Y-119611564D02*
X147300142Y-119647962D01*
X158298342Y-119647962D02*
X158312879Y-119665084D01*
X143828999Y-121001000D02*
X117100000Y-121001000D01*
X160767526Y-82267440D02*
X160812383Y-82265095D01*
X158660001Y-93320999D02*
X158636833Y-93319028D01*
X116329893Y-119939144D02*
X116333171Y-119882975D01*
X158273629Y-80965466D02*
X158251005Y-81004252D01*
X111345083Y-113056025D02*
X111327846Y-113018512D01*
X119273940Y-68745997D02*
X119341969Y-68665653D01*
X169226702Y-94384190D02*
X169229042Y-94429044D01*
X185980848Y-76818999D02*
X186048445Y-76898577D01*
X136618099Y-105842976D02*
X136573745Y-105849967D01*
X169590431Y-105845893D02*
X169568345Y-105849967D01*
X136637552Y-80770840D02*
X136615089Y-80771423D01*
X147504707Y-94785607D02*
X147547341Y-94799706D01*
X150197898Y-81156010D02*
X150190899Y-81111653D01*
X161112069Y-94673601D02*
X161140458Y-94638809D01*
X178851000Y-126361010D02*
X178851000Y-132259902D01*
X181295362Y-126107461D02*
X181267357Y-126152998D01*
X186488381Y-78049429D02*
X186491105Y-78153779D01*
X147201000Y-81180121D02*
X147204901Y-81836583D01*
X169242041Y-106157611D02*
X169232453Y-106201477D01*
X138841383Y-107334895D02*
X138885738Y-107327896D01*
X172216777Y-106203541D02*
X172212699Y-106181453D01*
X158238475Y-106179419D02*
X158231191Y-106223686D01*
X139199051Y-106116884D02*
X139180855Y-106075830D01*
X158310118Y-107158706D02*
X158323742Y-107176562D01*
X178740414Y-69388845D02*
X178769313Y-69487943D01*
X160769976Y-119808999D02*
X160834652Y-119803374D01*
X158312879Y-119665084D02*
X158328288Y-119681425D01*
X139117646Y-93461175D02*
X139102236Y-93444834D01*
X171791097Y-118312000D02*
X169630039Y-118311000D01*
X158297442Y-94617964D02*
X158323742Y-94654362D01*
X169263642Y-94558736D02*
X169283951Y-94598787D01*
X171838921Y-93320308D02*
X169657552Y-93318440D01*
X147444081Y-94756341D02*
X147483998Y-94776910D01*
X136303766Y-118470447D02*
X136290025Y-118488211D01*
X181354462Y-125930647D02*
X181349924Y-125957075D01*
X186423428Y-77637790D02*
X186447701Y-77739288D01*
X178345166Y-132767172D02*
X178293498Y-132764644D01*
X149943870Y-119771688D02*
X149983919Y-119751378D01*
X136481107Y-119779207D02*
X136523741Y-119793306D01*
X161086669Y-119667201D02*
X161115058Y-119632409D01*
X158213075Y-118650819D02*
X158208853Y-118672877D01*
X158456798Y-119770510D02*
X158498640Y-119786812D01*
X136403790Y-80839752D02*
X136385248Y-80852425D01*
X160967470Y-107300288D02*
X161007519Y-107279978D01*
X143947382Y-132587023D02*
X143915846Y-132546256D01*
X160944724Y-80808149D02*
X160902882Y-80791846D01*
X169232453Y-106201477D02*
X169227485Y-106246083D01*
X111515015Y-113287432D02*
X111485859Y-113258276D01*
X111562253Y-77057957D02*
X111623829Y-76971920D01*
X161221081Y-106954161D02*
X161219000Y-106929992D01*
X112179000Y-100989516D02*
X112179000Y-87810503D01*
X172055196Y-118422919D02*
X172020402Y-118394531D01*
X136420481Y-82208741D02*
X136460398Y-82229310D01*
X178473185Y-132750671D02*
X178422492Y-132761162D01*
X161010042Y-105898518D02*
X160970124Y-105877949D01*
X139192699Y-81111653D02*
X139187475Y-81089809D01*
X160881381Y-80785352D02*
X160837511Y-80775766D01*
X158353688Y-107210025D02*
X158386955Y-107240188D01*
X147408848Y-105922225D02*
X147390992Y-105935846D01*
X136313718Y-94636506D02*
X136341879Y-94671484D01*
X147355488Y-94687825D02*
X147388755Y-94717988D01*
X138815983Y-82265095D02*
X138860338Y-82258096D01*
X171988551Y-105887713D02*
X171947616Y-105869252D01*
X150144008Y-93496152D02*
X150130383Y-93478296D01*
X161183040Y-119491594D02*
X161192627Y-119447725D01*
X139218099Y-93659253D02*
X139212875Y-93637409D01*
X171922216Y-118340652D02*
X171901082Y-118333046D01*
X181359468Y-125877422D02*
X181354462Y-125930647D01*
X160792897Y-118312000D02*
X158630043Y-118311000D01*
X169326488Y-82140225D02*
X169359755Y-82170388D01*
X147503160Y-118332937D02*
X147461215Y-118348961D01*
X158502907Y-107307807D02*
X158545541Y-107321906D01*
X139004896Y-82198486D02*
X139023437Y-82185811D01*
X186393911Y-77537745D02*
X186423428Y-77637790D01*
X161115058Y-82091209D02*
X161139671Y-82053651D01*
X158611489Y-80771423D02*
X158566831Y-80776093D01*
X147232642Y-94429044D02*
X147239638Y-94473401D01*
X169630159Y-94818999D02*
X171791126Y-94815040D01*
X139074754Y-82142241D02*
X139104917Y-82108975D01*
X178835516Y-69998400D02*
X178831000Y-76379000D01*
X111327846Y-113018512D02*
X111312551Y-112980221D01*
X136359330Y-105965786D02*
X136343815Y-105982023D01*
X150024002Y-80853331D02*
X149986442Y-80828718D01*
X149839311Y-118316966D02*
X149794697Y-118312000D01*
X169518341Y-119793306D02*
X169562212Y-119802891D01*
X147388755Y-94717988D02*
X147424980Y-94744525D01*
X169351888Y-94687825D02*
X169385155Y-94717988D01*
X116329575Y-119995384D02*
X116329893Y-119939144D01*
X138841111Y-80775766D02*
X138799955Y-80770999D01*
X161185641Y-107083535D02*
X161201945Y-107041695D01*
X147550102Y-105855186D02*
X147528560Y-105861537D01*
X139225098Y-93703610D02*
X139218099Y-93659253D01*
X169405248Y-93400025D02*
X169387392Y-93413646D01*
X150228999Y-94409866D02*
X150225644Y-93748470D01*
X147479307Y-119779207D02*
X147521941Y-119793306D01*
X161161488Y-118567520D02*
X161141177Y-118527470D01*
X149791783Y-119808052D02*
X149836452Y-119803374D01*
X158205442Y-81881444D02*
X158212438Y-81925801D01*
X161140458Y-94638809D02*
X161165071Y-94601251D01*
X149969270Y-94778088D02*
X150009319Y-94757778D01*
X136227613Y-119510389D02*
X136243642Y-119552336D01*
X147568631Y-118317293D02*
X147524702Y-118326586D01*
X161160241Y-119554935D02*
X161176545Y-119513095D01*
X172138658Y-107161009D02*
X172163271Y-107123451D01*
X136253936Y-93613913D02*
X136242075Y-93657219D01*
X138818861Y-118313900D02*
X138796497Y-118312000D01*
X116792916Y-120854305D02*
X116747334Y-120821181D01*
X169238242Y-82011136D02*
X169258551Y-82051187D01*
X172196644Y-81200869D02*
X172194298Y-81156010D01*
X119570077Y-68447563D02*
X119653392Y-68383207D01*
X111689901Y-76889217D02*
X111760253Y-76810124D01*
X147594031Y-93323693D02*
X147550102Y-93332986D01*
X172181240Y-81950394D02*
X172186605Y-81928585D01*
X171769974Y-119808999D02*
X171832852Y-119803374D01*
X116346363Y-120163272D02*
X116337821Y-120107630D01*
X150118608Y-80948552D02*
X150104983Y-80930696D01*
X172110269Y-107195801D02*
X172138658Y-107161009D01*
X149983919Y-119751378D02*
X150003096Y-119739686D01*
X158243841Y-93635411D02*
X158234253Y-93679277D01*
X149901925Y-82246518D02*
X149943870Y-82230488D01*
X161019837Y-119727011D02*
X161054814Y-119698850D01*
X169387392Y-93413646D02*
X169353930Y-93443586D01*
X111259004Y-101719900D02*
X112179000Y-100989516D01*
X160834652Y-119803374D02*
X160878582Y-119794073D01*
X139118658Y-82091209D02*
X139143271Y-82053651D01*
X158484815Y-105877561D02*
X158464526Y-105887190D01*
X172200145Y-94519495D02*
X172206640Y-94497994D01*
X136207485Y-118717483D02*
X136210999Y-119379994D01*
X169297229Y-93513066D02*
X169274605Y-93551852D01*
X178839570Y-132383720D02*
X178824104Y-132433070D01*
X158361555Y-119711588D02*
X158397780Y-119738125D01*
X111261900Y-112697600D02*
X111259004Y-101719900D01*
X186257285Y-113219194D02*
X186229273Y-113245776D01*
X150216299Y-93659253D02*
X150211075Y-93637409D01*
X172174745Y-81971895D02*
X172181240Y-81950394D01*
X172018037Y-82185811D02*
X172053014Y-82157650D01*
X139143271Y-119594851D02*
X139163841Y-119554935D01*
X171980319Y-82210178D02*
X171999496Y-82198486D01*
X149864711Y-105845566D02*
X149819966Y-105840999D01*
X136222041Y-118629011D02*
X136212453Y-118672877D01*
X139199287Y-81884324D02*
X139202043Y-81200865D01*
X138968551Y-118359113D02*
X138927616Y-118340652D01*
X161151855Y-81006030D02*
X161141177Y-80986270D01*
X136488415Y-93355361D02*
X136468126Y-93364990D01*
X172086846Y-118454775D02*
X172055196Y-118422919D01*
X158501360Y-118332937D02*
X158459415Y-118348961D01*
X158237838Y-106995601D02*
X158243060Y-107017446D01*
X171940270Y-82230488D02*
X171980319Y-82210178D01*
X147239638Y-94473401D02*
X147244860Y-94495246D01*
X161001296Y-82198486D02*
X161019837Y-82185811D01*
X178575070Y-69011241D02*
X178623662Y-69102315D01*
X161195451Y-93594684D02*
X161177255Y-93553630D01*
X172096836Y-93444834D02*
X172063569Y-93414671D01*
X143915846Y-132546256D02*
X143888619Y-132502553D01*
X138950306Y-94786650D02*
X138991359Y-94768455D01*
X180967175Y-126364000D02*
X180914845Y-126374932D01*
X136465572Y-94767146D02*
X136485798Y-94776910D01*
X111832085Y-113474080D02*
X111793068Y-113460744D01*
X172182075Y-118631009D02*
X172168251Y-118588284D01*
X161183875Y-81089809D02*
X161170051Y-81047084D01*
X169423790Y-93387352D02*
X169405248Y-93400025D01*
X169203642Y-81881444D02*
X169210638Y-81925801D01*
X150072954Y-82142241D02*
X150088469Y-82126001D01*
X169311079Y-119665084D02*
X169326488Y-119681425D01*
X147214238Y-81925801D02*
X147219460Y-81947646D01*
X136545552Y-82257470D02*
X136610103Y-82268999D01*
X136488415Y-105877561D02*
X136468126Y-105887190D01*
X181090936Y-126314017D02*
X181042990Y-126337778D01*
X158201000Y-81180089D02*
X158203101Y-81836585D01*
X136610103Y-82268999D02*
X138771126Y-82267440D01*
X150219827Y-106976325D02*
X150222918Y-106953942D01*
X172113258Y-119632409D02*
X172137871Y-119594851D01*
X139228999Y-106929912D02*
X139227444Y-106270669D01*
X150041769Y-118408271D02*
X150005543Y-118381735D01*
X186111737Y-76981488D02*
X186170652Y-77067629D01*
X158241240Y-81024476D02*
X158232543Y-81045182D01*
X158633952Y-80770840D02*
X158611489Y-80771423D01*
X150190899Y-81111653D02*
X150185675Y-81089809D01*
X169501107Y-107307807D02*
X169543741Y-107321906D01*
X136527640Y-94793212D02*
X136570952Y-94805070D01*
X150021637Y-119727011D02*
X150056614Y-119698850D01*
X158520141Y-82252106D02*
X158564012Y-82261691D01*
X147245641Y-93635411D02*
X147236053Y-93679277D01*
X150082014Y-107227450D02*
X150098354Y-107212041D01*
X149839583Y-94812695D02*
X149883938Y-94805696D01*
X136216038Y-119467001D02*
X136227613Y-119510389D01*
X136401380Y-119738125D02*
X136420481Y-119749941D01*
X169387392Y-105935846D02*
X169353930Y-105965786D01*
X158423180Y-107266725D02*
X158442281Y-107278541D01*
X136243642Y-82011136D02*
X136263951Y-82051187D01*
X169562212Y-119802891D02*
X169584462Y-119805955D01*
X116332220Y-120051616D02*
X116329575Y-119995384D01*
X172137871Y-119594851D02*
X172158441Y-119554935D01*
X147461215Y-118348961D02*
X147440926Y-118358590D01*
X147610095Y-82268999D02*
X149769326Y-82267440D01*
X161054814Y-82157650D02*
X161071154Y-82142241D01*
X158237838Y-94473401D02*
X158249413Y-94516789D01*
X160862911Y-105845566D02*
X160819963Y-105840999D01*
X158231191Y-106223686D02*
X158228502Y-106906388D01*
X172201120Y-106138066D02*
X172185088Y-106096120D01*
X147230302Y-94384187D02*
X147232642Y-94429044D01*
X138950306Y-107308850D02*
X138991359Y-107290655D01*
X147424980Y-107266725D02*
X147444081Y-107278541D01*
X138844317Y-93320308D02*
X136662952Y-93318440D01*
X139189241Y-107083535D02*
X139205545Y-107041695D01*
X139092246Y-118454775D02*
X139060596Y-118422919D01*
X161142208Y-93496152D02*
X161114046Y-93461175D01*
X169326488Y-119681425D02*
X169359755Y-119711588D01*
X181267357Y-126152998D02*
X181251610Y-126174703D01*
X147210653Y-81131677D02*
X147207562Y-81154058D01*
X136420481Y-119749941D02*
X136440172Y-119760746D01*
X172219698Y-93703610D02*
X172212699Y-93659253D01*
X139173651Y-81047084D02*
X139155455Y-81006030D01*
X139060596Y-118422919D02*
X139043569Y-118408271D01*
X161221498Y-106225810D02*
X161214499Y-106181453D01*
X147263611Y-118525764D02*
X147252805Y-118545452D01*
X169296542Y-119647962D02*
X169311079Y-119665084D01*
X169283951Y-94598787D02*
X169308318Y-94636506D01*
X172045802Y-93400931D02*
X172008242Y-93376318D01*
X169328530Y-118437186D02*
X169298366Y-118470447D01*
X160984642Y-118369918D02*
X160964951Y-118359113D01*
X147355488Y-107210025D02*
X147388755Y-107240188D01*
X136254605Y-118545452D02*
X136236143Y-118586382D01*
X169462726Y-105887190D02*
X169423790Y-105909552D01*
X136440172Y-119760746D02*
X136481107Y-119779207D01*
X139090269Y-119667201D02*
X139118658Y-119632409D01*
X169351888Y-107210025D02*
X169385155Y-107240188D01*
X136343815Y-105982023D02*
X136315425Y-106016811D01*
X120016910Y-68172090D02*
X120114096Y-68131617D01*
X161198999Y-81859932D02*
X161198444Y-81200868D01*
X136333930Y-118437186D02*
X136303766Y-118470447D01*
X181216976Y-126215493D02*
X181178419Y-126252524D01*
X139023437Y-82185811D02*
X139058414Y-82157650D01*
X169241260Y-107017446D02*
X169247613Y-107038989D01*
X160982119Y-82210178D02*
X161001296Y-82198486D01*
X180914845Y-126374932D02*
X180861625Y-126380502D01*
X169298366Y-118470447D02*
X169284625Y-118488211D01*
X158314815Y-80912223D02*
X158300166Y-80929247D01*
X169336479Y-107193684D02*
X169351888Y-107210025D01*
X172139377Y-118527470D02*
X172115008Y-118489752D01*
X172221194Y-106931715D02*
X172219000Y-106270003D01*
X136392792Y-105935846D02*
X136359330Y-105965786D01*
X169256143Y-106114982D02*
X169242041Y-106157611D01*
X138953016Y-93347052D02*
X138931882Y-93339446D01*
X150153655Y-81006030D02*
X150142977Y-80986270D01*
X147232642Y-106951244D02*
X147239638Y-106995601D01*
X186000099Y-113386225D02*
X185963648Y-113399135D01*
X150211075Y-93637409D02*
X150197251Y-93594684D01*
X172185088Y-106096120D02*
X172164777Y-106056070D01*
X160906781Y-105855152D02*
X160862911Y-105845566D01*
X147357530Y-105965786D02*
X147327366Y-105999047D01*
X136277229Y-80965466D02*
X136254605Y-81004252D01*
X150142258Y-107161009D02*
X150166871Y-107123451D01*
X139025802Y-80853331D02*
X138988242Y-80828718D01*
X169283951Y-107120987D02*
X169308318Y-107158706D01*
X150098354Y-94689841D02*
X150128517Y-94656575D01*
X186472329Y-112736114D02*
X186469301Y-112774675D01*
X136247441Y-106157611D02*
X136237853Y-106201477D01*
X161223843Y-106270664D02*
X161221498Y-106225810D01*
X158610088Y-82268999D02*
X160767526Y-82267440D01*
X161176545Y-81971895D02*
X161183040Y-81950394D01*
X158328288Y-82140225D02*
X158361555Y-82170388D01*
X172193651Y-93594684D02*
X172175455Y-93553630D01*
X169298366Y-80929247D02*
X169271829Y-80965466D01*
X147399580Y-119738125D02*
X147438372Y-119760746D01*
X136254605Y-81004252D02*
X136236143Y-81045182D01*
X147547341Y-94799706D02*
X147591212Y-94809291D01*
X136231000Y-93720100D02*
X136232687Y-94406652D01*
X169457615Y-80807761D02*
X169437326Y-80817390D01*
X138841383Y-94812695D02*
X138885738Y-94805696D01*
X169313015Y-80912223D02*
X169298366Y-80929247D01*
X138907582Y-94800473D02*
X138950306Y-94786650D01*
X158224936Y-118607513D02*
X158213075Y-118650819D01*
X150203745Y-94519495D02*
X150210240Y-94497994D01*
X139196227Y-119447725D02*
X139201194Y-119403115D01*
X150200243Y-81200867D02*
X150197898Y-81156010D01*
X172137871Y-82053651D02*
X172158441Y-82013735D01*
X160949416Y-93347052D02*
X160906781Y-93332952D01*
X172027343Y-105910335D02*
X171988551Y-105887713D01*
X169241260Y-94495246D02*
X169247613Y-94516789D01*
X112080408Y-76534076D02*
X112168948Y-76476157D01*
X158353688Y-94687825D02*
X158386955Y-94717988D01*
X158257943Y-106114982D02*
X158250336Y-106136113D01*
X147327366Y-105999047D02*
X147313625Y-106016811D01*
X158243060Y-107017446D02*
X158249413Y-107038989D01*
X178715347Y-132607780D02*
X178677855Y-132643476D01*
X181042990Y-126337778D02*
X180992929Y-126356533D01*
X138924906Y-82239050D02*
X138945670Y-82230488D01*
X147401990Y-118380952D02*
X147365592Y-118407246D01*
X169215860Y-119488846D02*
X169222213Y-119510389D01*
X178191579Y-68527888D02*
X178265607Y-68599829D01*
X139202043Y-81200865D02*
X139199698Y-81156010D01*
X158459415Y-80807761D02*
X158439126Y-80817390D01*
X172094754Y-94689841D02*
X172124917Y-94656575D01*
X143856366Y-132432336D02*
X143848015Y-132407894D01*
X158311825Y-93494611D02*
X158299029Y-93513066D01*
X161080214Y-107227450D02*
X161096554Y-107212041D01*
X160921306Y-82239050D02*
X160942070Y-82230488D01*
X158419366Y-118369263D02*
X158400190Y-118380952D01*
X111577606Y-113341162D02*
X111545649Y-113315107D01*
X178522559Y-132735111D02*
X178473185Y-132750671D01*
X171861111Y-105845566D02*
X171816497Y-105840600D01*
X147401990Y-80839752D02*
X147365592Y-80866046D01*
X172063569Y-93414671D02*
X172045802Y-93400931D01*
X149908581Y-105855152D02*
X149864711Y-105845566D01*
X178335826Y-68675492D02*
X178402051Y-68754675D01*
X158330330Y-80895986D02*
X158314815Y-80912223D01*
X147640082Y-107338999D02*
X149794726Y-107337240D01*
X169201000Y-119379978D02*
X169203642Y-119422644D01*
X158372071Y-93428180D02*
X158340215Y-93459823D01*
X116432080Y-120430552D02*
X116409348Y-120379052D01*
X150028496Y-107268286D02*
X150047037Y-107255611D01*
X149971924Y-93355749D02*
X149930082Y-93339446D01*
X169353930Y-105965786D02*
X169338415Y-105982023D01*
X147286518Y-82088906D02*
X147300142Y-82106762D01*
X158276405Y-106074052D02*
X158257943Y-106114982D01*
X147325542Y-107176562D02*
X147355488Y-107210025D01*
X147225813Y-119510389D02*
X147241842Y-119552336D01*
X147444081Y-107278541D02*
X147483998Y-107299110D01*
X150197492Y-81884287D02*
X150199000Y-81859968D01*
X139168671Y-94601251D02*
X139189241Y-94561335D01*
X116357823Y-120218387D02*
X116346363Y-120163272D01*
X169247613Y-94516789D02*
X169263642Y-94558736D01*
X161192627Y-119447725D02*
X161197595Y-119403112D01*
X158464526Y-93364990D02*
X158444766Y-93375663D01*
X158340215Y-93459823D02*
X158311825Y-93494611D01*
X147311918Y-107158706D02*
X147325542Y-107176562D01*
X169565031Y-118317293D02*
X169521102Y-118326586D01*
X171982842Y-118369918D02*
X171963151Y-118359113D01*
X136615089Y-80771423D02*
X136570431Y-80776093D01*
X136365155Y-119711588D02*
X136401380Y-119738125D01*
X158218441Y-81087811D02*
X158208853Y-81131677D01*
X169239440Y-81024476D02*
X169230743Y-81045182D01*
X147313625Y-106016811D02*
X147300829Y-106035266D01*
X139227444Y-93748469D02*
X139225098Y-93703610D01*
X139199000Y-118740003D02*
X139201450Y-118719529D01*
X136243642Y-119552336D02*
X136263951Y-119592387D01*
X136209042Y-81881444D02*
X136216038Y-81925801D01*
X161198444Y-81200868D02*
X161196098Y-81156010D01*
X186104565Y-113336388D02*
X186070583Y-113354840D01*
X147232985Y-93701536D02*
X147230999Y-93720053D01*
X139013642Y-93376318D02*
X138993951Y-93365513D01*
X185672084Y-76539199D02*
X185754616Y-76602986D01*
X136463015Y-118348961D02*
X136422966Y-118369263D01*
X161213805Y-106998385D02*
X161221081Y-106954161D01*
X116584418Y-120666305D02*
X116549064Y-120622498D01*
X169395980Y-119738125D02*
X169434772Y-119760746D01*
X136570952Y-107327270D02*
X136640088Y-107338999D01*
X158592231Y-93323693D02*
X158548302Y-93332986D01*
X147528560Y-93339337D02*
X147486615Y-93355361D01*
X169454998Y-119770510D02*
X169475707Y-119779207D01*
X161026696Y-107268286D02*
X161045237Y-107255611D01*
X172212005Y-94476185D02*
X172219286Y-94431925D01*
X136278674Y-94579026D02*
X136301042Y-94617964D01*
X139083814Y-94705250D02*
X139115669Y-94673601D01*
X111680807Y-113409168D02*
X111645272Y-113388253D01*
X147243040Y-81024476D02*
X147234343Y-81045182D01*
X144064306Y-132687467D02*
X144042745Y-132673245D01*
X138988242Y-118369918D02*
X138968551Y-118359113D01*
X169263642Y-107080936D02*
X169283951Y-107120987D01*
X169454998Y-82229310D02*
X169475707Y-82238007D01*
X161115058Y-119632409D02*
X161139671Y-119594851D01*
X178667492Y-69195774D02*
X178706444Y-69291369D01*
X150021637Y-82185811D02*
X150056614Y-82157650D01*
X143876664Y-132479657D02*
X143856366Y-132432336D01*
X161214499Y-106181453D02*
X161209275Y-106159609D01*
X136526502Y-118326586D02*
X136504960Y-118332937D01*
X160812383Y-82265095D02*
X160856738Y-82258096D01*
X158397780Y-119738125D02*
X158436572Y-119760746D01*
X138931882Y-93339446D02*
X138888571Y-93327587D01*
X139025802Y-118394531D02*
X138988242Y-118369918D01*
X150199394Y-119403113D02*
X150199653Y-118719573D01*
X169236675Y-93657219D02*
X169229398Y-93701440D01*
X172071436Y-80897234D02*
X172038169Y-80867071D01*
X161193177Y-118674941D02*
X161183875Y-118631009D01*
X169415081Y-82208741D02*
X169454998Y-82229310D01*
X172212005Y-106998385D02*
X172219293Y-106954076D01*
X150203745Y-107041695D02*
X150210240Y-107020194D01*
X149983919Y-82210178D02*
X150021637Y-82185811D01*
X160964951Y-118359113D02*
X160924016Y-118340652D01*
X138771126Y-82267440D02*
X138815983Y-82265095D01*
X160819963Y-105840999D02*
X158659352Y-105840640D01*
X161218577Y-93681341D02*
X161209275Y-93637409D01*
X169421380Y-94744525D02*
X169440481Y-94756341D01*
X169434772Y-119760746D02*
X169454998Y-119770510D01*
X112168948Y-76476157D02*
X112260518Y-76422947D01*
X172212699Y-106181453D02*
X172201120Y-106138066D01*
X160815261Y-118313900D02*
X160792897Y-118312000D01*
X149930082Y-105861646D02*
X149908581Y-105855152D01*
X169457615Y-118348961D02*
X169417566Y-118369263D01*
X160862911Y-93323366D02*
X160818298Y-93318400D01*
X111219000Y-78149998D02*
X111222955Y-78047841D01*
X149883181Y-80785352D02*
X149839311Y-80775766D01*
X136207295Y-119400356D02*
X136209042Y-119422644D01*
X158464526Y-105887190D02*
X158425590Y-105909552D01*
X169258551Y-119592387D02*
X169270242Y-119611564D01*
X144181107Y-132741190D02*
X144156670Y-132732824D01*
X136442726Y-80817390D02*
X136403790Y-80839752D01*
X172174076Y-107103761D02*
X172183841Y-107083535D01*
X147234343Y-118586382D02*
X147220241Y-118629011D01*
X136280005Y-93551852D02*
X136261543Y-93592782D01*
X158249413Y-94516789D02*
X158265442Y-94558736D01*
X150067169Y-93414671D02*
X150049402Y-93400931D01*
X169321942Y-94654362D02*
X169351888Y-94687825D01*
X147239638Y-106995601D02*
X147244860Y-107017446D01*
X116338999Y-113511000D02*
X112080000Y-113511000D01*
X139083814Y-107227450D02*
X139115669Y-107195801D01*
X136392792Y-93413646D02*
X136375671Y-93428180D01*
X147300829Y-93513066D02*
X147278205Y-93551852D01*
X158442281Y-107278541D02*
X158482198Y-107299110D01*
X171835711Y-118316966D02*
X171791097Y-118312000D01*
X158444766Y-93375663D02*
X158407048Y-93400025D01*
X169282918Y-82088906D02*
X169296542Y-82106762D01*
X158323742Y-107176562D02*
X158353688Y-107210025D01*
X172008242Y-93376318D02*
X171968324Y-93355749D01*
X139228999Y-94409904D02*
X139227444Y-93748469D01*
X147483998Y-94776910D02*
X147504707Y-94785607D01*
X139205545Y-107041695D02*
X139217405Y-106998385D01*
X111232695Y-77942434D02*
X111248003Y-77837639D01*
X139180855Y-106075830D02*
X139170177Y-106056070D01*
X139201450Y-118719529D02*
X139196777Y-118674941D01*
X149966751Y-118359113D02*
X149925816Y-118340652D01*
X138953016Y-105869252D02*
X138931882Y-105861646D01*
X169310025Y-93494611D02*
X169297229Y-93513066D01*
X136301942Y-119647962D02*
X136331888Y-119681425D01*
X169284625Y-118488211D02*
X169260011Y-118525764D01*
X150047037Y-94733411D02*
X150082014Y-94705250D01*
X172053014Y-119698850D02*
X172069354Y-119683441D01*
X158439126Y-80817390D02*
X158400190Y-80839752D01*
X161098636Y-105967034D02*
X161065369Y-105936871D01*
X116622029Y-120708190D02*
X116584418Y-120666305D01*
X172206640Y-94497994D02*
X172212005Y-94476185D01*
X150142258Y-94638809D02*
X150166871Y-94601251D01*
X171968324Y-93355749D02*
X171926482Y-93339446D01*
X118829000Y-76379000D02*
X118829028Y-69999762D01*
X161103183Y-80930696D02*
X161073236Y-80897234D01*
X136426780Y-107266725D02*
X136465572Y-107289346D01*
X120213275Y-68096311D02*
X120314124Y-68066284D01*
X147316615Y-80912223D02*
X147301966Y-80929247D01*
X147251213Y-107038989D02*
X147267242Y-107080936D01*
X136246660Y-107017446D02*
X136260481Y-107060172D01*
X169590431Y-93323693D02*
X169546502Y-93332986D01*
X136288318Y-82088906D02*
X136301942Y-82106762D01*
X149925816Y-118340652D02*
X149883181Y-118326552D01*
X169328530Y-80895986D02*
X169313015Y-80912223D01*
X150171851Y-81047084D02*
X150153655Y-81006030D01*
X158634027Y-94814255D02*
X160789912Y-94818999D01*
X178464103Y-68837168D02*
X178521819Y-68922751D01*
X136359330Y-93443586D02*
X136329166Y-93476847D01*
X169518341Y-82252106D02*
X169562212Y-82261691D01*
X136357288Y-94687825D02*
X136390555Y-94717988D01*
X178521819Y-68922751D02*
X178575070Y-69011241D01*
X136290025Y-80947011D02*
X136277229Y-80965466D01*
X158526760Y-105861537D02*
X158484815Y-105877561D01*
X161218027Y-94454125D02*
X161222994Y-94409516D01*
X158630043Y-118311000D02*
X158566831Y-118317293D01*
X139168671Y-107123451D02*
X139189241Y-107083535D01*
X185735739Y-113435239D02*
X181420995Y-113431000D01*
X172043437Y-94733411D02*
X172078414Y-94705250D01*
X178832855Y-69895234D02*
X178835516Y-69998400D01*
X136530360Y-105861537D02*
X136488415Y-105877561D01*
X149905782Y-94800473D02*
X149948506Y-94786650D01*
X172198999Y-118740069D02*
X172191377Y-118674941D01*
X169524960Y-93339337D02*
X169483015Y-93355361D01*
X150116858Y-119632409D02*
X150141471Y-119594851D01*
X147528560Y-105861537D02*
X147486615Y-105877561D01*
X139170177Y-106056070D02*
X139145808Y-106018352D01*
X136640130Y-94818999D02*
X138796526Y-94815040D01*
X158203884Y-118717488D02*
X158201000Y-119379936D01*
X138927616Y-118340652D02*
X138906482Y-118333046D01*
X139165088Y-118567520D02*
X139144777Y-118527470D01*
X138945670Y-119771688D02*
X138985719Y-119751378D01*
X149946524Y-80808149D02*
X149904682Y-80791846D01*
X161177255Y-93553630D02*
X161166577Y-93533870D01*
X150171851Y-118588284D02*
X150153655Y-118547230D01*
X138844272Y-105842502D02*
X138819969Y-105840999D01*
X161141177Y-80986270D02*
X161116808Y-80948552D01*
X172219286Y-94431925D02*
X172222043Y-93748465D01*
X147330088Y-82140225D02*
X147363355Y-82170388D01*
X171835711Y-80775766D02*
X171789963Y-80770999D01*
X139212875Y-93637409D02*
X139199051Y-93594684D01*
X147311918Y-94636506D02*
X147325542Y-94654362D01*
X171789963Y-80770999D02*
X169632152Y-80770840D01*
X147438372Y-119760746D02*
X147479307Y-119779207D01*
X158208853Y-81131677D02*
X158205776Y-81153994D01*
X178824104Y-132433070D02*
X178814490Y-132457165D01*
X138863171Y-118321187D02*
X138818861Y-118313900D01*
X147301966Y-80929247D02*
X147275429Y-80965466D01*
X147278205Y-106074052D02*
X147259743Y-106114982D01*
X169440481Y-94756341D02*
X169480398Y-94776910D01*
X161126717Y-107178775D02*
X161140458Y-107161009D01*
X136216675Y-81109619D02*
X136209396Y-81153852D01*
X171904981Y-105855152D02*
X171861111Y-105845566D01*
X171835983Y-107334895D02*
X171880338Y-107327896D01*
X171919506Y-82239050D02*
X171940270Y-82230488D01*
X158249674Y-119572626D02*
X158272042Y-119611564D01*
X149943870Y-82230488D02*
X149964159Y-82220855D01*
X150141471Y-82053651D02*
X150152276Y-82033961D01*
X147568631Y-80776093D02*
X147524702Y-80785386D01*
X181336889Y-126008921D02*
X181328389Y-126034352D01*
X116747334Y-120821181D02*
X116703600Y-120785736D01*
X186332487Y-113131139D02*
X186308948Y-113161818D01*
X136463015Y-80807761D02*
X136442726Y-80817390D01*
X158201000Y-119379936D02*
X158208362Y-119444914D01*
X136275642Y-119611564D02*
X136301942Y-119647962D01*
X172191377Y-118674941D02*
X172187299Y-118652853D01*
X172187299Y-81111653D02*
X172182075Y-81089809D01*
X136313718Y-107158706D02*
X136341879Y-107193684D01*
X136640088Y-107338999D02*
X138796526Y-107337240D01*
X160942070Y-82230488D02*
X160982119Y-82210178D01*
X169260011Y-118525764D02*
X169249205Y-118545452D01*
X119921941Y-68217642D02*
X120016910Y-68172090D01*
X171963151Y-118359113D02*
X171922216Y-118340652D01*
X136246660Y-94495246D02*
X136260481Y-94537972D01*
X136209396Y-81153852D02*
X136210999Y-81180006D01*
X120114096Y-68131617D02*
X120213275Y-68096311D01*
X171765726Y-82267440D02*
X171810583Y-82265095D01*
X149769326Y-82267440D02*
X149791792Y-82266852D01*
X147486615Y-105877561D02*
X147466326Y-105887190D01*
X169635080Y-105841224D02*
X169590431Y-105845893D01*
X138815983Y-119806295D02*
X138838252Y-119803374D01*
X171876782Y-119794073D02*
X171919506Y-119780250D01*
X149901925Y-119787718D02*
X149943870Y-119771688D01*
X147524702Y-118326586D02*
X147503160Y-118332937D01*
X181307628Y-126083616D02*
X181295362Y-126107461D01*
X158212438Y-81925801D02*
X158217660Y-81947646D01*
X172163271Y-94601251D02*
X172183841Y-94561335D01*
X181328389Y-126034352D02*
X181307628Y-126083616D01*
X138860338Y-82258096D02*
X138882182Y-82252873D01*
X161223247Y-93725901D02*
X161218577Y-93681341D01*
X185926622Y-113410103D02*
X185889072Y-113419118D01*
X186359203Y-77439325D02*
X186393911Y-77537745D01*
X139189241Y-94561335D02*
X139205545Y-94519495D01*
X116372168Y-120272823D02*
X116357823Y-120218387D01*
X138819969Y-105840999D02*
X136662952Y-105840640D01*
X178422492Y-132761162D02*
X178396812Y-132764471D01*
X139170177Y-93533870D02*
X139145808Y-93496152D01*
X150011842Y-93376318D02*
X149971924Y-93355749D01*
X158251005Y-118545452D02*
X158232543Y-118586382D01*
X158250336Y-106136113D02*
X158238475Y-106179419D01*
X138945670Y-82230488D02*
X138985719Y-82210178D01*
X147594031Y-105845893D02*
X147550102Y-105855186D01*
X150184840Y-119491594D02*
X150194427Y-119447725D01*
X158545541Y-94799706D02*
X158589412Y-94809291D01*
X186035775Y-113371444D02*
X186000099Y-113386225D01*
X147207242Y-81881444D02*
X147214238Y-81925801D01*
X161054814Y-119698850D02*
X161071154Y-119683441D01*
X161019837Y-82185811D02*
X161054814Y-82157650D01*
X136329166Y-93476847D02*
X136302629Y-93513066D01*
X136237362Y-106973514D02*
X136246660Y-107017446D01*
X136237362Y-94451314D02*
X136246660Y-94495246D01*
X161209275Y-106159609D02*
X161195451Y-106116884D01*
X186308948Y-113161818D02*
X186283868Y-113191182D01*
X150128517Y-94656575D02*
X150142258Y-94638809D01*
X186447701Y-77739288D02*
X186466658Y-77841966D01*
X139048837Y-107255611D02*
X139083814Y-107227450D01*
X138882182Y-119794073D02*
X138924906Y-119780250D01*
X160967470Y-94778088D02*
X161007519Y-94757778D01*
X178615386Y-132689443D02*
X178570152Y-132714618D01*
X150179055Y-93553630D02*
X150168377Y-93533870D01*
X139074754Y-119683441D02*
X139090269Y-119667201D01*
X161047602Y-105923131D02*
X161010042Y-105898518D01*
X178402051Y-68754675D02*
X178464103Y-68837168D01*
X169587612Y-94809291D02*
X169609977Y-94812375D01*
X139068969Y-105936871D02*
X139051202Y-105923131D01*
X172020402Y-118394531D02*
X171982842Y-118369918D01*
X171999496Y-82198486D02*
X172018037Y-82185811D01*
X117100000Y-121001000D02*
X117043104Y-120981514D01*
X139120408Y-80948552D02*
X139106783Y-80930696D01*
X147521941Y-119793306D02*
X147565812Y-119802891D01*
X186070583Y-113354840D02*
X186035775Y-113371444D01*
X181420995Y-113431000D02*
X181360999Y-125820004D01*
X111458251Y-113227719D02*
X111432161Y-113195724D01*
X136221260Y-81947646D02*
X136227613Y-81969189D01*
X136504960Y-118332937D02*
X136463015Y-118348961D01*
X172222043Y-93748465D02*
X172219698Y-93703610D01*
X136401380Y-82196925D02*
X136420481Y-82208741D01*
X169296542Y-82106762D02*
X169326488Y-82140225D01*
X171789951Y-107338999D02*
X171835983Y-107334895D01*
X150090446Y-118454775D02*
X150058796Y-118422919D01*
X136303766Y-80929247D02*
X136290025Y-80947011D01*
X169222213Y-119510389D02*
X169238242Y-119552336D01*
X158522902Y-80785386D02*
X158501360Y-80791737D01*
X147300142Y-82106762D02*
X147330088Y-82140225D01*
X139102236Y-105967034D02*
X139068969Y-105936871D01*
X147427390Y-105909552D02*
X147408848Y-105922225D01*
X172190827Y-119447725D02*
X172195795Y-119403111D01*
X161116808Y-80948552D02*
X161103183Y-80930696D01*
X158361555Y-82170388D02*
X158397780Y-82196925D01*
X147327366Y-93476847D02*
X147300829Y-93513066D01*
X139023437Y-119727011D02*
X139058414Y-119698850D01*
X147201000Y-119379894D02*
X147205465Y-119400088D01*
X136261543Y-106114982D02*
X136247441Y-106157611D01*
X150100436Y-93444834D02*
X150067169Y-93414671D01*
X158300166Y-118470447D02*
X158273629Y-118506666D01*
X172126783Y-93478296D02*
X172096836Y-93444834D01*
X111993431Y-113507230D02*
X111952528Y-113502024D01*
X160859571Y-118321187D02*
X160815261Y-118313900D01*
X185851153Y-113426148D02*
X185812867Y-113431192D01*
X186169271Y-113294364D02*
X186137446Y-113316237D01*
X139115669Y-107195801D02*
X139144058Y-107161009D01*
X158276405Y-93551852D02*
X158257943Y-93592782D01*
X186424339Y-112961962D02*
X186409561Y-112997639D01*
X158300166Y-80929247D02*
X158273629Y-80965466D01*
X136232687Y-106928852D02*
X136237362Y-106973514D01*
X147301966Y-118470447D02*
X147288225Y-118488211D01*
X111871776Y-113485435D02*
X111832085Y-113474080D01*
X149880382Y-82252873D02*
X149901925Y-82246518D01*
X147550102Y-93332986D02*
X147528560Y-93339337D01*
X150003096Y-119739686D02*
X150021637Y-119727011D01*
X150058796Y-118422919D02*
X150041769Y-118408271D01*
X171919506Y-119780250D02*
X171940270Y-119771688D01*
X158208362Y-119444914D02*
X158212438Y-119467001D01*
X172101383Y-80930696D02*
X172071436Y-80897234D01*
X186471000Y-112699981D02*
X186472329Y-112736114D01*
X171832852Y-119803374D02*
X171876782Y-119794073D01*
X160902882Y-118333046D02*
X160859571Y-118321187D01*
X112354948Y-76374610D02*
X116330000Y-76379000D01*
X139180145Y-119513095D02*
X139186640Y-119491594D01*
X158400190Y-118380952D02*
X158363792Y-118407246D01*
X136504960Y-80791737D02*
X136463015Y-80807761D01*
X150225644Y-93748470D02*
X150223298Y-93703610D01*
X161219000Y-93750006D02*
X161223247Y-93725901D01*
X178677855Y-132643476D02*
X178657803Y-132659856D01*
X169201301Y-81836586D02*
X169203642Y-81881444D01*
X169501107Y-94785607D02*
X169543741Y-94799706D01*
X169271829Y-80965466D02*
X169249205Y-81004252D01*
X178851000Y-132259902D02*
X178855219Y-132281418D01*
X161194338Y-94540627D02*
X161208440Y-94497994D01*
X186319411Y-77342848D02*
X186359203Y-77439325D01*
X139102236Y-93444834D02*
X139068969Y-93414671D01*
X147363355Y-119711588D02*
X147399580Y-119738125D01*
X158205776Y-81153994D02*
X158201000Y-81180089D01*
X169398390Y-80839752D02*
X169361992Y-80866046D01*
X158589412Y-94809291D02*
X158634027Y-94814255D01*
X186466658Y-77841966D02*
X186480228Y-77945440D01*
X161208440Y-107020194D02*
X161213805Y-106998385D01*
X172186605Y-81928585D02*
X172198999Y-81859898D01*
X172163271Y-107123451D02*
X172174076Y-107103761D01*
X158299029Y-93513066D02*
X158276405Y-93551852D01*
X178623662Y-69102315D02*
X178667492Y-69195774D01*
X158389192Y-105935846D02*
X158355730Y-105965786D01*
X149964159Y-82220855D02*
X149983919Y-82210178D01*
X116337821Y-120107630D02*
X116332220Y-120051616D01*
X171944906Y-107308850D02*
X171965670Y-107300288D01*
X158234253Y-93679277D02*
X158231186Y-93701525D01*
X112080000Y-113511000D02*
X112034495Y-113510355D01*
X169323766Y-93476847D02*
X169310025Y-93494611D01*
X169238242Y-119552336D02*
X169258551Y-119592387D01*
X116840136Y-120884953D02*
X116792916Y-120854305D01*
X136263951Y-82051187D02*
X136288318Y-82088906D01*
X138796497Y-118312000D02*
X136640032Y-118311000D01*
X172115008Y-80948552D02*
X172101383Y-80930696D01*
X147591212Y-94809291D02*
X147613594Y-94812379D01*
X185833788Y-76671057D02*
X185909266Y-76743129D01*
X169258551Y-82051187D02*
X169282918Y-82088906D01*
X158273629Y-118506666D02*
X158251005Y-118545452D01*
X169230743Y-81045182D02*
X169216641Y-81087811D01*
X147230999Y-93720053D02*
X147230302Y-94384187D01*
X138924906Y-119780250D02*
X138945670Y-119771688D01*
X161065369Y-93414671D02*
X161029143Y-93388135D01*
X158229091Y-94406701D02*
X158233762Y-94451314D01*
X136210999Y-81180006D02*
X136206702Y-81836590D01*
X149794697Y-118312000D02*
X147640030Y-118311000D01*
X136232687Y-94406652D02*
X136237362Y-94451314D01*
X150141471Y-119594851D02*
X150152276Y-119575161D01*
X138888571Y-105849787D02*
X138844272Y-105842502D01*
X169203642Y-119422644D02*
X169206562Y-119444914D01*
X171901082Y-80791846D02*
X171879581Y-80785352D01*
X150187441Y-107083535D02*
X150203745Y-107041695D01*
X112179000Y-87810503D02*
X111209004Y-87090092D01*
X172084869Y-119667201D02*
X172113258Y-119632409D01*
X176830000Y-67999000D02*
X177680316Y-68189051D01*
X147388755Y-107240188D02*
X147424980Y-107266725D01*
X178749040Y-132568478D02*
X178715347Y-132607780D01*
X160878582Y-119794073D02*
X160921306Y-119780250D01*
X147503160Y-80791737D02*
X147461215Y-80807761D01*
X150216299Y-106181453D02*
X150211075Y-106159609D01*
X147638689Y-105841223D02*
X147594031Y-105845893D01*
X147244860Y-94495246D02*
X147251213Y-94516789D01*
X149886771Y-93327587D02*
X149842518Y-93320308D01*
X136209042Y-119422644D02*
X136216038Y-119467001D01*
X139225098Y-106225810D02*
X139218099Y-106181453D01*
X150153655Y-118547230D02*
X150142977Y-118527470D01*
X150223298Y-93703610D02*
X150216299Y-93659253D01*
X150185675Y-81089809D02*
X150171851Y-81047084D01*
X147427390Y-93387352D02*
X147390992Y-93413646D01*
X136341879Y-107193684D02*
X136357288Y-107210025D01*
X139186640Y-81950394D02*
X139192005Y-81928585D01*
X119210261Y-68829764D02*
X119273940Y-68745997D01*
X136216038Y-81925801D02*
X136221260Y-81947646D01*
X147287551Y-94598787D02*
X147311918Y-94636506D01*
X150194427Y-119447725D02*
X150199394Y-119403113D01*
X136485798Y-94776910D02*
X136527640Y-94793212D01*
X138993951Y-93365513D02*
X138953016Y-93347052D01*
X119739933Y-68323352D02*
X119829546Y-68268102D01*
X136212453Y-118672877D02*
X136207485Y-118717483D01*
X139199698Y-81156010D02*
X139192699Y-81111653D01*
X181178419Y-126252524D02*
X181157721Y-126269571D01*
X116485513Y-120529609D02*
X116457492Y-120480784D01*
X186229273Y-113245776D02*
X186199949Y-113270822D01*
X136290025Y-118488211D02*
X136265411Y-118525764D01*
X147486615Y-93355361D02*
X147466326Y-93364990D01*
X161195451Y-106116884D02*
X161177255Y-106075830D01*
X150100436Y-105967034D02*
X150067169Y-105936871D01*
X119151045Y-68916808D02*
X119210261Y-68829764D01*
X136227613Y-81969189D02*
X136243642Y-82011136D01*
X172168251Y-118588284D02*
X172150055Y-118547230D01*
X172186605Y-119469785D02*
X172190827Y-119447725D01*
X147267242Y-107080936D02*
X147287551Y-107120987D01*
X178396812Y-132764471D02*
X178345166Y-132767172D01*
X147330088Y-119681425D02*
X147363355Y-119711588D01*
X169462726Y-93364990D02*
X169423790Y-93387352D01*
X186464262Y-112812962D02*
X186457216Y-112850984D01*
X149971924Y-105877949D02*
X149930082Y-105861646D01*
X169207053Y-118672877D02*
X169202085Y-118717487D01*
X139217405Y-94476185D02*
X139228999Y-94409904D01*
X112260518Y-76422947D02*
X112354948Y-76374610D01*
X149948506Y-94786650D02*
X149969270Y-94778088D01*
X169483015Y-93355361D02*
X169462726Y-93364990D01*
X150009319Y-94757778D02*
X150028496Y-94746086D01*
X169210638Y-81925801D02*
X169215860Y-81947646D01*
X169256143Y-93592782D02*
X169248536Y-93613913D01*
X147363355Y-82170388D02*
X147399580Y-82196925D01*
M02*
