%TF.GenerationSoftware,KiCad,Pcbnew,(6.0.2)*%
%TF.CreationDate,2024-01-19T20:32:51-05:00*%
%TF.ProjectId,top,746f702e-6b69-4636-9164-5f7063625858,rev?*%
%TF.SameCoordinates,Original*%
%TF.FileFunction,Legend,Top*%
%TF.FilePolarity,Positive*%
%FSLAX46Y46*%
G04 Gerber Fmt 4.6, Leading zero omitted, Abs format (unit mm)*
G04 Created by KiCad (PCBNEW (6.0.2)) date 2024-01-19 20:32:51*
%MOMM*%
%LPD*%
G01*
G04 APERTURE LIST*
%ADD10C,0.150000*%
%ADD11C,0.200000*%
%ADD12C,0.300000*%
%ADD13C,0.250000*%
%ADD14C,0.120000*%
%ADD15C,0.010000*%
G04 APERTURE END LIST*
D10*
X124095257Y-112707619D02*
X124095257Y-113707619D01*
X123714304Y-113707619D01*
X123619066Y-113660000D01*
X123571447Y-113612380D01*
X123523828Y-113517142D01*
X123523828Y-113374285D01*
X123571447Y-113279047D01*
X123619066Y-113231428D01*
X123714304Y-113183809D01*
X124095257Y-113183809D01*
X122952400Y-112707619D02*
X123047638Y-112755238D01*
X123095257Y-112802857D01*
X123142876Y-112898095D01*
X123142876Y-113183809D01*
X123095257Y-113279047D01*
X123047638Y-113326666D01*
X122952400Y-113374285D01*
X122809542Y-113374285D01*
X122714304Y-113326666D01*
X122666685Y-113279047D01*
X122619066Y-113183809D01*
X122619066Y-112898095D01*
X122666685Y-112802857D01*
X122714304Y-112755238D01*
X122809542Y-112707619D01*
X122952400Y-112707619D01*
X121761923Y-112755238D02*
X121857161Y-112707619D01*
X122047638Y-112707619D01*
X122142876Y-112755238D01*
X122190495Y-112802857D01*
X122238114Y-112898095D01*
X122238114Y-113183809D01*
X122190495Y-113279047D01*
X122142876Y-113326666D01*
X122047638Y-113374285D01*
X121857161Y-113374285D01*
X121761923Y-113326666D01*
X121333352Y-112707619D02*
X121333352Y-113707619D01*
X121238114Y-113088571D02*
X120952400Y-112707619D01*
X120952400Y-113374285D02*
X121333352Y-112993333D01*
X120142876Y-112755238D02*
X120238114Y-112707619D01*
X120428590Y-112707619D01*
X120523828Y-112755238D01*
X120571447Y-112850476D01*
X120571447Y-113231428D01*
X120523828Y-113326666D01*
X120428590Y-113374285D01*
X120238114Y-113374285D01*
X120142876Y-113326666D01*
X120095257Y-113231428D01*
X120095257Y-113136190D01*
X120571447Y-113040952D01*
X119809542Y-113374285D02*
X119428590Y-113374285D01*
X119666685Y-113707619D02*
X119666685Y-112850476D01*
X119619066Y-112755238D01*
X119523828Y-112707619D01*
X119428590Y-112707619D01*
X124238114Y-112097619D02*
X124047638Y-112097619D01*
X123952400Y-112050000D01*
X123857161Y-111954761D01*
X123809542Y-111764285D01*
X123809542Y-111430952D01*
X123857161Y-111240476D01*
X123952400Y-111145238D01*
X124047638Y-111097619D01*
X124238114Y-111097619D01*
X124333352Y-111145238D01*
X124428590Y-111240476D01*
X124476209Y-111430952D01*
X124476209Y-111764285D01*
X124428590Y-111954761D01*
X124333352Y-112050000D01*
X124238114Y-112097619D01*
X123380971Y-111764285D02*
X123380971Y-110764285D01*
X123380971Y-111716666D02*
X123285733Y-111764285D01*
X123095257Y-111764285D01*
X123000019Y-111716666D01*
X122952400Y-111669047D01*
X122904780Y-111573809D01*
X122904780Y-111288095D01*
X122952400Y-111192857D01*
X123000019Y-111145238D01*
X123095257Y-111097619D01*
X123285733Y-111097619D01*
X123380971Y-111145238D01*
X122095257Y-111145238D02*
X122190495Y-111097619D01*
X122380971Y-111097619D01*
X122476209Y-111145238D01*
X122523828Y-111240476D01*
X122523828Y-111621428D01*
X122476209Y-111716666D01*
X122380971Y-111764285D01*
X122190495Y-111764285D01*
X122095257Y-111716666D01*
X122047638Y-111621428D01*
X122047638Y-111526190D01*
X122523828Y-111430952D01*
X121619066Y-111097619D02*
X121619066Y-111764285D01*
X121619066Y-111573809D02*
X121571447Y-111669047D01*
X121523828Y-111716666D01*
X121428590Y-111764285D01*
X121333352Y-111764285D01*
X120571447Y-111097619D02*
X120571447Y-111621428D01*
X120619066Y-111716666D01*
X120714304Y-111764285D01*
X120904780Y-111764285D01*
X121000019Y-111716666D01*
X120571447Y-111145238D02*
X120666685Y-111097619D01*
X120904780Y-111097619D01*
X121000019Y-111145238D01*
X121047638Y-111240476D01*
X121047638Y-111335714D01*
X121000019Y-111430952D01*
X120904780Y-111478571D01*
X120666685Y-111478571D01*
X120571447Y-111526190D01*
X120238114Y-111764285D02*
X119857161Y-111764285D01*
X120095257Y-112097619D02*
X120095257Y-111240476D01*
X120047638Y-111145238D01*
X119952400Y-111097619D01*
X119857161Y-111097619D01*
X119380971Y-111097619D02*
X119476209Y-111145238D01*
X119523828Y-111192857D01*
X119571447Y-111288095D01*
X119571447Y-111573809D01*
X119523828Y-111669047D01*
X119476209Y-111716666D01*
X119380971Y-111764285D01*
X119238114Y-111764285D01*
X119142876Y-111716666D01*
X119095257Y-111669047D01*
X119047638Y-111573809D01*
X119047638Y-111288095D01*
X119095257Y-111192857D01*
X119142876Y-111145238D01*
X119238114Y-111097619D01*
X119380971Y-111097619D01*
X118619066Y-111097619D02*
X118619066Y-111764285D01*
X118619066Y-111573809D02*
X118571447Y-111669047D01*
X118523828Y-111716666D01*
X118428590Y-111764285D01*
X118333352Y-111764285D01*
X125952400Y-109487619D02*
X125952400Y-110487619D01*
X125619066Y-109773333D01*
X125285733Y-110487619D01*
X125285733Y-109487619D01*
X124809542Y-109487619D02*
X124809542Y-110487619D01*
X124333352Y-109487619D02*
X124333352Y-110487619D01*
X124095257Y-110487619D01*
X123952400Y-110440000D01*
X123857161Y-110344761D01*
X123809542Y-110249523D01*
X123761923Y-110059047D01*
X123761923Y-109916190D01*
X123809542Y-109725714D01*
X123857161Y-109630476D01*
X123952400Y-109535238D01*
X124095257Y-109487619D01*
X124333352Y-109487619D01*
X123333352Y-109487619D02*
X123333352Y-110487619D01*
X122142876Y-109773333D02*
X121666685Y-109773333D01*
X122238114Y-109487619D02*
X121904780Y-110487619D01*
X121571447Y-109487619D01*
X120809542Y-109487619D02*
X120809542Y-110487619D01*
X120809542Y-109535238D02*
X120904780Y-109487619D01*
X121095257Y-109487619D01*
X121190495Y-109535238D01*
X121238114Y-109582857D01*
X121285733Y-109678095D01*
X121285733Y-109963809D01*
X121238114Y-110059047D01*
X121190495Y-110106666D01*
X121095257Y-110154285D01*
X120904780Y-110154285D01*
X120809542Y-110106666D01*
X119904780Y-109487619D02*
X119904780Y-110011428D01*
X119952400Y-110106666D01*
X120047638Y-110154285D01*
X120238114Y-110154285D01*
X120333352Y-110106666D01*
X119904780Y-109535238D02*
X120000019Y-109487619D01*
X120238114Y-109487619D01*
X120333352Y-109535238D01*
X120380971Y-109630476D01*
X120380971Y-109725714D01*
X120333352Y-109820952D01*
X120238114Y-109868571D01*
X120000019Y-109868571D01*
X119904780Y-109916190D01*
X119428590Y-110154285D02*
X119428590Y-109154285D01*
X119428590Y-110106666D02*
X119333352Y-110154285D01*
X119142876Y-110154285D01*
X119047638Y-110106666D01*
X119000019Y-110059047D01*
X118952400Y-109963809D01*
X118952400Y-109678095D01*
X119000019Y-109582857D01*
X119047638Y-109535238D01*
X119142876Y-109487619D01*
X119333352Y-109487619D01*
X119428590Y-109535238D01*
X118666685Y-110154285D02*
X118285733Y-110154285D01*
X118523828Y-110487619D02*
X118523828Y-109630476D01*
X118476209Y-109535238D01*
X118380971Y-109487619D01*
X118285733Y-109487619D01*
X117571447Y-109535238D02*
X117666685Y-109487619D01*
X117857161Y-109487619D01*
X117952400Y-109535238D01*
X118000019Y-109630476D01*
X118000019Y-110011428D01*
X117952400Y-110106666D01*
X117857161Y-110154285D01*
X117666685Y-110154285D01*
X117571447Y-110106666D01*
X117523828Y-110011428D01*
X117523828Y-109916190D01*
X118000019Y-109820952D01*
X117095257Y-109487619D02*
X117095257Y-110154285D01*
X117095257Y-109963809D02*
X117047638Y-110059047D01*
X117000019Y-110106666D01*
X116904780Y-110154285D01*
X116809542Y-110154285D01*
X123376209Y-108652619D02*
X123042876Y-107652619D01*
X122709542Y-108652619D01*
X122471447Y-108652619D02*
X121852400Y-108652619D01*
X122185733Y-108271666D01*
X122042876Y-108271666D01*
X121947638Y-108224047D01*
X121900019Y-108176428D01*
X121852400Y-108081190D01*
X121852400Y-107843095D01*
X121900019Y-107747857D01*
X121947638Y-107700238D01*
X122042876Y-107652619D01*
X122328590Y-107652619D01*
X122423828Y-107700238D01*
X122471447Y-107747857D01*
X121423828Y-107747857D02*
X121376209Y-107700238D01*
X121423828Y-107652619D01*
X121471447Y-107700238D01*
X121423828Y-107747857D01*
X121423828Y-107652619D01*
X120519066Y-108652619D02*
X120709542Y-108652619D01*
X120804780Y-108605000D01*
X120852400Y-108557380D01*
X120947638Y-108414523D01*
X120995257Y-108224047D01*
X120995257Y-107843095D01*
X120947638Y-107747857D01*
X120900019Y-107700238D01*
X120804780Y-107652619D01*
X120614304Y-107652619D01*
X120519066Y-107700238D01*
X120471447Y-107747857D01*
X120423828Y-107843095D01*
X120423828Y-108081190D01*
X120471447Y-108176428D01*
X120519066Y-108224047D01*
X120614304Y-108271666D01*
X120804780Y-108271666D01*
X120900019Y-108224047D01*
X120947638Y-108176428D01*
X120995257Y-108081190D01*
D11*
X125069066Y-119447619D02*
X125069066Y-120447619D01*
X125069066Y-119971428D02*
X124497638Y-119971428D01*
X124497638Y-119447619D02*
X124497638Y-120447619D01*
X123592876Y-119447619D02*
X123592876Y-119971428D01*
X123640495Y-120066666D01*
X123735733Y-120114285D01*
X123926209Y-120114285D01*
X124021447Y-120066666D01*
X123592876Y-119495238D02*
X123688114Y-119447619D01*
X123926209Y-119447619D01*
X124021447Y-119495238D01*
X124069066Y-119590476D01*
X124069066Y-119685714D01*
X124021447Y-119780952D01*
X123926209Y-119828571D01*
X123688114Y-119828571D01*
X123592876Y-119876190D01*
X123116685Y-120114285D02*
X123116685Y-119447619D01*
X123116685Y-120019047D02*
X123069066Y-120066666D01*
X122973828Y-120114285D01*
X122830971Y-120114285D01*
X122735733Y-120066666D01*
X122688114Y-119971428D01*
X122688114Y-119447619D01*
X122307161Y-120114285D02*
X121783352Y-120114285D01*
X122307161Y-119447619D01*
X121783352Y-119447619D01*
X120783352Y-120447619D02*
X120211923Y-120447619D01*
X120497638Y-119447619D02*
X120497638Y-120447619D01*
X119497638Y-119495238D02*
X119592876Y-119447619D01*
X119783352Y-119447619D01*
X119878590Y-119495238D01*
X119926209Y-119590476D01*
X119926209Y-119971428D01*
X119878590Y-120066666D01*
X119783352Y-120114285D01*
X119592876Y-120114285D01*
X119497638Y-120066666D01*
X119450019Y-119971428D01*
X119450019Y-119876190D01*
X119926209Y-119780952D01*
X118592876Y-119495238D02*
X118688114Y-119447619D01*
X118878590Y-119447619D01*
X118973828Y-119495238D01*
X119021447Y-119542857D01*
X119069066Y-119638095D01*
X119069066Y-119923809D01*
X119021447Y-120019047D01*
X118973828Y-120066666D01*
X118878590Y-120114285D01*
X118688114Y-120114285D01*
X118592876Y-120066666D01*
X118164304Y-119447619D02*
X118164304Y-120447619D01*
X117735733Y-119447619D02*
X117735733Y-119971428D01*
X117783352Y-120066666D01*
X117878590Y-120114285D01*
X118021447Y-120114285D01*
X118116685Y-120066666D01*
X118164304Y-120019047D01*
D12*
X138133352Y-89545238D02*
X139276209Y-89545238D01*
X138704780Y-89545238D02*
X138704780Y-91545238D01*
X138895257Y-91259523D01*
X139085733Y-91069047D01*
X139276209Y-90973809D01*
X137371447Y-91354761D02*
X137276209Y-91450000D01*
X137085733Y-91545238D01*
X136609542Y-91545238D01*
X136419066Y-91450000D01*
X136323828Y-91354761D01*
X136228590Y-91164285D01*
X136228590Y-90973809D01*
X136323828Y-90688095D01*
X137466685Y-89545238D01*
X136228590Y-89545238D01*
X170276209Y-103545238D02*
X171228590Y-103545238D01*
X171323828Y-102592857D01*
X171228590Y-102688095D01*
X171038114Y-102783333D01*
X170561923Y-102783333D01*
X170371447Y-102688095D01*
X170276209Y-102592857D01*
X170180971Y-102402380D01*
X170180971Y-101926190D01*
X170276209Y-101735714D01*
X170371447Y-101640476D01*
X170561923Y-101545238D01*
X171038114Y-101545238D01*
X171228590Y-101640476D01*
X171323828Y-101735714D01*
D13*
X165495257Y-128121428D02*
X165495257Y-126621428D01*
X165495257Y-128050000D02*
X165352400Y-128121428D01*
X165066685Y-128121428D01*
X164923828Y-128050000D01*
X164852400Y-127978571D01*
X164780971Y-127835714D01*
X164780971Y-127407142D01*
X164852400Y-127264285D01*
X164923828Y-127192857D01*
X165066685Y-127121428D01*
X165352400Y-127121428D01*
X165495257Y-127192857D01*
X163495257Y-127121428D02*
X163495257Y-127907142D01*
X163566685Y-128050000D01*
X163709542Y-128121428D01*
X163995257Y-128121428D01*
X164138114Y-128050000D01*
X163495257Y-127192857D02*
X163638114Y-127121428D01*
X163995257Y-127121428D01*
X164138114Y-127192857D01*
X164209542Y-127335714D01*
X164209542Y-127478571D01*
X164138114Y-127621428D01*
X163995257Y-127692857D01*
X163638114Y-127692857D01*
X163495257Y-127764285D01*
X162995257Y-128121428D02*
X162423828Y-128121428D01*
X162780971Y-128621428D02*
X162780971Y-127335714D01*
X162709542Y-127192857D01*
X162566685Y-127121428D01*
X162423828Y-127121428D01*
X162138114Y-128121428D02*
X161566685Y-128121428D01*
X161923828Y-128621428D02*
X161923828Y-127335714D01*
X161852400Y-127192857D01*
X161709542Y-127121428D01*
X161566685Y-127121428D01*
X160495257Y-127192857D02*
X160638114Y-127121428D01*
X160923828Y-127121428D01*
X161066685Y-127192857D01*
X161138114Y-127335714D01*
X161138114Y-127907142D01*
X161066685Y-128050000D01*
X160923828Y-128121428D01*
X160638114Y-128121428D01*
X160495257Y-128050000D01*
X160423828Y-127907142D01*
X160423828Y-127764285D01*
X161138114Y-127621428D01*
X159780971Y-127121428D02*
X159780971Y-128121428D01*
X159780971Y-127835714D02*
X159709542Y-127978571D01*
X159638114Y-128050000D01*
X159495257Y-128121428D01*
X159352400Y-128121428D01*
X158852400Y-128121428D02*
X158852400Y-127121428D01*
X158852400Y-127978571D02*
X158780971Y-128050000D01*
X158638114Y-128121428D01*
X158423828Y-128121428D01*
X158280971Y-128050000D01*
X158209542Y-127907142D01*
X158209542Y-127121428D01*
X130673828Y-77090476D02*
X130864304Y-76995238D01*
X131245257Y-76995238D01*
X131435733Y-77090476D01*
X131530971Y-77280952D01*
X131530971Y-78042857D01*
X131435733Y-78233333D01*
X131245257Y-78328571D01*
X130864304Y-78328571D01*
X130673828Y-78233333D01*
X130578590Y-78042857D01*
X130578590Y-77852380D01*
X131530971Y-77661904D01*
X128864304Y-76995238D02*
X128864304Y-78995238D01*
X128864304Y-77090476D02*
X129054780Y-76995238D01*
X129435733Y-76995238D01*
X129626209Y-77090476D01*
X129721447Y-77185714D01*
X129816685Y-77376190D01*
X129816685Y-77947619D01*
X129721447Y-78138095D01*
X129626209Y-78233333D01*
X129435733Y-78328571D01*
X129054780Y-78328571D01*
X128864304Y-78233333D01*
X127911923Y-76995238D02*
X127911923Y-78328571D01*
X127911923Y-78995238D02*
X128007161Y-78900000D01*
X127911923Y-78804761D01*
X127816685Y-78900000D01*
X127911923Y-78995238D01*
X127911923Y-78804761D01*
X127245257Y-78328571D02*
X126483352Y-78328571D01*
X126959542Y-78995238D02*
X126959542Y-77280952D01*
X126864304Y-77090476D01*
X126673828Y-76995238D01*
X126483352Y-76995238D01*
D12*
X160323828Y-115354761D02*
X160228590Y-115450000D01*
X160038114Y-115545238D01*
X159561923Y-115545238D01*
X159371447Y-115450000D01*
X159276209Y-115354761D01*
X159180971Y-115164285D01*
X159180971Y-114973809D01*
X159276209Y-114688095D01*
X160419066Y-113545238D01*
X159180971Y-113545238D01*
X171183352Y-76945238D02*
X172326209Y-76945238D01*
X171754780Y-76945238D02*
X171754780Y-78945238D01*
X171945257Y-78659523D01*
X172135733Y-78469047D01*
X172326209Y-78373809D01*
X170516685Y-78945238D02*
X169278590Y-78945238D01*
X169945257Y-78183333D01*
X169659542Y-78183333D01*
X169469066Y-78088095D01*
X169373828Y-77992857D01*
X169278590Y-77802380D01*
X169278590Y-77326190D01*
X169373828Y-77135714D01*
X169469066Y-77040476D01*
X169659542Y-76945238D01*
X170230971Y-76945238D01*
X170421447Y-77040476D01*
X170516685Y-77135714D01*
X137371447Y-114878571D02*
X137371447Y-113545238D01*
X137847638Y-115640476D02*
X138323828Y-114211904D01*
X137085733Y-114211904D01*
X170180971Y-113545238D02*
X171323828Y-113545238D01*
X170752400Y-113545238D02*
X170752400Y-115545238D01*
X170942876Y-115259523D01*
X171133352Y-115069047D01*
X171323828Y-114973809D01*
D13*
X131571447Y-90978571D02*
X131571447Y-88978571D01*
X131571447Y-90883333D02*
X131380971Y-90978571D01*
X131000019Y-90978571D01*
X130809542Y-90883333D01*
X130714304Y-90788095D01*
X130619066Y-90597619D01*
X130619066Y-90026190D01*
X130714304Y-89835714D01*
X130809542Y-89740476D01*
X131000019Y-89645238D01*
X131380971Y-89645238D01*
X131571447Y-89740476D01*
X129476209Y-89645238D02*
X129666685Y-89740476D01*
X129761923Y-89930952D01*
X129761923Y-91645238D01*
X127857161Y-89645238D02*
X127857161Y-90692857D01*
X127952400Y-90883333D01*
X128142876Y-90978571D01*
X128523828Y-90978571D01*
X128714304Y-90883333D01*
X127857161Y-89740476D02*
X128047638Y-89645238D01*
X128523828Y-89645238D01*
X128714304Y-89740476D01*
X128809542Y-89930952D01*
X128809542Y-90121428D01*
X128714304Y-90311904D01*
X128523828Y-90407142D01*
X128047638Y-90407142D01*
X127857161Y-90502380D01*
X127095257Y-90978571D02*
X126619066Y-89645238D01*
X126142876Y-90978571D02*
X126619066Y-89645238D01*
X126809542Y-89169047D01*
X126904780Y-89073809D01*
X127095257Y-88978571D01*
D12*
X149419066Y-115545238D02*
X148180971Y-115545238D01*
X148847638Y-114783333D01*
X148561923Y-114783333D01*
X148371447Y-114688095D01*
X148276209Y-114592857D01*
X148180971Y-114402380D01*
X148180971Y-113926190D01*
X148276209Y-113735714D01*
X148371447Y-113640476D01*
X148561923Y-113545238D01*
X149133352Y-113545238D01*
X149323828Y-113640476D01*
X149419066Y-113735714D01*
D13*
X176038114Y-127192857D02*
X175895257Y-127121428D01*
X175609542Y-127121428D01*
X175466685Y-127192857D01*
X175395257Y-127335714D01*
X175395257Y-127407142D01*
X175466685Y-127550000D01*
X175609542Y-127621428D01*
X175823828Y-127621428D01*
X175966685Y-127692857D01*
X176038114Y-127835714D01*
X176038114Y-127907142D01*
X175966685Y-128050000D01*
X175823828Y-128121428D01*
X175609542Y-128121428D01*
X175466685Y-128050000D01*
X174538114Y-127121428D02*
X174680971Y-127192857D01*
X174752400Y-127264285D01*
X174823828Y-127407142D01*
X174823828Y-127835714D01*
X174752400Y-127978571D01*
X174680971Y-128050000D01*
X174538114Y-128121428D01*
X174323828Y-128121428D01*
X174180971Y-128050000D01*
X174109542Y-127978571D01*
X174038114Y-127835714D01*
X174038114Y-127407142D01*
X174109542Y-127264285D01*
X174180971Y-127192857D01*
X174323828Y-127121428D01*
X174538114Y-127121428D01*
X172752400Y-128121428D02*
X172752400Y-127121428D01*
X173395257Y-128121428D02*
X173395257Y-127335714D01*
X173323828Y-127192857D01*
X173180971Y-127121428D01*
X172966685Y-127121428D01*
X172823828Y-127192857D01*
X172752400Y-127264285D01*
X172038114Y-128121428D02*
X172038114Y-127121428D01*
X172038114Y-127978571D02*
X171966685Y-128050000D01*
X171823828Y-128121428D01*
X171609542Y-128121428D01*
X171466685Y-128050000D01*
X171395257Y-127907142D01*
X171395257Y-127121428D01*
X170038114Y-127121428D02*
X170038114Y-128621428D01*
X170038114Y-127192857D02*
X170180971Y-127121428D01*
X170466685Y-127121428D01*
X170609542Y-127192857D01*
X170680971Y-127264285D01*
X170752400Y-127407142D01*
X170752400Y-127835714D01*
X170680971Y-127978571D01*
X170609542Y-128050000D01*
X170466685Y-128121428D01*
X170180971Y-128121428D01*
X170038114Y-128050000D01*
D12*
X149133352Y-89545238D02*
X150276209Y-89545238D01*
X149704780Y-89545238D02*
X149704780Y-91545238D01*
X149895257Y-91259523D01*
X150085733Y-91069047D01*
X150276209Y-90973809D01*
X147228590Y-89545238D02*
X148371447Y-89545238D01*
X147800019Y-89545238D02*
X147800019Y-91545238D01*
X147990495Y-91259523D01*
X148180971Y-91069047D01*
X148371447Y-90973809D01*
X159371447Y-103545238D02*
X159752400Y-103545238D01*
X159942876Y-103450000D01*
X160038114Y-103354761D01*
X160228590Y-103069047D01*
X160323828Y-102688095D01*
X160323828Y-101926190D01*
X160228590Y-101735714D01*
X160133352Y-101640476D01*
X159942876Y-101545238D01*
X159561923Y-101545238D01*
X159371447Y-101640476D01*
X159276209Y-101735714D01*
X159180971Y-101926190D01*
X159180971Y-102402380D01*
X159276209Y-102592857D01*
X159371447Y-102688095D01*
X159561923Y-102783333D01*
X159942876Y-102783333D01*
X160133352Y-102688095D01*
X160228590Y-102592857D01*
X160323828Y-102402380D01*
X160083352Y-76895238D02*
X161226209Y-76895238D01*
X160654780Y-76895238D02*
X160654780Y-78895238D01*
X160845257Y-78609523D01*
X161035733Y-78419047D01*
X161226209Y-78323809D01*
X158369066Y-78228571D02*
X158369066Y-76895238D01*
X158845257Y-78990476D02*
X159321447Y-77561904D01*
X158083352Y-77561904D01*
D13*
X129569066Y-102742857D02*
X130235733Y-102742857D01*
X130235733Y-101695238D02*
X130235733Y-103695238D01*
X129283352Y-103695238D01*
X128711923Y-103695238D02*
X127378590Y-101695238D01*
X127378590Y-103695238D02*
X128711923Y-101695238D01*
D12*
X137942876Y-102688095D02*
X138133352Y-102783333D01*
X138228590Y-102878571D01*
X138323828Y-103069047D01*
X138323828Y-103164285D01*
X138228590Y-103354761D01*
X138133352Y-103450000D01*
X137942876Y-103545238D01*
X137561923Y-103545238D01*
X137371447Y-103450000D01*
X137276209Y-103354761D01*
X137180971Y-103164285D01*
X137180971Y-103069047D01*
X137276209Y-102878571D01*
X137371447Y-102783333D01*
X137561923Y-102688095D01*
X137942876Y-102688095D01*
X138133352Y-102592857D01*
X138228590Y-102497619D01*
X138323828Y-102307142D01*
X138323828Y-101926190D01*
X138228590Y-101735714D01*
X138133352Y-101640476D01*
X137942876Y-101545238D01*
X137561923Y-101545238D01*
X137371447Y-101640476D01*
X137276209Y-101735714D01*
X137180971Y-101926190D01*
X137180971Y-102307142D01*
X137276209Y-102497619D01*
X137371447Y-102592857D01*
X137561923Y-102688095D01*
X149083352Y-76895238D02*
X150226209Y-76895238D01*
X149654780Y-76895238D02*
X149654780Y-78895238D01*
X149845257Y-78609523D01*
X150035733Y-78419047D01*
X150226209Y-78323809D01*
X147273828Y-78895238D02*
X148226209Y-78895238D01*
X148321447Y-77942857D01*
X148226209Y-78038095D01*
X148035733Y-78133333D01*
X147559542Y-78133333D01*
X147369066Y-78038095D01*
X147273828Y-77942857D01*
X147178590Y-77752380D01*
X147178590Y-77276190D01*
X147273828Y-77085714D01*
X147369066Y-76990476D01*
X147559542Y-76895238D01*
X148035733Y-76895238D01*
X148226209Y-76990476D01*
X148321447Y-77085714D01*
X160133352Y-89545238D02*
X161276209Y-89545238D01*
X160704780Y-89545238D02*
X160704780Y-91545238D01*
X160895257Y-91259523D01*
X161085733Y-91069047D01*
X161276209Y-90973809D01*
X158895257Y-91545238D02*
X158704780Y-91545238D01*
X158514304Y-91450000D01*
X158419066Y-91354761D01*
X158323828Y-91164285D01*
X158228590Y-90783333D01*
X158228590Y-90307142D01*
X158323828Y-89926190D01*
X158419066Y-89735714D01*
X158514304Y-89640476D01*
X158704780Y-89545238D01*
X158895257Y-89545238D01*
X159085733Y-89640476D01*
X159180971Y-89735714D01*
X159276209Y-89926190D01*
X159371447Y-90307142D01*
X159371447Y-90783333D01*
X159276209Y-91164285D01*
X159180971Y-91354761D01*
X159085733Y-91450000D01*
X158895257Y-91545238D01*
D13*
X152902400Y-127271428D02*
X152902400Y-128771428D01*
X152902400Y-128200000D02*
X152759542Y-128271428D01*
X152473828Y-128271428D01*
X152330971Y-128200000D01*
X152259542Y-128128571D01*
X152188114Y-127985714D01*
X152188114Y-127557142D01*
X152259542Y-127414285D01*
X152330971Y-127342857D01*
X152473828Y-127271428D01*
X152759542Y-127271428D01*
X152902400Y-127342857D01*
X151545257Y-128271428D02*
X151545257Y-126771428D01*
X151545257Y-128200000D02*
X151402400Y-128271428D01*
X151116685Y-128271428D01*
X150973828Y-128200000D01*
X150902400Y-128128571D01*
X150830971Y-127985714D01*
X150830971Y-127557142D01*
X150902400Y-127414285D01*
X150973828Y-127342857D01*
X151116685Y-127271428D01*
X151402400Y-127271428D01*
X151545257Y-127342857D01*
X150188114Y-127271428D02*
X150188114Y-128271428D01*
X150188114Y-128128571D02*
X150116685Y-128200000D01*
X149973828Y-128271428D01*
X149759542Y-128271428D01*
X149616685Y-128200000D01*
X149545257Y-128057142D01*
X149545257Y-127271428D01*
X149545257Y-128057142D02*
X149473828Y-128200000D01*
X149330971Y-128271428D01*
X149116685Y-128271428D01*
X148973828Y-128200000D01*
X148902400Y-128057142D01*
X148902400Y-127271428D01*
D12*
X171133352Y-89545238D02*
X170752400Y-89545238D01*
X170561923Y-89640476D01*
X170466685Y-89735714D01*
X170276209Y-90021428D01*
X170180971Y-90402380D01*
X170180971Y-91164285D01*
X170276209Y-91354761D01*
X170371447Y-91450000D01*
X170561923Y-91545238D01*
X170942876Y-91545238D01*
X171133352Y-91450000D01*
X171228590Y-91354761D01*
X171323828Y-91164285D01*
X171323828Y-90688095D01*
X171228590Y-90497619D01*
X171133352Y-90402380D01*
X170942876Y-90307142D01*
X170561923Y-90307142D01*
X170371447Y-90402380D01*
X170276209Y-90497619D01*
X170180971Y-90688095D01*
X138083352Y-76995238D02*
X139226209Y-76995238D01*
X138654780Y-76995238D02*
X138654780Y-78995238D01*
X138845257Y-78709523D01*
X139035733Y-78519047D01*
X139226209Y-78423809D01*
X136369066Y-78995238D02*
X136750019Y-78995238D01*
X136940495Y-78900000D01*
X137035733Y-78804761D01*
X137226209Y-78519047D01*
X137321447Y-78138095D01*
X137321447Y-77376190D01*
X137226209Y-77185714D01*
X137130971Y-77090476D01*
X136940495Y-76995238D01*
X136559542Y-76995238D01*
X136369066Y-77090476D01*
X136273828Y-77185714D01*
X136178590Y-77376190D01*
X136178590Y-77852380D01*
X136273828Y-78042857D01*
X136369066Y-78138095D01*
X136559542Y-78233333D01*
X136940495Y-78233333D01*
X137130971Y-78138095D01*
X137226209Y-78042857D01*
X137321447Y-77852380D01*
X149419066Y-103545238D02*
X148085733Y-103545238D01*
X148942876Y-101545238D01*
D10*
%TO.C,J29*%
X182742876Y-75422380D02*
X182742876Y-76136666D01*
X182695257Y-76279523D01*
X182600019Y-76374761D01*
X182457161Y-76422380D01*
X182361923Y-76422380D01*
X183171447Y-75517619D02*
X183219066Y-75470000D01*
X183314304Y-75422380D01*
X183552400Y-75422380D01*
X183647638Y-75470000D01*
X183695257Y-75517619D01*
X183742876Y-75612857D01*
X183742876Y-75708095D01*
X183695257Y-75850952D01*
X183123828Y-76422380D01*
X183742876Y-76422380D01*
X184219066Y-76422380D02*
X184409542Y-76422380D01*
X184504780Y-76374761D01*
X184552400Y-76327142D01*
X184647638Y-76184285D01*
X184695257Y-75993809D01*
X184695257Y-75612857D01*
X184647638Y-75517619D01*
X184600019Y-75470000D01*
X184504780Y-75422380D01*
X184314304Y-75422380D01*
X184219066Y-75470000D01*
X184171447Y-75517619D01*
X184123828Y-75612857D01*
X184123828Y-75850952D01*
X184171447Y-75946190D01*
X184219066Y-75993809D01*
X184314304Y-76041428D01*
X184504780Y-76041428D01*
X184600019Y-75993809D01*
X184647638Y-75946190D01*
X184695257Y-75850952D01*
%TO.C,J33*%
X123692876Y-87952380D02*
X123692876Y-88666666D01*
X123645257Y-88809523D01*
X123550019Y-88904761D01*
X123407161Y-88952380D01*
X123311923Y-88952380D01*
X124073828Y-87952380D02*
X124692876Y-87952380D01*
X124359542Y-88333333D01*
X124502400Y-88333333D01*
X124597638Y-88380952D01*
X124645257Y-88428571D01*
X124692876Y-88523809D01*
X124692876Y-88761904D01*
X124645257Y-88857142D01*
X124597638Y-88904761D01*
X124502400Y-88952380D01*
X124216685Y-88952380D01*
X124121447Y-88904761D01*
X124073828Y-88857142D01*
X125026209Y-87952380D02*
X125645257Y-87952380D01*
X125311923Y-88333333D01*
X125454780Y-88333333D01*
X125550019Y-88380952D01*
X125597638Y-88428571D01*
X125645257Y-88523809D01*
X125645257Y-88761904D01*
X125597638Y-88857142D01*
X125550019Y-88904761D01*
X125454780Y-88952380D01*
X125169066Y-88952380D01*
X125073828Y-88904761D01*
X125026209Y-88857142D01*
%TO.C,J30*%
X113542876Y-75422380D02*
X113542876Y-76136666D01*
X113495257Y-76279523D01*
X113400019Y-76374761D01*
X113257161Y-76422380D01*
X113161923Y-76422380D01*
X113923828Y-75422380D02*
X114542876Y-75422380D01*
X114209542Y-75803333D01*
X114352400Y-75803333D01*
X114447638Y-75850952D01*
X114495257Y-75898571D01*
X114542876Y-75993809D01*
X114542876Y-76231904D01*
X114495257Y-76327142D01*
X114447638Y-76374761D01*
X114352400Y-76422380D01*
X114066685Y-76422380D01*
X113971447Y-76374761D01*
X113923828Y-76327142D01*
X115161923Y-75422380D02*
X115257161Y-75422380D01*
X115352400Y-75470000D01*
X115400019Y-75517619D01*
X115447638Y-75612857D01*
X115495257Y-75803333D01*
X115495257Y-76041428D01*
X115447638Y-76231904D01*
X115400019Y-76327142D01*
X115352400Y-76374761D01*
X115257161Y-76422380D01*
X115161923Y-76422380D01*
X115066685Y-76374761D01*
X115019066Y-76327142D01*
X114971447Y-76231904D01*
X114923828Y-76041428D01*
X114923828Y-75803333D01*
X114971447Y-75612857D01*
X115019066Y-75517619D01*
X115066685Y-75470000D01*
X115161923Y-75422380D01*
D14*
%TO.C,J8*%
X174235940Y-98791100D02*
G75*
G03*
X174235940Y-98791100I-1251000J0D01*
G01*
%TO.C,J4*%
X152303400Y-111300600D02*
G75*
G03*
X152303400Y-111300600I-1251000J0D01*
G01*
%TO.C,J7*%
X152391940Y-73835600D02*
G75*
G03*
X152391940Y-73835600I-1251000J0D01*
G01*
%TO.C,J12*%
X174235940Y-86281600D02*
G75*
G03*
X174235940Y-86281600I-1251000J0D01*
G01*
%TO.C,J24*%
X130268540Y-86256200D02*
G75*
G03*
X130268540Y-86256200I-1251000J0D01*
G01*
%TO.C,J5*%
X163263140Y-111275200D02*
G75*
G03*
X163263140Y-111275200I-1251000J0D01*
G01*
%TO.C,J9*%
X163263140Y-98778400D02*
G75*
G03*
X163263140Y-98778400I-1251000J0D01*
G01*
%TO.C,J19*%
X174261340Y-123772000D02*
G75*
G03*
X174261340Y-123772000I-1251000J0D01*
G01*
%TO.C,J18*%
X130293940Y-73759400D02*
G75*
G03*
X130293940Y-73759400I-1251000J0D01*
G01*
%TO.C,J23*%
X130243140Y-98778400D02*
G75*
G03*
X130243140Y-98778400I-1251000J0D01*
G01*
%TO.C,J22*%
X141241340Y-111275200D02*
G75*
G03*
X141241340Y-111275200I-1251000J0D01*
G01*
%TO.C,J25*%
X141241340Y-73759400D02*
G75*
G03*
X141241340Y-73759400I-1251000J0D01*
G01*
%TO.C,J29*%
X184882400Y-79570000D02*
X184882400Y-112650000D01*
X182222400Y-79570000D02*
X184882400Y-79570000D01*
X182222400Y-112650000D02*
X184882400Y-112650000D01*
X182222400Y-79570000D02*
X182222400Y-112650000D01*
X182222400Y-78300000D02*
X182222400Y-76970000D01*
X182222400Y-76970000D02*
X183552400Y-76970000D01*
%TO.C,J14*%
X141266740Y-86256200D02*
G75*
G03*
X141266740Y-86256200I-1251000J0D01*
G01*
%TO.C,J33*%
X125753400Y-86250000D02*
G75*
G03*
X125753400Y-86250000I-1251000J0D01*
G01*
%TO.C,J11*%
X141241340Y-98778400D02*
G75*
G03*
X141241340Y-98778400I-1251000J0D01*
G01*
%TO.C,J30*%
X115682400Y-79570000D02*
X115682400Y-112650000D01*
X113022400Y-78300000D02*
X113022400Y-76970000D01*
X113022400Y-112650000D02*
X115682400Y-112650000D01*
X113022400Y-79570000D02*
X113022400Y-112650000D01*
X113022400Y-76970000D02*
X114352400Y-76970000D01*
X113022400Y-79570000D02*
X115682400Y-79570000D01*
%TO.C,J28*%
X152264940Y-86281600D02*
G75*
G03*
X152264940Y-86281600I-1251000J0D01*
G01*
%TO.C,J16*%
X163237740Y-73734000D02*
G75*
G03*
X163237740Y-73734000I-1251000J0D01*
G01*
%TO.C,J10*%
X152264940Y-98727600D02*
G75*
G03*
X152264940Y-98727600I-1251000J0D01*
G01*
D15*
%TO.C,G\u002A\u002A\u002A*%
X123190870Y-115676750D02*
X123156198Y-115623833D01*
X123156198Y-115623833D02*
X122420391Y-115623833D01*
X122420391Y-115623833D02*
X122221887Y-115623645D01*
X122221887Y-115623645D02*
X122061529Y-115622958D01*
X122061529Y-115622958D02*
X121935132Y-115621587D01*
X121935132Y-115621587D02*
X121838510Y-115619349D01*
X121838510Y-115619349D02*
X121767478Y-115616062D01*
X121767478Y-115616062D02*
X121717850Y-115611539D01*
X121717850Y-115611539D02*
X121685440Y-115605599D01*
X121685440Y-115605599D02*
X121666062Y-115598057D01*
X121666062Y-115598057D02*
X121656761Y-115590309D01*
X121656761Y-115590309D02*
X121640373Y-115549610D01*
X121640373Y-115549610D02*
X121651177Y-115521518D01*
X121651177Y-115521518D02*
X121660552Y-115512061D01*
X121660552Y-115512061D02*
X121678336Y-115504362D01*
X121678336Y-115504362D02*
X121708706Y-115498195D01*
X121708706Y-115498195D02*
X121755842Y-115493339D01*
X121755842Y-115493339D02*
X121823922Y-115489568D01*
X121823922Y-115489568D02*
X121917125Y-115486661D01*
X121917125Y-115486661D02*
X122039628Y-115484394D01*
X122039628Y-115484394D02*
X122195611Y-115482543D01*
X122195611Y-115482543D02*
X122389252Y-115480885D01*
X122389252Y-115480885D02*
X122414983Y-115480690D01*
X122414983Y-115480690D02*
X123156550Y-115475130D01*
X123156550Y-115475130D02*
X123191046Y-115422482D01*
X123191046Y-115422482D02*
X123225543Y-115369833D01*
X123225543Y-115369833D02*
X124599424Y-115369833D01*
X124599424Y-115369833D02*
X124634097Y-115422750D01*
X124634097Y-115422750D02*
X124668769Y-115475667D01*
X124668769Y-115475667D02*
X125417006Y-115475667D01*
X125417006Y-115475667D02*
X125614860Y-115475756D01*
X125614860Y-115475756D02*
X125774608Y-115476172D01*
X125774608Y-115476172D02*
X125900476Y-115477141D01*
X125900476Y-115477141D02*
X125996692Y-115478885D01*
X125996692Y-115478885D02*
X126067482Y-115481630D01*
X126067482Y-115481630D02*
X126117074Y-115485600D01*
X126117074Y-115485600D02*
X126149695Y-115491018D01*
X126149695Y-115491018D02*
X126169570Y-115498110D01*
X126169570Y-115498110D02*
X126180929Y-115507099D01*
X126180929Y-115507099D02*
X126187113Y-115516530D01*
X126187113Y-115516530D02*
X126196349Y-115559162D01*
X126196349Y-115559162D02*
X126175763Y-115590614D01*
X126175763Y-115590614D02*
X126162386Y-115599583D01*
X126162386Y-115599583D02*
X126139258Y-115606810D01*
X126139258Y-115606810D02*
X126102180Y-115612476D01*
X126102180Y-115612476D02*
X126046953Y-115616761D01*
X126046953Y-115616761D02*
X125969378Y-115619847D01*
X125969378Y-115619847D02*
X125865258Y-115621916D01*
X125865258Y-115621916D02*
X125730392Y-115623147D01*
X125730392Y-115623147D02*
X125560583Y-115623723D01*
X125560583Y-115623723D02*
X125405656Y-115623833D01*
X125405656Y-115623833D02*
X124668769Y-115623833D01*
X124668769Y-115623833D02*
X124634097Y-115676750D01*
X124634097Y-115676750D02*
X124599424Y-115729667D01*
X124599424Y-115729667D02*
X123225543Y-115729667D01*
X123225543Y-115729667D02*
X123190870Y-115676750D01*
X123190870Y-115676750D02*
X123190870Y-115676750D01*
G36*
X124634097Y-115422750D02*
G01*
X124668769Y-115475667D01*
X125417006Y-115475667D01*
X125614860Y-115475756D01*
X125774608Y-115476172D01*
X125900476Y-115477141D01*
X125996692Y-115478885D01*
X126067482Y-115481630D01*
X126117074Y-115485600D01*
X126149695Y-115491018D01*
X126169570Y-115498110D01*
X126180929Y-115507099D01*
X126187113Y-115516530D01*
X126196349Y-115559162D01*
X126175763Y-115590614D01*
X126162386Y-115599583D01*
X126139258Y-115606810D01*
X126102180Y-115612476D01*
X126046953Y-115616761D01*
X125969378Y-115619847D01*
X125865258Y-115621916D01*
X125730392Y-115623147D01*
X125560583Y-115623723D01*
X125405656Y-115623833D01*
X124668769Y-115623833D01*
X124634097Y-115676750D01*
X124599424Y-115729667D01*
X123225543Y-115729667D01*
X123190870Y-115676750D01*
X123156198Y-115623833D01*
X122420391Y-115623833D01*
X122221887Y-115623645D01*
X122061529Y-115622958D01*
X121935132Y-115621587D01*
X121838510Y-115619349D01*
X121767478Y-115616062D01*
X121717850Y-115611539D01*
X121685440Y-115605599D01*
X121666062Y-115598057D01*
X121656761Y-115590309D01*
X121640373Y-115549610D01*
X121651177Y-115521518D01*
X121660552Y-115512061D01*
X121678336Y-115504362D01*
X121708706Y-115498195D01*
X121755842Y-115493339D01*
X121823922Y-115489568D01*
X121917125Y-115486661D01*
X122039628Y-115484394D01*
X122195611Y-115482543D01*
X122389252Y-115480885D01*
X122414983Y-115480690D01*
X123156550Y-115475130D01*
X123191046Y-115422482D01*
X123225543Y-115369833D01*
X124599424Y-115369833D01*
X124634097Y-115422750D01*
G37*
X124634097Y-115422750D02*
X124668769Y-115475667D01*
X125417006Y-115475667D01*
X125614860Y-115475756D01*
X125774608Y-115476172D01*
X125900476Y-115477141D01*
X125996692Y-115478885D01*
X126067482Y-115481630D01*
X126117074Y-115485600D01*
X126149695Y-115491018D01*
X126169570Y-115498110D01*
X126180929Y-115507099D01*
X126187113Y-115516530D01*
X126196349Y-115559162D01*
X126175763Y-115590614D01*
X126162386Y-115599583D01*
X126139258Y-115606810D01*
X126102180Y-115612476D01*
X126046953Y-115616761D01*
X125969378Y-115619847D01*
X125865258Y-115621916D01*
X125730392Y-115623147D01*
X125560583Y-115623723D01*
X125405656Y-115623833D01*
X124668769Y-115623833D01*
X124634097Y-115676750D01*
X124599424Y-115729667D01*
X123225543Y-115729667D01*
X123190870Y-115676750D01*
X123156198Y-115623833D01*
X122420391Y-115623833D01*
X122221887Y-115623645D01*
X122061529Y-115622958D01*
X121935132Y-115621587D01*
X121838510Y-115619349D01*
X121767478Y-115616062D01*
X121717850Y-115611539D01*
X121685440Y-115605599D01*
X121666062Y-115598057D01*
X121656761Y-115590309D01*
X121640373Y-115549610D01*
X121651177Y-115521518D01*
X121660552Y-115512061D01*
X121678336Y-115504362D01*
X121708706Y-115498195D01*
X121755842Y-115493339D01*
X121823922Y-115489568D01*
X121917125Y-115486661D01*
X122039628Y-115484394D01*
X122195611Y-115482543D01*
X122389252Y-115480885D01*
X122414983Y-115480690D01*
X123156550Y-115475130D01*
X123191046Y-115422482D01*
X123225543Y-115369833D01*
X124599424Y-115369833D01*
X124634097Y-115422750D01*
X123144082Y-115179333D02*
X122402584Y-115179333D01*
X122402584Y-115179333D02*
X122205924Y-115179261D01*
X122205924Y-115179261D02*
X122047394Y-115178886D01*
X122047394Y-115178886D02*
X121922794Y-115177974D01*
X121922794Y-115177974D02*
X121827919Y-115176291D01*
X121827919Y-115176291D02*
X121758569Y-115173601D01*
X121758569Y-115173601D02*
X121710541Y-115169672D01*
X121710541Y-115169672D02*
X121679633Y-115164267D01*
X121679633Y-115164267D02*
X121661643Y-115157152D01*
X121661643Y-115157152D02*
X121652367Y-115148093D01*
X121652367Y-115148093D02*
X121647710Y-115137190D01*
X121647710Y-115137190D02*
X121642433Y-115093156D01*
X121642433Y-115093156D02*
X121647533Y-115073690D01*
X121647533Y-115073690D02*
X121672601Y-115067466D01*
X121672601Y-115067466D02*
X121738524Y-115062254D01*
X121738524Y-115062254D02*
X121843839Y-115058095D01*
X121843839Y-115058095D02*
X121987078Y-115055029D01*
X121987078Y-115055029D02*
X122166776Y-115053098D01*
X122166776Y-115053098D02*
X122381467Y-115052343D01*
X122381467Y-115052343D02*
X122410899Y-115052333D01*
X122410899Y-115052333D02*
X122631190Y-115051742D01*
X122631190Y-115051742D02*
X122814833Y-115049987D01*
X122814833Y-115049987D02*
X122960720Y-115047101D01*
X122960720Y-115047101D02*
X123067743Y-115043114D01*
X123067743Y-115043114D02*
X123134793Y-115038058D01*
X123134793Y-115038058D02*
X123160764Y-115031965D01*
X123160764Y-115031965D02*
X123161067Y-115031167D01*
X123161067Y-115031167D02*
X123174729Y-115001966D01*
X123174729Y-115001966D02*
X123203400Y-114967667D01*
X123203400Y-114967667D02*
X123216903Y-114955872D01*
X123216903Y-114955872D02*
X123234311Y-114946496D01*
X123234311Y-114946496D02*
X123260261Y-114939263D01*
X123260261Y-114939263D02*
X123299390Y-114933894D01*
X123299390Y-114933894D02*
X123356336Y-114930114D01*
X123356336Y-114930114D02*
X123435736Y-114927645D01*
X123435736Y-114927645D02*
X123542227Y-114926211D01*
X123542227Y-114926211D02*
X123680446Y-114925535D01*
X123680446Y-114925535D02*
X123855031Y-114925340D01*
X123855031Y-114925340D02*
X123912483Y-114925333D01*
X123912483Y-114925333D02*
X124098357Y-114925442D01*
X124098357Y-114925442D02*
X124246535Y-114925952D01*
X124246535Y-114925952D02*
X124361654Y-114927140D01*
X124361654Y-114927140D02*
X124448352Y-114929284D01*
X124448352Y-114929284D02*
X124511265Y-114932659D01*
X124511265Y-114932659D02*
X124555032Y-114937544D01*
X124555032Y-114937544D02*
X124584288Y-114944214D01*
X124584288Y-114944214D02*
X124603672Y-114952947D01*
X124603672Y-114952947D02*
X124617821Y-114964019D01*
X124617821Y-114964019D02*
X124621567Y-114967667D01*
X124621567Y-114967667D02*
X124652644Y-115005575D01*
X124652644Y-115005575D02*
X124663900Y-115031167D01*
X124663900Y-115031167D02*
X124684880Y-115037350D01*
X124684880Y-115037350D02*
X124747092Y-115042511D01*
X124747092Y-115042511D02*
X124849450Y-115046618D01*
X124849450Y-115046618D02*
X124990863Y-115049642D01*
X124990863Y-115049642D02*
X125170245Y-115051553D01*
X125170245Y-115051553D02*
X125386506Y-115052319D01*
X125386506Y-115052319D02*
X125423636Y-115052333D01*
X125423636Y-115052333D02*
X125624473Y-115052487D01*
X125624473Y-115052487D02*
X125787046Y-115053069D01*
X125787046Y-115053069D02*
X125915426Y-115054261D01*
X125915426Y-115054261D02*
X126013679Y-115056243D01*
X126013679Y-115056243D02*
X126085877Y-115059197D01*
X126085877Y-115059197D02*
X126136087Y-115063304D01*
X126136087Y-115063304D02*
X126168380Y-115068746D01*
X126168380Y-115068746D02*
X126186823Y-115075704D01*
X126186823Y-115075704D02*
X126195486Y-115084359D01*
X126195486Y-115084359D02*
X126196584Y-115086766D01*
X126196584Y-115086766D02*
X126204004Y-115110239D01*
X126204004Y-115110239D02*
X126203978Y-115129373D01*
X126203978Y-115129373D02*
X126192767Y-115144610D01*
X126192767Y-115144610D02*
X126166631Y-115156392D01*
X126166631Y-115156392D02*
X126121831Y-115165163D01*
X126121831Y-115165163D02*
X126054627Y-115171364D01*
X126054627Y-115171364D02*
X125961281Y-115175438D01*
X125961281Y-115175438D02*
X125838053Y-115177826D01*
X125838053Y-115177826D02*
X125681203Y-115178973D01*
X125681203Y-115178973D02*
X125486993Y-115179319D01*
X125486993Y-115179319D02*
X125414151Y-115179333D01*
X125414151Y-115179333D02*
X125216707Y-115179393D01*
X125216707Y-115179393D02*
X125057407Y-115179732D01*
X125057407Y-115179732D02*
X124932062Y-115180591D01*
X124932062Y-115180591D02*
X124836481Y-115182207D01*
X124836481Y-115182207D02*
X124766476Y-115184823D01*
X124766476Y-115184823D02*
X124717857Y-115188676D01*
X124717857Y-115188676D02*
X124686434Y-115194007D01*
X124686434Y-115194007D02*
X124668019Y-115201055D01*
X124668019Y-115201055D02*
X124658422Y-115210060D01*
X124658422Y-115210060D02*
X124653453Y-115221262D01*
X124653453Y-115221262D02*
X124652932Y-115222879D01*
X124652932Y-115222879D02*
X124623517Y-115263389D01*
X124623517Y-115263389D02*
X124586628Y-115286379D01*
X124586628Y-115286379D02*
X124552695Y-115291420D01*
X124552695Y-115291420D02*
X124482184Y-115295993D01*
X124482184Y-115295993D02*
X124380853Y-115299931D01*
X124380853Y-115299931D02*
X124254454Y-115303068D01*
X124254454Y-115303068D02*
X124108744Y-115305236D01*
X124108744Y-115305236D02*
X123949479Y-115306270D01*
X123949479Y-115306270D02*
X123898431Y-115306333D01*
X123898431Y-115306333D02*
X123262718Y-115306333D01*
X123262718Y-115306333D02*
X123144082Y-115179333D01*
X123144082Y-115179333D02*
X123144082Y-115179333D01*
G36*
X124098357Y-114925442D02*
G01*
X124246535Y-114925952D01*
X124361654Y-114927140D01*
X124448352Y-114929284D01*
X124511265Y-114932659D01*
X124555032Y-114937544D01*
X124584288Y-114944214D01*
X124603672Y-114952947D01*
X124617821Y-114964019D01*
X124621567Y-114967667D01*
X124652644Y-115005575D01*
X124663900Y-115031167D01*
X124684880Y-115037350D01*
X124747092Y-115042511D01*
X124849450Y-115046618D01*
X124990863Y-115049642D01*
X125170245Y-115051553D01*
X125386506Y-115052319D01*
X125423636Y-115052333D01*
X125624473Y-115052487D01*
X125787046Y-115053069D01*
X125915426Y-115054261D01*
X126013679Y-115056243D01*
X126085877Y-115059197D01*
X126136087Y-115063304D01*
X126168380Y-115068746D01*
X126186823Y-115075704D01*
X126195486Y-115084359D01*
X126196584Y-115086766D01*
X126204004Y-115110239D01*
X126203978Y-115129373D01*
X126192767Y-115144610D01*
X126166631Y-115156392D01*
X126121831Y-115165163D01*
X126054627Y-115171364D01*
X125961281Y-115175438D01*
X125838053Y-115177826D01*
X125681203Y-115178973D01*
X125486993Y-115179319D01*
X125414151Y-115179333D01*
X125216707Y-115179393D01*
X125057407Y-115179732D01*
X124932062Y-115180591D01*
X124836481Y-115182207D01*
X124766476Y-115184823D01*
X124717857Y-115188676D01*
X124686434Y-115194007D01*
X124668019Y-115201055D01*
X124658422Y-115210060D01*
X124653453Y-115221262D01*
X124652932Y-115222879D01*
X124623517Y-115263389D01*
X124586628Y-115286379D01*
X124552695Y-115291420D01*
X124482184Y-115295993D01*
X124380853Y-115299931D01*
X124254454Y-115303068D01*
X124108744Y-115305236D01*
X123949479Y-115306270D01*
X123898431Y-115306333D01*
X123262718Y-115306333D01*
X123144082Y-115179333D01*
X122402584Y-115179333D01*
X122205924Y-115179261D01*
X122047394Y-115178886D01*
X121922794Y-115177974D01*
X121827919Y-115176291D01*
X121758569Y-115173601D01*
X121710541Y-115169672D01*
X121679633Y-115164267D01*
X121661643Y-115157152D01*
X121652367Y-115148093D01*
X121647710Y-115137190D01*
X121642433Y-115093156D01*
X121647533Y-115073690D01*
X121672601Y-115067466D01*
X121738524Y-115062254D01*
X121843839Y-115058095D01*
X121987078Y-115055029D01*
X122166776Y-115053098D01*
X122381467Y-115052343D01*
X122410899Y-115052333D01*
X122631190Y-115051742D01*
X122814833Y-115049987D01*
X122960720Y-115047101D01*
X123067743Y-115043114D01*
X123134793Y-115038058D01*
X123160764Y-115031965D01*
X123161067Y-115031167D01*
X123174729Y-115001966D01*
X123203400Y-114967667D01*
X123216903Y-114955872D01*
X123234311Y-114946496D01*
X123260261Y-114939263D01*
X123299390Y-114933894D01*
X123356336Y-114930114D01*
X123435736Y-114927645D01*
X123542227Y-114926211D01*
X123680446Y-114925535D01*
X123855031Y-114925340D01*
X123912483Y-114925333D01*
X124098357Y-114925442D01*
G37*
X124098357Y-114925442D02*
X124246535Y-114925952D01*
X124361654Y-114927140D01*
X124448352Y-114929284D01*
X124511265Y-114932659D01*
X124555032Y-114937544D01*
X124584288Y-114944214D01*
X124603672Y-114952947D01*
X124617821Y-114964019D01*
X124621567Y-114967667D01*
X124652644Y-115005575D01*
X124663900Y-115031167D01*
X124684880Y-115037350D01*
X124747092Y-115042511D01*
X124849450Y-115046618D01*
X124990863Y-115049642D01*
X125170245Y-115051553D01*
X125386506Y-115052319D01*
X125423636Y-115052333D01*
X125624473Y-115052487D01*
X125787046Y-115053069D01*
X125915426Y-115054261D01*
X126013679Y-115056243D01*
X126085877Y-115059197D01*
X126136087Y-115063304D01*
X126168380Y-115068746D01*
X126186823Y-115075704D01*
X126195486Y-115084359D01*
X126196584Y-115086766D01*
X126204004Y-115110239D01*
X126203978Y-115129373D01*
X126192767Y-115144610D01*
X126166631Y-115156392D01*
X126121831Y-115165163D01*
X126054627Y-115171364D01*
X125961281Y-115175438D01*
X125838053Y-115177826D01*
X125681203Y-115178973D01*
X125486993Y-115179319D01*
X125414151Y-115179333D01*
X125216707Y-115179393D01*
X125057407Y-115179732D01*
X124932062Y-115180591D01*
X124836481Y-115182207D01*
X124766476Y-115184823D01*
X124717857Y-115188676D01*
X124686434Y-115194007D01*
X124668019Y-115201055D01*
X124658422Y-115210060D01*
X124653453Y-115221262D01*
X124652932Y-115222879D01*
X124623517Y-115263389D01*
X124586628Y-115286379D01*
X124552695Y-115291420D01*
X124482184Y-115295993D01*
X124380853Y-115299931D01*
X124254454Y-115303068D01*
X124108744Y-115305236D01*
X123949479Y-115306270D01*
X123898431Y-115306333D01*
X123262718Y-115306333D01*
X123144082Y-115179333D01*
X122402584Y-115179333D01*
X122205924Y-115179261D01*
X122047394Y-115178886D01*
X121922794Y-115177974D01*
X121827919Y-115176291D01*
X121758569Y-115173601D01*
X121710541Y-115169672D01*
X121679633Y-115164267D01*
X121661643Y-115157152D01*
X121652367Y-115148093D01*
X121647710Y-115137190D01*
X121642433Y-115093156D01*
X121647533Y-115073690D01*
X121672601Y-115067466D01*
X121738524Y-115062254D01*
X121843839Y-115058095D01*
X121987078Y-115055029D01*
X122166776Y-115053098D01*
X122381467Y-115052343D01*
X122410899Y-115052333D01*
X122631190Y-115051742D01*
X122814833Y-115049987D01*
X122960720Y-115047101D01*
X123067743Y-115043114D01*
X123134793Y-115038058D01*
X123160764Y-115031965D01*
X123161067Y-115031167D01*
X123174729Y-115001966D01*
X123203400Y-114967667D01*
X123216903Y-114955872D01*
X123234311Y-114946496D01*
X123260261Y-114939263D01*
X123299390Y-114933894D01*
X123356336Y-114930114D01*
X123435736Y-114927645D01*
X123542227Y-114926211D01*
X123680446Y-114925535D01*
X123855031Y-114925340D01*
X123912483Y-114925333D01*
X124098357Y-114925442D01*
X119368213Y-116173466D02*
X119209981Y-116171460D01*
X119209981Y-116171460D02*
X119074686Y-116168297D01*
X119074686Y-116168297D02*
X118967138Y-116164123D01*
X118967138Y-116164123D02*
X118892149Y-116159083D01*
X118892149Y-116159083D02*
X118854528Y-116153326D01*
X118854528Y-116153326D02*
X118854004Y-116153135D01*
X118854004Y-116153135D02*
X118804090Y-116115789D01*
X118804090Y-116115789D02*
X118767676Y-116057885D01*
X118767676Y-116057885D02*
X118748849Y-116001401D01*
X118748849Y-116001401D02*
X118751208Y-115955174D01*
X118751208Y-115955174D02*
X118767676Y-115909449D01*
X118767676Y-115909449D02*
X118806818Y-115848535D01*
X118806818Y-115848535D02*
X118854004Y-115814199D01*
X118854004Y-115814199D02*
X118890375Y-115808421D01*
X118890375Y-115808421D02*
X118964264Y-115803357D01*
X118964264Y-115803357D02*
X119070863Y-115799153D01*
X119070863Y-115799153D02*
X119205360Y-115795956D01*
X119205360Y-115795956D02*
X119362945Y-115793912D01*
X119362945Y-115793912D02*
X119538809Y-115793168D01*
X119538809Y-115793168D02*
X119544573Y-115793167D01*
X119544573Y-115793167D02*
X120179823Y-115793167D01*
X120179823Y-115793167D02*
X120241695Y-115855039D01*
X120241695Y-115855039D02*
X120291823Y-115925547D01*
X120291823Y-115925547D02*
X120303567Y-115983667D01*
X120303567Y-115983667D02*
X120284677Y-116056641D01*
X120284677Y-116056641D02*
X120241695Y-116112295D01*
X120241695Y-116112295D02*
X120179823Y-116174167D01*
X120179823Y-116174167D02*
X119544573Y-116174167D01*
X119544573Y-116174167D02*
X119368213Y-116173466D01*
X119368213Y-116173466D02*
X119368213Y-116173466D01*
G36*
X120241695Y-115855039D02*
G01*
X120291823Y-115925547D01*
X120303567Y-115983667D01*
X120284677Y-116056641D01*
X120241695Y-116112295D01*
X120179823Y-116174167D01*
X119544573Y-116174167D01*
X119368213Y-116173466D01*
X119209981Y-116171460D01*
X119074686Y-116168297D01*
X118967138Y-116164123D01*
X118892149Y-116159083D01*
X118854528Y-116153326D01*
X118854004Y-116153135D01*
X118804090Y-116115789D01*
X118767676Y-116057885D01*
X118748849Y-116001401D01*
X118751208Y-115955174D01*
X118767676Y-115909449D01*
X118806818Y-115848535D01*
X118854004Y-115814199D01*
X118890375Y-115808421D01*
X118964264Y-115803357D01*
X119070863Y-115799153D01*
X119205360Y-115795956D01*
X119362945Y-115793912D01*
X119538809Y-115793168D01*
X119544573Y-115793167D01*
X120179823Y-115793167D01*
X120241695Y-115855039D01*
G37*
X120241695Y-115855039D02*
X120291823Y-115925547D01*
X120303567Y-115983667D01*
X120284677Y-116056641D01*
X120241695Y-116112295D01*
X120179823Y-116174167D01*
X119544573Y-116174167D01*
X119368213Y-116173466D01*
X119209981Y-116171460D01*
X119074686Y-116168297D01*
X118967138Y-116164123D01*
X118892149Y-116159083D01*
X118854528Y-116153326D01*
X118854004Y-116153135D01*
X118804090Y-116115789D01*
X118767676Y-116057885D01*
X118748849Y-116001401D01*
X118751208Y-115955174D01*
X118767676Y-115909449D01*
X118806818Y-115848535D01*
X118854004Y-115814199D01*
X118890375Y-115808421D01*
X118964264Y-115803357D01*
X119070863Y-115799153D01*
X119205360Y-115795956D01*
X119362945Y-115793912D01*
X119538809Y-115793168D01*
X119544573Y-115793167D01*
X120179823Y-115793167D01*
X120241695Y-115855039D01*
X124975905Y-116043897D02*
X124706711Y-116043590D01*
X124706711Y-116043590D02*
X124400753Y-116043047D01*
X124400753Y-116043047D02*
X124055687Y-116042298D01*
X124055687Y-116042298D02*
X123915474Y-116041970D01*
X123915474Y-116041970D02*
X121647650Y-116036583D01*
X121647650Y-116036583D02*
X121647650Y-115930750D01*
X121647650Y-115930750D02*
X123904521Y-115925363D01*
X123904521Y-115925363D02*
X124269819Y-115924560D01*
X124269819Y-115924560D02*
X124595011Y-115924011D01*
X124595011Y-115924011D02*
X124882326Y-115923739D01*
X124882326Y-115923739D02*
X125133990Y-115923766D01*
X125133990Y-115923766D02*
X125352230Y-115924116D01*
X125352230Y-115924116D02*
X125539275Y-115924812D01*
X125539275Y-115924812D02*
X125697350Y-115925878D01*
X125697350Y-115925878D02*
X125828685Y-115927337D01*
X125828685Y-115927337D02*
X125935506Y-115929211D01*
X125935506Y-115929211D02*
X126020040Y-115931525D01*
X126020040Y-115931525D02*
X126084514Y-115934300D01*
X126084514Y-115934300D02*
X126131157Y-115937562D01*
X126131157Y-115937562D02*
X126162196Y-115941332D01*
X126162196Y-115941332D02*
X126179857Y-115945634D01*
X126179857Y-115945634D02*
X126185594Y-115949139D01*
X126185594Y-115949139D02*
X126199912Y-115991873D01*
X126199912Y-115991873D02*
X126196548Y-116012829D01*
X126196548Y-116012829D02*
X126191958Y-116018309D01*
X126191958Y-116018309D02*
X126181079Y-116023165D01*
X126181079Y-116023165D02*
X126161568Y-116027426D01*
X126161568Y-116027426D02*
X126131079Y-116031121D01*
X126131079Y-116031121D02*
X126087269Y-116034282D01*
X126087269Y-116034282D02*
X126027793Y-116036937D01*
X126027793Y-116036937D02*
X125950307Y-116039117D01*
X125950307Y-116039117D02*
X125852467Y-116040852D01*
X125852467Y-116040852D02*
X125731929Y-116042172D01*
X125731929Y-116042172D02*
X125586348Y-116043107D01*
X125586348Y-116043107D02*
X125413379Y-116043686D01*
X125413379Y-116043686D02*
X125210680Y-116043939D01*
X125210680Y-116043939D02*
X124975905Y-116043897D01*
X124975905Y-116043897D02*
X124975905Y-116043897D01*
G36*
X125133990Y-115923766D02*
G01*
X125352230Y-115924116D01*
X125539275Y-115924812D01*
X125697350Y-115925878D01*
X125828685Y-115927337D01*
X125935506Y-115929211D01*
X126020040Y-115931525D01*
X126084514Y-115934300D01*
X126131157Y-115937562D01*
X126162196Y-115941332D01*
X126179857Y-115945634D01*
X126185594Y-115949139D01*
X126199912Y-115991873D01*
X126196548Y-116012829D01*
X126191958Y-116018309D01*
X126181079Y-116023165D01*
X126161568Y-116027426D01*
X126131079Y-116031121D01*
X126087269Y-116034282D01*
X126027793Y-116036937D01*
X125950307Y-116039117D01*
X125852467Y-116040852D01*
X125731929Y-116042172D01*
X125586348Y-116043107D01*
X125413379Y-116043686D01*
X125210680Y-116043939D01*
X124975905Y-116043897D01*
X124706711Y-116043590D01*
X124400753Y-116043047D01*
X124055687Y-116042298D01*
X123915474Y-116041970D01*
X121647650Y-116036583D01*
X121647650Y-115930750D01*
X123904521Y-115925363D01*
X124269819Y-115924560D01*
X124595011Y-115924011D01*
X124882326Y-115923739D01*
X125133990Y-115923766D01*
G37*
X125133990Y-115923766D02*
X125352230Y-115924116D01*
X125539275Y-115924812D01*
X125697350Y-115925878D01*
X125828685Y-115927337D01*
X125935506Y-115929211D01*
X126020040Y-115931525D01*
X126084514Y-115934300D01*
X126131157Y-115937562D01*
X126162196Y-115941332D01*
X126179857Y-115945634D01*
X126185594Y-115949139D01*
X126199912Y-115991873D01*
X126196548Y-116012829D01*
X126191958Y-116018309D01*
X126181079Y-116023165D01*
X126161568Y-116027426D01*
X126131079Y-116031121D01*
X126087269Y-116034282D01*
X126027793Y-116036937D01*
X125950307Y-116039117D01*
X125852467Y-116040852D01*
X125731929Y-116042172D01*
X125586348Y-116043107D01*
X125413379Y-116043686D01*
X125210680Y-116043939D01*
X124975905Y-116043897D01*
X124706711Y-116043590D01*
X124400753Y-116043047D01*
X124055687Y-116042298D01*
X123915474Y-116041970D01*
X121647650Y-116036583D01*
X121647650Y-115930750D01*
X123904521Y-115925363D01*
X124269819Y-115924560D01*
X124595011Y-115924011D01*
X124882326Y-115923739D01*
X125133990Y-115923766D01*
X118802306Y-114366091D02*
X118761137Y-114295398D01*
X118761137Y-114295398D02*
X118753576Y-114216178D01*
X118753576Y-114216178D02*
X118779198Y-114142139D01*
X118779198Y-114142139D02*
X118810380Y-114105853D01*
X118810380Y-114105853D02*
X118826890Y-114092364D01*
X118826890Y-114092364D02*
X118844746Y-114081651D01*
X118844746Y-114081651D02*
X118868692Y-114073393D01*
X118868692Y-114073393D02*
X118903476Y-114067271D01*
X118903476Y-114067271D02*
X118953842Y-114062966D01*
X118953842Y-114062966D02*
X119024538Y-114060158D01*
X119024538Y-114060158D02*
X119120308Y-114058527D01*
X119120308Y-114058527D02*
X119245899Y-114057753D01*
X119245899Y-114057753D02*
X119406057Y-114057517D01*
X119406057Y-114057517D02*
X119528173Y-114057500D01*
X119528173Y-114057500D02*
X119713234Y-114057607D01*
X119713234Y-114057607D02*
X119860647Y-114058116D01*
X119860647Y-114058116D02*
X119975095Y-114059313D01*
X119975095Y-114059313D02*
X120061265Y-114061480D01*
X120061265Y-114061480D02*
X120123839Y-114064903D01*
X120123839Y-114064903D02*
X120167503Y-114069865D01*
X120167503Y-114069865D02*
X120196942Y-114076651D01*
X120196942Y-114076651D02*
X120216839Y-114085544D01*
X120216839Y-114085544D02*
X120231879Y-114096828D01*
X120231879Y-114096828D02*
X120235819Y-114100419D01*
X120235819Y-114100419D02*
X120274949Y-114150682D01*
X120274949Y-114150682D02*
X120295125Y-114196080D01*
X120295125Y-114196080D02*
X120295502Y-114261145D01*
X120295502Y-114261145D02*
X120273092Y-114330136D01*
X120273092Y-114330136D02*
X120235295Y-114383926D01*
X120235295Y-114383926D02*
X120217389Y-114396976D01*
X120217389Y-114396976D02*
X120186370Y-114402386D01*
X120186370Y-114402386D02*
X120117600Y-114407163D01*
X120117600Y-114407163D02*
X120015656Y-114411176D01*
X120015656Y-114411176D02*
X119885117Y-114414292D01*
X119885117Y-114414292D02*
X119730560Y-114416377D01*
X119730560Y-114416377D02*
X119556565Y-114417300D01*
X119556565Y-114417300D02*
X119514898Y-114417333D01*
X119514898Y-114417333D02*
X118850446Y-114417333D01*
X118850446Y-114417333D02*
X118802306Y-114366091D01*
X118802306Y-114366091D02*
X118802306Y-114366091D01*
G36*
X119713234Y-114057607D02*
G01*
X119860647Y-114058116D01*
X119975095Y-114059313D01*
X120061265Y-114061480D01*
X120123839Y-114064903D01*
X120167503Y-114069865D01*
X120196942Y-114076651D01*
X120216839Y-114085544D01*
X120231879Y-114096828D01*
X120235819Y-114100419D01*
X120274949Y-114150682D01*
X120295125Y-114196080D01*
X120295502Y-114261145D01*
X120273092Y-114330136D01*
X120235295Y-114383926D01*
X120217389Y-114396976D01*
X120186370Y-114402386D01*
X120117600Y-114407163D01*
X120015656Y-114411176D01*
X119885117Y-114414292D01*
X119730560Y-114416377D01*
X119556565Y-114417300D01*
X119514898Y-114417333D01*
X118850446Y-114417333D01*
X118802306Y-114366091D01*
X118761137Y-114295398D01*
X118753576Y-114216178D01*
X118779198Y-114142139D01*
X118810380Y-114105853D01*
X118826890Y-114092364D01*
X118844746Y-114081651D01*
X118868692Y-114073393D01*
X118903476Y-114067271D01*
X118953842Y-114062966D01*
X119024538Y-114060158D01*
X119120308Y-114058527D01*
X119245899Y-114057753D01*
X119406057Y-114057517D01*
X119528173Y-114057500D01*
X119713234Y-114057607D01*
G37*
X119713234Y-114057607D02*
X119860647Y-114058116D01*
X119975095Y-114059313D01*
X120061265Y-114061480D01*
X120123839Y-114064903D01*
X120167503Y-114069865D01*
X120196942Y-114076651D01*
X120216839Y-114085544D01*
X120231879Y-114096828D01*
X120235819Y-114100419D01*
X120274949Y-114150682D01*
X120295125Y-114196080D01*
X120295502Y-114261145D01*
X120273092Y-114330136D01*
X120235295Y-114383926D01*
X120217389Y-114396976D01*
X120186370Y-114402386D01*
X120117600Y-114407163D01*
X120015656Y-114411176D01*
X119885117Y-114414292D01*
X119730560Y-114416377D01*
X119556565Y-114417300D01*
X119514898Y-114417333D01*
X118850446Y-114417333D01*
X118802306Y-114366091D01*
X118761137Y-114295398D01*
X118753576Y-114216178D01*
X118779198Y-114142139D01*
X118810380Y-114105853D01*
X118826890Y-114092364D01*
X118844746Y-114081651D01*
X118868692Y-114073393D01*
X118903476Y-114067271D01*
X118953842Y-114062966D01*
X119024538Y-114060158D01*
X119120308Y-114058527D01*
X119245899Y-114057753D01*
X119406057Y-114057517D01*
X119528173Y-114057500D01*
X119713234Y-114057607D01*
X119339296Y-117041932D02*
X119192953Y-117041516D01*
X119192953Y-117041516D02*
X119079416Y-117040433D01*
X119079416Y-117040433D02*
X118993923Y-117038365D01*
X118993923Y-117038365D02*
X118931709Y-117034993D01*
X118931709Y-117034993D02*
X118888012Y-117029998D01*
X118888012Y-117029998D02*
X118858067Y-117023061D01*
X118858067Y-117023061D02*
X118837112Y-117013865D01*
X118837112Y-117013865D02*
X118820383Y-117002090D01*
X118820383Y-117002090D02*
X118811230Y-116994375D01*
X118811230Y-116994375D02*
X118764961Y-116930319D01*
X118764961Y-116930319D02*
X118750740Y-116854634D01*
X118750740Y-116854634D02*
X118766775Y-116779748D01*
X118766775Y-116779748D02*
X118811274Y-116718086D01*
X118811274Y-116718086D02*
X118855010Y-116690818D01*
X118855010Y-116690818D02*
X118900814Y-116680802D01*
X118900814Y-116680802D02*
X118981200Y-116672679D01*
X118981200Y-116672679D02*
X119089385Y-116666429D01*
X119089385Y-116666429D02*
X119218586Y-116662032D01*
X119218586Y-116662032D02*
X119362021Y-116659467D01*
X119362021Y-116659467D02*
X119512906Y-116658716D01*
X119512906Y-116658716D02*
X119664458Y-116659757D01*
X119664458Y-116659757D02*
X119809894Y-116662572D01*
X119809894Y-116662572D02*
X119942431Y-116667140D01*
X119942431Y-116667140D02*
X120055287Y-116673440D01*
X120055287Y-116673440D02*
X120141677Y-116681454D01*
X120141677Y-116681454D02*
X120194820Y-116691162D01*
X120194820Y-116691162D02*
X120204000Y-116694785D01*
X120204000Y-116694785D02*
X120268919Y-116750408D01*
X120268919Y-116750408D02*
X120298819Y-116821851D01*
X120298819Y-116821851D02*
X120292411Y-116899349D01*
X120292411Y-116899349D02*
X120248405Y-116973137D01*
X120248405Y-116973137D02*
X120241695Y-116980128D01*
X120241695Y-116980128D02*
X120179823Y-117042000D01*
X120179823Y-117042000D02*
X119523209Y-117042000D01*
X119523209Y-117042000D02*
X119339296Y-117041932D01*
X119339296Y-117041932D02*
X119339296Y-117041932D01*
G36*
X119664458Y-116659757D02*
G01*
X119809894Y-116662572D01*
X119942431Y-116667140D01*
X120055287Y-116673440D01*
X120141677Y-116681454D01*
X120194820Y-116691162D01*
X120204000Y-116694785D01*
X120268919Y-116750408D01*
X120298819Y-116821851D01*
X120292411Y-116899349D01*
X120248405Y-116973137D01*
X120241695Y-116980128D01*
X120179823Y-117042000D01*
X119523209Y-117042000D01*
X119339296Y-117041932D01*
X119192953Y-117041516D01*
X119079416Y-117040433D01*
X118993923Y-117038365D01*
X118931709Y-117034993D01*
X118888012Y-117029998D01*
X118858067Y-117023061D01*
X118837112Y-117013865D01*
X118820383Y-117002090D01*
X118811230Y-116994375D01*
X118764961Y-116930319D01*
X118750740Y-116854634D01*
X118766775Y-116779748D01*
X118811274Y-116718086D01*
X118855010Y-116690818D01*
X118900814Y-116680802D01*
X118981200Y-116672679D01*
X119089385Y-116666429D01*
X119218586Y-116662032D01*
X119362021Y-116659467D01*
X119512906Y-116658716D01*
X119664458Y-116659757D01*
G37*
X119664458Y-116659757D02*
X119809894Y-116662572D01*
X119942431Y-116667140D01*
X120055287Y-116673440D01*
X120141677Y-116681454D01*
X120194820Y-116691162D01*
X120204000Y-116694785D01*
X120268919Y-116750408D01*
X120298819Y-116821851D01*
X120292411Y-116899349D01*
X120248405Y-116973137D01*
X120241695Y-116980128D01*
X120179823Y-117042000D01*
X119523209Y-117042000D01*
X119339296Y-117041932D01*
X119192953Y-117041516D01*
X119079416Y-117040433D01*
X118993923Y-117038365D01*
X118931709Y-117034993D01*
X118888012Y-117029998D01*
X118858067Y-117023061D01*
X118837112Y-117013865D01*
X118820383Y-117002090D01*
X118811230Y-116994375D01*
X118764961Y-116930319D01*
X118750740Y-116854634D01*
X118766775Y-116779748D01*
X118811274Y-116718086D01*
X118855010Y-116690818D01*
X118900814Y-116680802D01*
X118981200Y-116672679D01*
X119089385Y-116666429D01*
X119218586Y-116662032D01*
X119362021Y-116659467D01*
X119512906Y-116658716D01*
X119664458Y-116659757D01*
X123734038Y-118777442D02*
X123581919Y-118776632D01*
X123581919Y-118776632D02*
X123463334Y-118775028D01*
X123463334Y-118775028D02*
X123373885Y-118772424D01*
X123373885Y-118772424D02*
X123309173Y-118768615D01*
X123309173Y-118768615D02*
X123264800Y-118763394D01*
X123264800Y-118763394D02*
X123236367Y-118756553D01*
X123236367Y-118756553D02*
X123219475Y-118747888D01*
X123219475Y-118747888D02*
X123215495Y-118744405D01*
X123215495Y-118744405D02*
X123188778Y-118709706D01*
X123188778Y-118709706D02*
X123182233Y-118691488D01*
X123182233Y-118691488D02*
X123161626Y-118686417D01*
X123161626Y-118686417D02*
X123102037Y-118681960D01*
X123102037Y-118681960D02*
X123006813Y-118678204D01*
X123006813Y-118678204D02*
X122879303Y-118675237D01*
X122879303Y-118675237D02*
X122722853Y-118673144D01*
X122722853Y-118673144D02*
X122540812Y-118672014D01*
X122540812Y-118672014D02*
X122425325Y-118671833D01*
X122425325Y-118671833D02*
X122226322Y-118671910D01*
X122226322Y-118671910D02*
X122065421Y-118672291D01*
X122065421Y-118672291D02*
X121938393Y-118673206D01*
X121938393Y-118673206D02*
X121841005Y-118674884D01*
X121841005Y-118674884D02*
X121769029Y-118677552D01*
X121769029Y-118677552D02*
X121718232Y-118681440D01*
X121718232Y-118681440D02*
X121684385Y-118686776D01*
X121684385Y-118686776D02*
X121663257Y-118693789D01*
X121663257Y-118693789D02*
X121650617Y-118702707D01*
X121650617Y-118702707D02*
X121642234Y-118713759D01*
X121642234Y-118713759D02*
X121641979Y-118714167D01*
X121641979Y-118714167D02*
X121636962Y-118721157D01*
X121636962Y-118721157D02*
X121629503Y-118727332D01*
X121629503Y-118727332D02*
X121617100Y-118732743D01*
X121617100Y-118732743D02*
X121597250Y-118737439D01*
X121597250Y-118737439D02*
X121567449Y-118741472D01*
X121567449Y-118741472D02*
X121525195Y-118744892D01*
X121525195Y-118744892D02*
X121467986Y-118747749D01*
X121467986Y-118747749D02*
X121393317Y-118750094D01*
X121393317Y-118750094D02*
X121298687Y-118751978D01*
X121298687Y-118751978D02*
X121181593Y-118753451D01*
X121181593Y-118753451D02*
X121039531Y-118754564D01*
X121039531Y-118754564D02*
X120869999Y-118755366D01*
X120869999Y-118755366D02*
X120670494Y-118755910D01*
X120670494Y-118755910D02*
X120438514Y-118756244D01*
X120438514Y-118756244D02*
X120171554Y-118756420D01*
X120171554Y-118756420D02*
X119867113Y-118756489D01*
X119867113Y-118756489D02*
X119545077Y-118756500D01*
X119545077Y-118756500D02*
X117474613Y-118756500D01*
X117474613Y-118756500D02*
X117428590Y-118707511D01*
X117428590Y-118707511D02*
X117390886Y-118641050D01*
X117390886Y-118641050D02*
X117382746Y-118564074D01*
X117382746Y-118564074D02*
X117404151Y-118492561D01*
X117404151Y-118492561D02*
X117428891Y-118460991D01*
X117428891Y-118460991D02*
X117437144Y-118453845D01*
X117437144Y-118453845D02*
X117447316Y-118447535D01*
X117447316Y-118447535D02*
X117461942Y-118442008D01*
X117461942Y-118442008D02*
X117483557Y-118437214D01*
X117483557Y-118437214D02*
X117514695Y-118433099D01*
X117514695Y-118433099D02*
X117557893Y-118429612D01*
X117557893Y-118429612D02*
X117615683Y-118426701D01*
X117615683Y-118426701D02*
X117690602Y-118424314D01*
X117690602Y-118424314D02*
X117785184Y-118422399D01*
X117785184Y-118422399D02*
X117901964Y-118420905D01*
X117901964Y-118420905D02*
X118043476Y-118419778D01*
X118043476Y-118419778D02*
X118212255Y-118418967D01*
X118212255Y-118418967D02*
X118410837Y-118418420D01*
X118410837Y-118418420D02*
X118641755Y-118418085D01*
X118641755Y-118418085D02*
X118907546Y-118417910D01*
X118907546Y-118417910D02*
X119210743Y-118417844D01*
X119210743Y-118417844D02*
X119533438Y-118417833D01*
X119533438Y-118417833D02*
X121591661Y-118417833D01*
X121591661Y-118417833D02*
X121674909Y-118523667D01*
X121674909Y-118523667D02*
X123165558Y-118523667D01*
X123165558Y-118523667D02*
X123248806Y-118417833D01*
X123248806Y-118417833D02*
X124599424Y-118417833D01*
X124599424Y-118417833D02*
X124634097Y-118470750D01*
X124634097Y-118470750D02*
X124668769Y-118523667D01*
X124668769Y-118523667D02*
X125405656Y-118523667D01*
X125405656Y-118523667D02*
X125604816Y-118523866D01*
X125604816Y-118523866D02*
X125765842Y-118524582D01*
X125765842Y-118524582D02*
X125892934Y-118525999D01*
X125892934Y-118525999D02*
X125990290Y-118528295D01*
X125990290Y-118528295D02*
X126062109Y-118531653D01*
X126062109Y-118531653D02*
X126112591Y-118536254D01*
X126112591Y-118536254D02*
X126145932Y-118542278D01*
X126145932Y-118542278D02*
X126166333Y-118549907D01*
X126166333Y-118549907D02*
X126175763Y-118556887D01*
X126175763Y-118556887D02*
X126197406Y-118595235D01*
X126197406Y-118595235D02*
X126187113Y-118630970D01*
X126187113Y-118630970D02*
X126179702Y-118641773D01*
X126179702Y-118641773D02*
X126167413Y-118650485D01*
X126167413Y-118650485D02*
X126146018Y-118657331D01*
X126146018Y-118657331D02*
X126111291Y-118662534D01*
X126111291Y-118662534D02*
X126059005Y-118666320D01*
X126059005Y-118666320D02*
X125984933Y-118668912D01*
X125984933Y-118668912D02*
X125884848Y-118670536D01*
X125884848Y-118670536D02*
X125754523Y-118671414D01*
X125754523Y-118671414D02*
X125589731Y-118671771D01*
X125589731Y-118671771D02*
X125417006Y-118671833D01*
X125417006Y-118671833D02*
X124668769Y-118671833D01*
X124668769Y-118671833D02*
X124634097Y-118724750D01*
X124634097Y-118724750D02*
X124599424Y-118777667D01*
X124599424Y-118777667D02*
X123924091Y-118777667D01*
X123924091Y-118777667D02*
X123734038Y-118777442D01*
X123734038Y-118777442D02*
X123734038Y-118777442D01*
G36*
X121674909Y-118523667D02*
G01*
X123165558Y-118523667D01*
X123248806Y-118417833D01*
X124599424Y-118417833D01*
X124634097Y-118470750D01*
X124668769Y-118523667D01*
X125405656Y-118523667D01*
X125604816Y-118523866D01*
X125765842Y-118524582D01*
X125892934Y-118525999D01*
X125990290Y-118528295D01*
X126062109Y-118531653D01*
X126112591Y-118536254D01*
X126145932Y-118542278D01*
X126166333Y-118549907D01*
X126175763Y-118556887D01*
X126197406Y-118595235D01*
X126187113Y-118630970D01*
X126179702Y-118641773D01*
X126167413Y-118650485D01*
X126146018Y-118657331D01*
X126111291Y-118662534D01*
X126059005Y-118666320D01*
X125984933Y-118668912D01*
X125884848Y-118670536D01*
X125754523Y-118671414D01*
X125589731Y-118671771D01*
X125417006Y-118671833D01*
X124668769Y-118671833D01*
X124634097Y-118724750D01*
X124599424Y-118777667D01*
X123924091Y-118777667D01*
X123734038Y-118777442D01*
X123581919Y-118776632D01*
X123463334Y-118775028D01*
X123373885Y-118772424D01*
X123309173Y-118768615D01*
X123264800Y-118763394D01*
X123236367Y-118756553D01*
X123219475Y-118747888D01*
X123215495Y-118744405D01*
X123188778Y-118709706D01*
X123182233Y-118691488D01*
X123161626Y-118686417D01*
X123102037Y-118681960D01*
X123006813Y-118678204D01*
X122879303Y-118675237D01*
X122722853Y-118673144D01*
X122540812Y-118672014D01*
X122425325Y-118671833D01*
X122226322Y-118671910D01*
X122065421Y-118672291D01*
X121938393Y-118673206D01*
X121841005Y-118674884D01*
X121769029Y-118677552D01*
X121718232Y-118681440D01*
X121684385Y-118686776D01*
X121663257Y-118693789D01*
X121650617Y-118702707D01*
X121642234Y-118713759D01*
X121641979Y-118714167D01*
X121636962Y-118721157D01*
X121629503Y-118727332D01*
X121617100Y-118732743D01*
X121597250Y-118737439D01*
X121567449Y-118741472D01*
X121525195Y-118744892D01*
X121467986Y-118747749D01*
X121393317Y-118750094D01*
X121298687Y-118751978D01*
X121181593Y-118753451D01*
X121039531Y-118754564D01*
X120869999Y-118755366D01*
X120670494Y-118755910D01*
X120438514Y-118756244D01*
X120171554Y-118756420D01*
X119867113Y-118756489D01*
X119545077Y-118756500D01*
X117474613Y-118756500D01*
X117428590Y-118707511D01*
X117390886Y-118641050D01*
X117382746Y-118564074D01*
X117404151Y-118492561D01*
X117428891Y-118460991D01*
X117437144Y-118453845D01*
X117447316Y-118447535D01*
X117461942Y-118442008D01*
X117483557Y-118437214D01*
X117514695Y-118433099D01*
X117557893Y-118429612D01*
X117615683Y-118426701D01*
X117690602Y-118424314D01*
X117785184Y-118422399D01*
X117901964Y-118420905D01*
X118043476Y-118419778D01*
X118212255Y-118418967D01*
X118410837Y-118418420D01*
X118641755Y-118418085D01*
X118907546Y-118417910D01*
X119210743Y-118417844D01*
X119533438Y-118417833D01*
X121591661Y-118417833D01*
X121674909Y-118523667D01*
G37*
X121674909Y-118523667D02*
X123165558Y-118523667D01*
X123248806Y-118417833D01*
X124599424Y-118417833D01*
X124634097Y-118470750D01*
X124668769Y-118523667D01*
X125405656Y-118523667D01*
X125604816Y-118523866D01*
X125765842Y-118524582D01*
X125892934Y-118525999D01*
X125990290Y-118528295D01*
X126062109Y-118531653D01*
X126112591Y-118536254D01*
X126145932Y-118542278D01*
X126166333Y-118549907D01*
X126175763Y-118556887D01*
X126197406Y-118595235D01*
X126187113Y-118630970D01*
X126179702Y-118641773D01*
X126167413Y-118650485D01*
X126146018Y-118657331D01*
X126111291Y-118662534D01*
X126059005Y-118666320D01*
X125984933Y-118668912D01*
X125884848Y-118670536D01*
X125754523Y-118671414D01*
X125589731Y-118671771D01*
X125417006Y-118671833D01*
X124668769Y-118671833D01*
X124634097Y-118724750D01*
X124599424Y-118777667D01*
X123924091Y-118777667D01*
X123734038Y-118777442D01*
X123581919Y-118776632D01*
X123463334Y-118775028D01*
X123373885Y-118772424D01*
X123309173Y-118768615D01*
X123264800Y-118763394D01*
X123236367Y-118756553D01*
X123219475Y-118747888D01*
X123215495Y-118744405D01*
X123188778Y-118709706D01*
X123182233Y-118691488D01*
X123161626Y-118686417D01*
X123102037Y-118681960D01*
X123006813Y-118678204D01*
X122879303Y-118675237D01*
X122722853Y-118673144D01*
X122540812Y-118672014D01*
X122425325Y-118671833D01*
X122226322Y-118671910D01*
X122065421Y-118672291D01*
X121938393Y-118673206D01*
X121841005Y-118674884D01*
X121769029Y-118677552D01*
X121718232Y-118681440D01*
X121684385Y-118686776D01*
X121663257Y-118693789D01*
X121650617Y-118702707D01*
X121642234Y-118713759D01*
X121641979Y-118714167D01*
X121636962Y-118721157D01*
X121629503Y-118727332D01*
X121617100Y-118732743D01*
X121597250Y-118737439D01*
X121567449Y-118741472D01*
X121525195Y-118744892D01*
X121467986Y-118747749D01*
X121393317Y-118750094D01*
X121298687Y-118751978D01*
X121181593Y-118753451D01*
X121039531Y-118754564D01*
X120869999Y-118755366D01*
X120670494Y-118755910D01*
X120438514Y-118756244D01*
X120171554Y-118756420D01*
X119867113Y-118756489D01*
X119545077Y-118756500D01*
X117474613Y-118756500D01*
X117428590Y-118707511D01*
X117390886Y-118641050D01*
X117382746Y-118564074D01*
X117404151Y-118492561D01*
X117428891Y-118460991D01*
X117437144Y-118453845D01*
X117447316Y-118447535D01*
X117461942Y-118442008D01*
X117483557Y-118437214D01*
X117514695Y-118433099D01*
X117557893Y-118429612D01*
X117615683Y-118426701D01*
X117690602Y-118424314D01*
X117785184Y-118422399D01*
X117901964Y-118420905D01*
X118043476Y-118419778D01*
X118212255Y-118418967D01*
X118410837Y-118418420D01*
X118641755Y-118418085D01*
X118907546Y-118417910D01*
X119210743Y-118417844D01*
X119533438Y-118417833D01*
X121591661Y-118417833D01*
X121674909Y-118523667D01*
X119343541Y-115729606D02*
X119196498Y-115729212D01*
X119196498Y-115729212D02*
X119082295Y-115728163D01*
X119082295Y-115728163D02*
X118996189Y-115726141D01*
X118996189Y-115726141D02*
X118933432Y-115722826D01*
X118933432Y-115722826D02*
X118889279Y-115717897D01*
X118889279Y-115717897D02*
X118858983Y-115711036D01*
X118858983Y-115711036D02*
X118837800Y-115701923D01*
X118837800Y-115701923D02*
X118820983Y-115690238D01*
X118820983Y-115690238D02*
X118810380Y-115681314D01*
X118810380Y-115681314D02*
X118765022Y-115616981D01*
X118765022Y-115616981D02*
X118752591Y-115539231D01*
X118752591Y-115539231D02*
X118773512Y-115461770D01*
X118773512Y-115461770D02*
X118802306Y-115421076D01*
X118802306Y-115421076D02*
X118850446Y-115369833D01*
X118850446Y-115369833D02*
X119518798Y-115370477D01*
X119518798Y-115370477D02*
X119692386Y-115371265D01*
X119692386Y-115371265D02*
X119849476Y-115373186D01*
X119849476Y-115373186D02*
X119985224Y-115376099D01*
X119985224Y-115376099D02*
X120094789Y-115379860D01*
X120094789Y-115379860D02*
X120173326Y-115384328D01*
X120173326Y-115384328D02*
X120215994Y-115389360D01*
X120215994Y-115389360D02*
X120221416Y-115391142D01*
X120221416Y-115391142D02*
X120261197Y-115434163D01*
X120261197Y-115434163D02*
X120289262Y-115499595D01*
X120289262Y-115499595D02*
X120298355Y-115567753D01*
X120298355Y-115567753D02*
X120295125Y-115591087D01*
X120295125Y-115591087D02*
X120269440Y-115645371D01*
X120269440Y-115645371D02*
X120235819Y-115686748D01*
X120235819Y-115686748D02*
X120221296Y-115698746D01*
X120221296Y-115698746D02*
X120203215Y-115708274D01*
X120203215Y-115708274D02*
X120176892Y-115715615D01*
X120176892Y-115715615D02*
X120137642Y-115721054D01*
X120137642Y-115721054D02*
X120080780Y-115724875D01*
X120080780Y-115724875D02*
X120001623Y-115727363D01*
X120001623Y-115727363D02*
X119895485Y-115728800D01*
X119895485Y-115728800D02*
X119757682Y-115729471D01*
X119757682Y-115729471D02*
X119583530Y-115729661D01*
X119583530Y-115729661D02*
X119528173Y-115729667D01*
X119528173Y-115729667D02*
X119343541Y-115729606D01*
X119343541Y-115729606D02*
X119343541Y-115729606D01*
G36*
X119518798Y-115370477D02*
G01*
X119692386Y-115371265D01*
X119849476Y-115373186D01*
X119985224Y-115376099D01*
X120094789Y-115379860D01*
X120173326Y-115384328D01*
X120215994Y-115389360D01*
X120221416Y-115391142D01*
X120261197Y-115434163D01*
X120289262Y-115499595D01*
X120298355Y-115567753D01*
X120295125Y-115591087D01*
X120269440Y-115645371D01*
X120235819Y-115686748D01*
X120221296Y-115698746D01*
X120203215Y-115708274D01*
X120176892Y-115715615D01*
X120137642Y-115721054D01*
X120080780Y-115724875D01*
X120001623Y-115727363D01*
X119895485Y-115728800D01*
X119757682Y-115729471D01*
X119583530Y-115729661D01*
X119528173Y-115729667D01*
X119343541Y-115729606D01*
X119196498Y-115729212D01*
X119082295Y-115728163D01*
X118996189Y-115726141D01*
X118933432Y-115722826D01*
X118889279Y-115717897D01*
X118858983Y-115711036D01*
X118837800Y-115701923D01*
X118820983Y-115690238D01*
X118810380Y-115681314D01*
X118765022Y-115616981D01*
X118752591Y-115539231D01*
X118773512Y-115461770D01*
X118802306Y-115421076D01*
X118850446Y-115369833D01*
X119518798Y-115370477D01*
G37*
X119518798Y-115370477D02*
X119692386Y-115371265D01*
X119849476Y-115373186D01*
X119985224Y-115376099D01*
X120094789Y-115379860D01*
X120173326Y-115384328D01*
X120215994Y-115389360D01*
X120221416Y-115391142D01*
X120261197Y-115434163D01*
X120289262Y-115499595D01*
X120298355Y-115567753D01*
X120295125Y-115591087D01*
X120269440Y-115645371D01*
X120235819Y-115686748D01*
X120221296Y-115698746D01*
X120203215Y-115708274D01*
X120176892Y-115715615D01*
X120137642Y-115721054D01*
X120080780Y-115724875D01*
X120001623Y-115727363D01*
X119895485Y-115728800D01*
X119757682Y-115729471D01*
X119583530Y-115729661D01*
X119528173Y-115729667D01*
X119343541Y-115729606D01*
X119196498Y-115729212D01*
X119082295Y-115728163D01*
X118996189Y-115726141D01*
X118933432Y-115722826D01*
X118889279Y-115717897D01*
X118858983Y-115711036D01*
X118837800Y-115701923D01*
X118820983Y-115690238D01*
X118810380Y-115681314D01*
X118765022Y-115616981D01*
X118752591Y-115539231D01*
X118773512Y-115461770D01*
X118802306Y-115421076D01*
X118850446Y-115369833D01*
X119518798Y-115370477D01*
X123731238Y-117486386D02*
X123585981Y-117485849D01*
X123585981Y-117485849D02*
X123473627Y-117484600D01*
X123473627Y-117484600D02*
X123389459Y-117482351D01*
X123389459Y-117482351D02*
X123328762Y-117478810D01*
X123328762Y-117478810D02*
X123286820Y-117473690D01*
X123286820Y-117473690D02*
X123258919Y-117466699D01*
X123258919Y-117466699D02*
X123240341Y-117457550D01*
X123240341Y-117457550D02*
X123226372Y-117445951D01*
X123226372Y-117445951D02*
X123224567Y-117444167D01*
X123224567Y-117444167D02*
X123193490Y-117406259D01*
X123193490Y-117406259D02*
X123182233Y-117380667D01*
X123182233Y-117380667D02*
X123161254Y-117374486D01*
X123161254Y-117374486D02*
X123099039Y-117369328D01*
X123099039Y-117369328D02*
X122996676Y-117365221D01*
X122996676Y-117365221D02*
X122855252Y-117362196D01*
X122855252Y-117362196D02*
X122675853Y-117360284D01*
X122675853Y-117360284D02*
X122459566Y-117359515D01*
X122459566Y-117359515D02*
X122421660Y-117359500D01*
X122421660Y-117359500D02*
X122222240Y-117359430D01*
X122222240Y-117359430D02*
X122061006Y-117359071D01*
X122061006Y-117359071D02*
X121933810Y-117358195D01*
X121933810Y-117358195D02*
X121836506Y-117356578D01*
X121836506Y-117356578D02*
X121764944Y-117353993D01*
X121764944Y-117353993D02*
X121714979Y-117350214D01*
X121714979Y-117350214D02*
X121682462Y-117345016D01*
X121682462Y-117345016D02*
X121663246Y-117338174D01*
X121663246Y-117338174D02*
X121653184Y-117329460D01*
X121653184Y-117329460D02*
X121648128Y-117318649D01*
X121648128Y-117318649D02*
X121647710Y-117317356D01*
X121647710Y-117317356D02*
X121642433Y-117273323D01*
X121642433Y-117273323D02*
X121647533Y-117253856D01*
X121647533Y-117253856D02*
X121672586Y-117247659D01*
X121672586Y-117247659D02*
X121738522Y-117242464D01*
X121738522Y-117242464D02*
X121843900Y-117238313D01*
X121843900Y-117238313D02*
X121987280Y-117235244D01*
X121987280Y-117235244D02*
X122167222Y-117233298D01*
X122167222Y-117233298D02*
X122382286Y-117232515D01*
X122382286Y-117232515D02*
X122419014Y-117232500D01*
X122419014Y-117232500D02*
X122618369Y-117232403D01*
X122618369Y-117232403D02*
X122779515Y-117231972D01*
X122779515Y-117231972D02*
X122906576Y-117230998D01*
X122906576Y-117230998D02*
X123003675Y-117229269D01*
X123003675Y-117229269D02*
X123074937Y-117226578D01*
X123074937Y-117226578D02*
X123124486Y-117222713D01*
X123124486Y-117222713D02*
X123156446Y-117217464D01*
X123156446Y-117217464D02*
X123174941Y-117210623D01*
X123174941Y-117210623D02*
X123184094Y-117201979D01*
X123184094Y-117201979D02*
X123187522Y-117193395D01*
X123187522Y-117193395D02*
X123218087Y-117159354D01*
X123218087Y-117159354D02*
X123279949Y-117140711D01*
X123279949Y-117140711D02*
X123321861Y-117137372D01*
X123321861Y-117137372D02*
X123398723Y-117134661D01*
X123398723Y-117134661D02*
X123503629Y-117132576D01*
X123503629Y-117132576D02*
X123629675Y-117131109D01*
X123629675Y-117131109D02*
X123769953Y-117130256D01*
X123769953Y-117130256D02*
X123917558Y-117130011D01*
X123917558Y-117130011D02*
X124065584Y-117130369D01*
X124065584Y-117130369D02*
X124207125Y-117131325D01*
X124207125Y-117131325D02*
X124335276Y-117132873D01*
X124335276Y-117132873D02*
X124443129Y-117135009D01*
X124443129Y-117135009D02*
X124523780Y-117137725D01*
X124523780Y-117137725D02*
X124570323Y-117141019D01*
X124570323Y-117141019D02*
X124574748Y-117141710D01*
X124574748Y-117141710D02*
X124624659Y-117166240D01*
X124624659Y-117166240D02*
X124648631Y-117191745D01*
X124648631Y-117191745D02*
X124657022Y-117202480D01*
X124657022Y-117202480D02*
X124670219Y-117211147D01*
X124670219Y-117211147D02*
X124692451Y-117217966D01*
X124692451Y-117217966D02*
X124727945Y-117223157D01*
X124727945Y-117223157D02*
X124780928Y-117226942D01*
X124780928Y-117226942D02*
X124855629Y-117229541D01*
X124855629Y-117229541D02*
X124956275Y-117231175D01*
X124956275Y-117231175D02*
X125087094Y-117232066D01*
X125087094Y-117232066D02*
X125252313Y-117232434D01*
X125252313Y-117232434D02*
X125428727Y-117232500D01*
X125428727Y-117232500D02*
X125628831Y-117232655D01*
X125628831Y-117232655D02*
X125790686Y-117233243D01*
X125790686Y-117233243D02*
X125918374Y-117234445D01*
X125918374Y-117234445D02*
X126015978Y-117236446D01*
X126015978Y-117236446D02*
X126087582Y-117239429D01*
X126087582Y-117239429D02*
X126137268Y-117243576D01*
X126137268Y-117243576D02*
X126169119Y-117249071D01*
X126169119Y-117249071D02*
X126187219Y-117256097D01*
X126187219Y-117256097D02*
X126195650Y-117264837D01*
X126195650Y-117264837D02*
X126196584Y-117266933D01*
X126196584Y-117266933D02*
X126204021Y-117290548D01*
X126204021Y-117290548D02*
X126203899Y-117309769D01*
X126203899Y-117309769D02*
X126192457Y-117325047D01*
X126192457Y-117325047D02*
X126165935Y-117336833D01*
X126165935Y-117336833D02*
X126120573Y-117345579D01*
X126120573Y-117345579D02*
X126052609Y-117351736D01*
X126052609Y-117351736D02*
X125958283Y-117355755D01*
X125958283Y-117355755D02*
X125833834Y-117358086D01*
X125833834Y-117358086D02*
X125675502Y-117359182D01*
X125675502Y-117359182D02*
X125479526Y-117359492D01*
X125479526Y-117359492D02*
X125424937Y-117359500D01*
X125424937Y-117359500D02*
X124688323Y-117359500D01*
X124688323Y-117359500D02*
X124561323Y-117486500D01*
X124561323Y-117486500D02*
X123914112Y-117486500D01*
X123914112Y-117486500D02*
X123731238Y-117486386D01*
X123731238Y-117486386D02*
X123731238Y-117486386D01*
G36*
X124065584Y-117130369D02*
G01*
X124207125Y-117131325D01*
X124335276Y-117132873D01*
X124443129Y-117135009D01*
X124523780Y-117137725D01*
X124570323Y-117141019D01*
X124574748Y-117141710D01*
X124624659Y-117166240D01*
X124648631Y-117191745D01*
X124657022Y-117202480D01*
X124670219Y-117211147D01*
X124692451Y-117217966D01*
X124727945Y-117223157D01*
X124780928Y-117226942D01*
X124855629Y-117229541D01*
X124956275Y-117231175D01*
X125087094Y-117232066D01*
X125252313Y-117232434D01*
X125428727Y-117232500D01*
X125628831Y-117232655D01*
X125790686Y-117233243D01*
X125918374Y-117234445D01*
X126015978Y-117236446D01*
X126087582Y-117239429D01*
X126137268Y-117243576D01*
X126169119Y-117249071D01*
X126187219Y-117256097D01*
X126195650Y-117264837D01*
X126196584Y-117266933D01*
X126204021Y-117290548D01*
X126203899Y-117309769D01*
X126192457Y-117325047D01*
X126165935Y-117336833D01*
X126120573Y-117345579D01*
X126052609Y-117351736D01*
X125958283Y-117355755D01*
X125833834Y-117358086D01*
X125675502Y-117359182D01*
X125479526Y-117359492D01*
X125424937Y-117359500D01*
X124688323Y-117359500D01*
X124561323Y-117486500D01*
X123914112Y-117486500D01*
X123731238Y-117486386D01*
X123585981Y-117485849D01*
X123473627Y-117484600D01*
X123389459Y-117482351D01*
X123328762Y-117478810D01*
X123286820Y-117473690D01*
X123258919Y-117466699D01*
X123240341Y-117457550D01*
X123226372Y-117445951D01*
X123224567Y-117444167D01*
X123193490Y-117406259D01*
X123182233Y-117380667D01*
X123161254Y-117374486D01*
X123099039Y-117369328D01*
X122996676Y-117365221D01*
X122855252Y-117362196D01*
X122675853Y-117360284D01*
X122459566Y-117359515D01*
X122421660Y-117359500D01*
X122222240Y-117359430D01*
X122061006Y-117359071D01*
X121933810Y-117358195D01*
X121836506Y-117356578D01*
X121764944Y-117353993D01*
X121714979Y-117350214D01*
X121682462Y-117345016D01*
X121663246Y-117338174D01*
X121653184Y-117329460D01*
X121648128Y-117318649D01*
X121647710Y-117317356D01*
X121642433Y-117273323D01*
X121647533Y-117253856D01*
X121672586Y-117247659D01*
X121738522Y-117242464D01*
X121843900Y-117238313D01*
X121987280Y-117235244D01*
X122167222Y-117233298D01*
X122382286Y-117232515D01*
X122419014Y-117232500D01*
X122618369Y-117232403D01*
X122779515Y-117231972D01*
X122906576Y-117230998D01*
X123003675Y-117229269D01*
X123074937Y-117226578D01*
X123124486Y-117222713D01*
X123156446Y-117217464D01*
X123174941Y-117210623D01*
X123184094Y-117201979D01*
X123187522Y-117193395D01*
X123218087Y-117159354D01*
X123279949Y-117140711D01*
X123321861Y-117137372D01*
X123398723Y-117134661D01*
X123503629Y-117132576D01*
X123629675Y-117131109D01*
X123769953Y-117130256D01*
X123917558Y-117130011D01*
X124065584Y-117130369D01*
G37*
X124065584Y-117130369D02*
X124207125Y-117131325D01*
X124335276Y-117132873D01*
X124443129Y-117135009D01*
X124523780Y-117137725D01*
X124570323Y-117141019D01*
X124574748Y-117141710D01*
X124624659Y-117166240D01*
X124648631Y-117191745D01*
X124657022Y-117202480D01*
X124670219Y-117211147D01*
X124692451Y-117217966D01*
X124727945Y-117223157D01*
X124780928Y-117226942D01*
X124855629Y-117229541D01*
X124956275Y-117231175D01*
X125087094Y-117232066D01*
X125252313Y-117232434D01*
X125428727Y-117232500D01*
X125628831Y-117232655D01*
X125790686Y-117233243D01*
X125918374Y-117234445D01*
X126015978Y-117236446D01*
X126087582Y-117239429D01*
X126137268Y-117243576D01*
X126169119Y-117249071D01*
X126187219Y-117256097D01*
X126195650Y-117264837D01*
X126196584Y-117266933D01*
X126204021Y-117290548D01*
X126203899Y-117309769D01*
X126192457Y-117325047D01*
X126165935Y-117336833D01*
X126120573Y-117345579D01*
X126052609Y-117351736D01*
X125958283Y-117355755D01*
X125833834Y-117358086D01*
X125675502Y-117359182D01*
X125479526Y-117359492D01*
X125424937Y-117359500D01*
X124688323Y-117359500D01*
X124561323Y-117486500D01*
X123914112Y-117486500D01*
X123731238Y-117486386D01*
X123585981Y-117485849D01*
X123473627Y-117484600D01*
X123389459Y-117482351D01*
X123328762Y-117478810D01*
X123286820Y-117473690D01*
X123258919Y-117466699D01*
X123240341Y-117457550D01*
X123226372Y-117445951D01*
X123224567Y-117444167D01*
X123193490Y-117406259D01*
X123182233Y-117380667D01*
X123161254Y-117374486D01*
X123099039Y-117369328D01*
X122996676Y-117365221D01*
X122855252Y-117362196D01*
X122675853Y-117360284D01*
X122459566Y-117359515D01*
X122421660Y-117359500D01*
X122222240Y-117359430D01*
X122061006Y-117359071D01*
X121933810Y-117358195D01*
X121836506Y-117356578D01*
X121764944Y-117353993D01*
X121714979Y-117350214D01*
X121682462Y-117345016D01*
X121663246Y-117338174D01*
X121653184Y-117329460D01*
X121648128Y-117318649D01*
X121647710Y-117317356D01*
X121642433Y-117273323D01*
X121647533Y-117253856D01*
X121672586Y-117247659D01*
X121738522Y-117242464D01*
X121843900Y-117238313D01*
X121987280Y-117235244D01*
X122167222Y-117233298D01*
X122382286Y-117232515D01*
X122419014Y-117232500D01*
X122618369Y-117232403D01*
X122779515Y-117231972D01*
X122906576Y-117230998D01*
X123003675Y-117229269D01*
X123074937Y-117226578D01*
X123124486Y-117222713D01*
X123156446Y-117217464D01*
X123174941Y-117210623D01*
X123184094Y-117201979D01*
X123187522Y-117193395D01*
X123218087Y-117159354D01*
X123279949Y-117140711D01*
X123321861Y-117137372D01*
X123398723Y-117134661D01*
X123503629Y-117132576D01*
X123629675Y-117131109D01*
X123769953Y-117130256D01*
X123917558Y-117130011D01*
X124065584Y-117130369D01*
X119098992Y-115303144D02*
X119010486Y-115300975D01*
X119010486Y-115300975D02*
X118945384Y-115297219D01*
X118945384Y-115297219D02*
X118898955Y-115291698D01*
X118898955Y-115291698D02*
X118866470Y-115284233D01*
X118866470Y-115284233D02*
X118844245Y-115275193D01*
X118844245Y-115275193D02*
X118786809Y-115223559D01*
X118786809Y-115223559D02*
X118756698Y-115149410D01*
X118756698Y-115149410D02*
X118758556Y-115065975D01*
X118758556Y-115065975D02*
X118764045Y-115046711D01*
X118764045Y-115046711D02*
X118776103Y-115014130D01*
X118776103Y-115014130D02*
X118790743Y-114987972D01*
X118790743Y-114987972D02*
X118812394Y-114967532D01*
X118812394Y-114967532D02*
X118845487Y-114952105D01*
X118845487Y-114952105D02*
X118894452Y-114940985D01*
X118894452Y-114940985D02*
X118963717Y-114933469D01*
X118963717Y-114933469D02*
X119057713Y-114928851D01*
X119057713Y-114928851D02*
X119180870Y-114926425D01*
X119180870Y-114926425D02*
X119337616Y-114925488D01*
X119337616Y-114925488D02*
X119526738Y-114925333D01*
X119526738Y-114925333D02*
X120179823Y-114925333D01*
X120179823Y-114925333D02*
X120244305Y-114989815D01*
X120244305Y-114989815D02*
X120285577Y-115037584D01*
X120285577Y-115037584D02*
X120300149Y-115080046D01*
X120300149Y-115080046D02*
X120296271Y-115131425D01*
X120296271Y-115131425D02*
X120275725Y-115196327D01*
X120275725Y-115196327D02*
X120242783Y-115249440D01*
X120242783Y-115249440D02*
X120240185Y-115252151D01*
X120240185Y-115252151D02*
X120226179Y-115264500D01*
X120226179Y-115264500D02*
X120208420Y-115274337D01*
X120208420Y-115274337D02*
X120182174Y-115282005D01*
X120182174Y-115282005D02*
X120142702Y-115287845D01*
X120142702Y-115287845D02*
X120085269Y-115292202D01*
X120085269Y-115292202D02*
X120005137Y-115295416D01*
X120005137Y-115295416D02*
X119897570Y-115297833D01*
X119897570Y-115297833D02*
X119757831Y-115299792D01*
X119757831Y-115299792D02*
X119581182Y-115301639D01*
X119581182Y-115301639D02*
X119552233Y-115301917D01*
X119552233Y-115301917D02*
X119365135Y-115303437D01*
X119365135Y-115303437D02*
X119215632Y-115303906D01*
X119215632Y-115303906D02*
X119098992Y-115303144D01*
X119098992Y-115303144D02*
X119098992Y-115303144D01*
G36*
X120244305Y-114989815D02*
G01*
X120285577Y-115037584D01*
X120300149Y-115080046D01*
X120296271Y-115131425D01*
X120275725Y-115196327D01*
X120242783Y-115249440D01*
X120240185Y-115252151D01*
X120226179Y-115264500D01*
X120208420Y-115274337D01*
X120182174Y-115282005D01*
X120142702Y-115287845D01*
X120085269Y-115292202D01*
X120005137Y-115295416D01*
X119897570Y-115297833D01*
X119757831Y-115299792D01*
X119581182Y-115301639D01*
X119552233Y-115301917D01*
X119365135Y-115303437D01*
X119215632Y-115303906D01*
X119098992Y-115303144D01*
X119010486Y-115300975D01*
X118945384Y-115297219D01*
X118898955Y-115291698D01*
X118866470Y-115284233D01*
X118844245Y-115275193D01*
X118786809Y-115223559D01*
X118756698Y-115149410D01*
X118758556Y-115065975D01*
X118764045Y-115046711D01*
X118776103Y-115014130D01*
X118790743Y-114987972D01*
X118812394Y-114967532D01*
X118845487Y-114952105D01*
X118894452Y-114940985D01*
X118963717Y-114933469D01*
X119057713Y-114928851D01*
X119180870Y-114926425D01*
X119337616Y-114925488D01*
X119526738Y-114925333D01*
X120179823Y-114925333D01*
X120244305Y-114989815D01*
G37*
X120244305Y-114989815D02*
X120285577Y-115037584D01*
X120300149Y-115080046D01*
X120296271Y-115131425D01*
X120275725Y-115196327D01*
X120242783Y-115249440D01*
X120240185Y-115252151D01*
X120226179Y-115264500D01*
X120208420Y-115274337D01*
X120182174Y-115282005D01*
X120142702Y-115287845D01*
X120085269Y-115292202D01*
X120005137Y-115295416D01*
X119897570Y-115297833D01*
X119757831Y-115299792D01*
X119581182Y-115301639D01*
X119552233Y-115301917D01*
X119365135Y-115303437D01*
X119215632Y-115303906D01*
X119098992Y-115303144D01*
X119010486Y-115300975D01*
X118945384Y-115297219D01*
X118898955Y-115291698D01*
X118866470Y-115284233D01*
X118844245Y-115275193D01*
X118786809Y-115223559D01*
X118756698Y-115149410D01*
X118758556Y-115065975D01*
X118764045Y-115046711D01*
X118776103Y-115014130D01*
X118790743Y-114987972D01*
X118812394Y-114967532D01*
X118845487Y-114952105D01*
X118894452Y-114940985D01*
X118963717Y-114933469D01*
X119057713Y-114928851D01*
X119180870Y-114926425D01*
X119337616Y-114925488D01*
X119526738Y-114925333D01*
X120179823Y-114925333D01*
X120244305Y-114989815D01*
X123190870Y-114364417D02*
X123156198Y-114311500D01*
X123156198Y-114311500D02*
X122420391Y-114311500D01*
X122420391Y-114311500D02*
X122221887Y-114311312D01*
X122221887Y-114311312D02*
X122061529Y-114310624D01*
X122061529Y-114310624D02*
X121935132Y-114309254D01*
X121935132Y-114309254D02*
X121838510Y-114307016D01*
X121838510Y-114307016D02*
X121767478Y-114303728D01*
X121767478Y-114303728D02*
X121717850Y-114299206D01*
X121717850Y-114299206D02*
X121685440Y-114293266D01*
X121685440Y-114293266D02*
X121666062Y-114285724D01*
X121666062Y-114285724D02*
X121656761Y-114277976D01*
X121656761Y-114277976D02*
X121640373Y-114237277D01*
X121640373Y-114237277D02*
X121651177Y-114209184D01*
X121651177Y-114209184D02*
X121660552Y-114199728D01*
X121660552Y-114199728D02*
X121678336Y-114192028D01*
X121678336Y-114192028D02*
X121708706Y-114185862D01*
X121708706Y-114185862D02*
X121755842Y-114181005D01*
X121755842Y-114181005D02*
X121823922Y-114177235D01*
X121823922Y-114177235D02*
X121917125Y-114174328D01*
X121917125Y-114174328D02*
X122039628Y-114172061D01*
X122039628Y-114172061D02*
X122195611Y-114170210D01*
X122195611Y-114170210D02*
X122389252Y-114168552D01*
X122389252Y-114168552D02*
X122414983Y-114168357D01*
X122414983Y-114168357D02*
X123156550Y-114162797D01*
X123156550Y-114162797D02*
X123191046Y-114110149D01*
X123191046Y-114110149D02*
X123225543Y-114057500D01*
X123225543Y-114057500D02*
X124599424Y-114057500D01*
X124599424Y-114057500D02*
X124634097Y-114110417D01*
X124634097Y-114110417D02*
X124668769Y-114163333D01*
X124668769Y-114163333D02*
X125405656Y-114163333D01*
X125405656Y-114163333D02*
X125604816Y-114163532D01*
X125604816Y-114163532D02*
X125765842Y-114164249D01*
X125765842Y-114164249D02*
X125892934Y-114165665D01*
X125892934Y-114165665D02*
X125990290Y-114167962D01*
X125990290Y-114167962D02*
X126062109Y-114171320D01*
X126062109Y-114171320D02*
X126112591Y-114175920D01*
X126112591Y-114175920D02*
X126145932Y-114181945D01*
X126145932Y-114181945D02*
X126166333Y-114189574D01*
X126166333Y-114189574D02*
X126175763Y-114196553D01*
X126175763Y-114196553D02*
X126197406Y-114234901D01*
X126197406Y-114234901D02*
X126187113Y-114270637D01*
X126187113Y-114270637D02*
X126179673Y-114281478D01*
X126179673Y-114281478D02*
X126167335Y-114290213D01*
X126167335Y-114290213D02*
X126145854Y-114297069D01*
X126145854Y-114297069D02*
X126110987Y-114302272D01*
X126110987Y-114302272D02*
X126058488Y-114306050D01*
X126058488Y-114306050D02*
X125984112Y-114308629D01*
X125984112Y-114308629D02*
X125883615Y-114310236D01*
X125883615Y-114310236D02*
X125752753Y-114311099D01*
X125752753Y-114311099D02*
X125587280Y-114311444D01*
X125587280Y-114311444D02*
X125422910Y-114311500D01*
X125422910Y-114311500D02*
X124680576Y-114311500D01*
X124680576Y-114311500D02*
X124638952Y-114364417D01*
X124638952Y-114364417D02*
X124597328Y-114417333D01*
X124597328Y-114417333D02*
X123225543Y-114417333D01*
X123225543Y-114417333D02*
X123190870Y-114364417D01*
X123190870Y-114364417D02*
X123190870Y-114364417D01*
G36*
X124634097Y-114110417D02*
G01*
X124668769Y-114163333D01*
X125405656Y-114163333D01*
X125604816Y-114163532D01*
X125765842Y-114164249D01*
X125892934Y-114165665D01*
X125990290Y-114167962D01*
X126062109Y-114171320D01*
X126112591Y-114175920D01*
X126145932Y-114181945D01*
X126166333Y-114189574D01*
X126175763Y-114196553D01*
X126197406Y-114234901D01*
X126187113Y-114270637D01*
X126179673Y-114281478D01*
X126167335Y-114290213D01*
X126145854Y-114297069D01*
X126110987Y-114302272D01*
X126058488Y-114306050D01*
X125984112Y-114308629D01*
X125883615Y-114310236D01*
X125752753Y-114311099D01*
X125587280Y-114311444D01*
X125422910Y-114311500D01*
X124680576Y-114311500D01*
X124638952Y-114364417D01*
X124597328Y-114417333D01*
X123225543Y-114417333D01*
X123190870Y-114364417D01*
X123156198Y-114311500D01*
X122420391Y-114311500D01*
X122221887Y-114311312D01*
X122061529Y-114310624D01*
X121935132Y-114309254D01*
X121838510Y-114307016D01*
X121767478Y-114303728D01*
X121717850Y-114299206D01*
X121685440Y-114293266D01*
X121666062Y-114285724D01*
X121656761Y-114277976D01*
X121640373Y-114237277D01*
X121651177Y-114209184D01*
X121660552Y-114199728D01*
X121678336Y-114192028D01*
X121708706Y-114185862D01*
X121755842Y-114181005D01*
X121823922Y-114177235D01*
X121917125Y-114174328D01*
X122039628Y-114172061D01*
X122195611Y-114170210D01*
X122389252Y-114168552D01*
X122414983Y-114168357D01*
X123156550Y-114162797D01*
X123191046Y-114110149D01*
X123225543Y-114057500D01*
X124599424Y-114057500D01*
X124634097Y-114110417D01*
G37*
X124634097Y-114110417D02*
X124668769Y-114163333D01*
X125405656Y-114163333D01*
X125604816Y-114163532D01*
X125765842Y-114164249D01*
X125892934Y-114165665D01*
X125990290Y-114167962D01*
X126062109Y-114171320D01*
X126112591Y-114175920D01*
X126145932Y-114181945D01*
X126166333Y-114189574D01*
X126175763Y-114196553D01*
X126197406Y-114234901D01*
X126187113Y-114270637D01*
X126179673Y-114281478D01*
X126167335Y-114290213D01*
X126145854Y-114297069D01*
X126110987Y-114302272D01*
X126058488Y-114306050D01*
X125984112Y-114308629D01*
X125883615Y-114310236D01*
X125752753Y-114311099D01*
X125587280Y-114311444D01*
X125422910Y-114311500D01*
X124680576Y-114311500D01*
X124638952Y-114364417D01*
X124597328Y-114417333D01*
X123225543Y-114417333D01*
X123190870Y-114364417D01*
X123156198Y-114311500D01*
X122420391Y-114311500D01*
X122221887Y-114311312D01*
X122061529Y-114310624D01*
X121935132Y-114309254D01*
X121838510Y-114307016D01*
X121767478Y-114303728D01*
X121717850Y-114299206D01*
X121685440Y-114293266D01*
X121666062Y-114285724D01*
X121656761Y-114277976D01*
X121640373Y-114237277D01*
X121651177Y-114209184D01*
X121660552Y-114199728D01*
X121678336Y-114192028D01*
X121708706Y-114185862D01*
X121755842Y-114181005D01*
X121823922Y-114177235D01*
X121917125Y-114174328D01*
X122039628Y-114172061D01*
X122195611Y-114170210D01*
X122389252Y-114168552D01*
X122414983Y-114168357D01*
X123156550Y-114162797D01*
X123191046Y-114110149D01*
X123225543Y-114057500D01*
X124599424Y-114057500D01*
X124634097Y-114110417D01*
X123565031Y-116936102D02*
X123244483Y-116935888D01*
X123244483Y-116935888D02*
X122961642Y-116935493D01*
X122961642Y-116935493D02*
X122714198Y-116934886D01*
X122714198Y-116934886D02*
X122499837Y-116934036D01*
X122499837Y-116934036D02*
X122316247Y-116932911D01*
X122316247Y-116932911D02*
X122161115Y-116931480D01*
X122161115Y-116931480D02*
X122032130Y-116929712D01*
X122032130Y-116929712D02*
X121926978Y-116927575D01*
X121926978Y-116927575D02*
X121843347Y-116925039D01*
X121843347Y-116925039D02*
X121778925Y-116922073D01*
X121778925Y-116922073D02*
X121731399Y-116918644D01*
X121731399Y-116918644D02*
X121698457Y-116914721D01*
X121698457Y-116914721D02*
X121677787Y-116910274D01*
X121677787Y-116910274D02*
X121667571Y-116905657D01*
X121667571Y-116905657D02*
X121639825Y-116875139D01*
X121639825Y-116875139D02*
X121647299Y-116841349D01*
X121647299Y-116841349D02*
X121649956Y-116836865D01*
X121649956Y-116836865D02*
X121655181Y-116830769D01*
X121655181Y-116830769D02*
X121664543Y-116825344D01*
X121664543Y-116825344D02*
X121680434Y-116820544D01*
X121680434Y-116820544D02*
X121705242Y-116816322D01*
X121705242Y-116816322D02*
X121741359Y-116812633D01*
X121741359Y-116812633D02*
X121791174Y-116809431D01*
X121791174Y-116809431D02*
X121857078Y-116806669D01*
X121857078Y-116806669D02*
X121941461Y-116804303D01*
X121941461Y-116804303D02*
X122046713Y-116802285D01*
X122046713Y-116802285D02*
X122175224Y-116800570D01*
X122175224Y-116800570D02*
X122329385Y-116799111D01*
X122329385Y-116799111D02*
X122511586Y-116797864D01*
X122511586Y-116797864D02*
X122724216Y-116796781D01*
X122724216Y-116796781D02*
X122969667Y-116795817D01*
X122969667Y-116795817D02*
X123250328Y-116794926D01*
X123250328Y-116794926D02*
X123568590Y-116794061D01*
X123568590Y-116794061D02*
X123919285Y-116793196D01*
X123919285Y-116793196D02*
X124276269Y-116792354D01*
X124276269Y-116792354D02*
X124593316Y-116791668D01*
X124593316Y-116791668D02*
X124872819Y-116791174D01*
X124872819Y-116791174D02*
X125117175Y-116790910D01*
X125117175Y-116790910D02*
X125328778Y-116790913D01*
X125328778Y-116790913D02*
X125510024Y-116791222D01*
X125510024Y-116791222D02*
X125663308Y-116791873D01*
X125663308Y-116791873D02*
X125791025Y-116792905D01*
X125791025Y-116792905D02*
X125895570Y-116794355D01*
X125895570Y-116794355D02*
X125979339Y-116796259D01*
X125979339Y-116796259D02*
X126044726Y-116798657D01*
X126044726Y-116798657D02*
X126094126Y-116801586D01*
X126094126Y-116801586D02*
X126129936Y-116805082D01*
X126129936Y-116805082D02*
X126154549Y-116809185D01*
X126154549Y-116809185D02*
X126170362Y-116813930D01*
X126170362Y-116813930D02*
X126179769Y-116819357D01*
X126179769Y-116819357D02*
X126185166Y-116825501D01*
X126185166Y-116825501D02*
X126187062Y-116828767D01*
X126187062Y-116828767D02*
X126196379Y-116871412D01*
X126196379Y-116871412D02*
X126175763Y-116902947D01*
X126175763Y-116902947D02*
X126167228Y-116908301D01*
X126167228Y-116908301D02*
X126151374Y-116913055D01*
X126151374Y-116913055D02*
X126125829Y-116917243D01*
X126125829Y-116917243D02*
X126088218Y-116920901D01*
X126088218Y-116920901D02*
X126036170Y-116924063D01*
X126036170Y-116924063D02*
X125967312Y-116926765D01*
X125967312Y-116926765D02*
X125879270Y-116929041D01*
X125879270Y-116929041D02*
X125769672Y-116930927D01*
X125769672Y-116930927D02*
X125636146Y-116932457D01*
X125636146Y-116932457D02*
X125476317Y-116933668D01*
X125476317Y-116933668D02*
X125287813Y-116934593D01*
X125287813Y-116934593D02*
X125068262Y-116935267D01*
X125068262Y-116935267D02*
X124815291Y-116935727D01*
X124815291Y-116935727D02*
X124526526Y-116936006D01*
X124526526Y-116936006D02*
X124199595Y-116936140D01*
X124199595Y-116936140D02*
X123925601Y-116936167D01*
X123925601Y-116936167D02*
X123565031Y-116936102D01*
X123565031Y-116936102D02*
X123565031Y-116936102D01*
G36*
X125328778Y-116790913D02*
G01*
X125510024Y-116791222D01*
X125663308Y-116791873D01*
X125791025Y-116792905D01*
X125895570Y-116794355D01*
X125979339Y-116796259D01*
X126044726Y-116798657D01*
X126094126Y-116801586D01*
X126129936Y-116805082D01*
X126154549Y-116809185D01*
X126170362Y-116813930D01*
X126179769Y-116819357D01*
X126185166Y-116825501D01*
X126187062Y-116828767D01*
X126196379Y-116871412D01*
X126175763Y-116902947D01*
X126167228Y-116908301D01*
X126151374Y-116913055D01*
X126125829Y-116917243D01*
X126088218Y-116920901D01*
X126036170Y-116924063D01*
X125967312Y-116926765D01*
X125879270Y-116929041D01*
X125769672Y-116930927D01*
X125636146Y-116932457D01*
X125476317Y-116933668D01*
X125287813Y-116934593D01*
X125068262Y-116935267D01*
X124815291Y-116935727D01*
X124526526Y-116936006D01*
X124199595Y-116936140D01*
X123925601Y-116936167D01*
X123565031Y-116936102D01*
X123244483Y-116935888D01*
X122961642Y-116935493D01*
X122714198Y-116934886D01*
X122499837Y-116934036D01*
X122316247Y-116932911D01*
X122161115Y-116931480D01*
X122032130Y-116929712D01*
X121926978Y-116927575D01*
X121843347Y-116925039D01*
X121778925Y-116922073D01*
X121731399Y-116918644D01*
X121698457Y-116914721D01*
X121677787Y-116910274D01*
X121667571Y-116905657D01*
X121639825Y-116875139D01*
X121647299Y-116841349D01*
X121649956Y-116836865D01*
X121655181Y-116830769D01*
X121664543Y-116825344D01*
X121680434Y-116820544D01*
X121705242Y-116816322D01*
X121741359Y-116812633D01*
X121791174Y-116809431D01*
X121857078Y-116806669D01*
X121941461Y-116804303D01*
X122046713Y-116802285D01*
X122175224Y-116800570D01*
X122329385Y-116799111D01*
X122511586Y-116797864D01*
X122724216Y-116796781D01*
X122969667Y-116795817D01*
X123250328Y-116794926D01*
X123568590Y-116794061D01*
X123919285Y-116793196D01*
X124276269Y-116792354D01*
X124593316Y-116791668D01*
X124872819Y-116791174D01*
X125117175Y-116790910D01*
X125328778Y-116790913D01*
G37*
X125328778Y-116790913D02*
X125510024Y-116791222D01*
X125663308Y-116791873D01*
X125791025Y-116792905D01*
X125895570Y-116794355D01*
X125979339Y-116796259D01*
X126044726Y-116798657D01*
X126094126Y-116801586D01*
X126129936Y-116805082D01*
X126154549Y-116809185D01*
X126170362Y-116813930D01*
X126179769Y-116819357D01*
X126185166Y-116825501D01*
X126187062Y-116828767D01*
X126196379Y-116871412D01*
X126175763Y-116902947D01*
X126167228Y-116908301D01*
X126151374Y-116913055D01*
X126125829Y-116917243D01*
X126088218Y-116920901D01*
X126036170Y-116924063D01*
X125967312Y-116926765D01*
X125879270Y-116929041D01*
X125769672Y-116930927D01*
X125636146Y-116932457D01*
X125476317Y-116933668D01*
X125287813Y-116934593D01*
X125068262Y-116935267D01*
X124815291Y-116935727D01*
X124526526Y-116936006D01*
X124199595Y-116936140D01*
X123925601Y-116936167D01*
X123565031Y-116936102D01*
X123244483Y-116935888D01*
X122961642Y-116935493D01*
X122714198Y-116934886D01*
X122499837Y-116934036D01*
X122316247Y-116932911D01*
X122161115Y-116931480D01*
X122032130Y-116929712D01*
X121926978Y-116927575D01*
X121843347Y-116925039D01*
X121778925Y-116922073D01*
X121731399Y-116918644D01*
X121698457Y-116914721D01*
X121677787Y-116910274D01*
X121667571Y-116905657D01*
X121639825Y-116875139D01*
X121647299Y-116841349D01*
X121649956Y-116836865D01*
X121655181Y-116830769D01*
X121664543Y-116825344D01*
X121680434Y-116820544D01*
X121705242Y-116816322D01*
X121741359Y-116812633D01*
X121791174Y-116809431D01*
X121857078Y-116806669D01*
X121941461Y-116804303D01*
X122046713Y-116802285D01*
X122175224Y-116800570D01*
X122329385Y-116799111D01*
X122511586Y-116797864D01*
X122724216Y-116796781D01*
X122969667Y-116795817D01*
X123250328Y-116794926D01*
X123568590Y-116794061D01*
X123919285Y-116793196D01*
X124276269Y-116792354D01*
X124593316Y-116791668D01*
X124872819Y-116791174D01*
X125117175Y-116790910D01*
X125328778Y-116790913D01*
X124996144Y-116488653D02*
X124734068Y-116488266D01*
X124734068Y-116488266D02*
X124435617Y-116487669D01*
X124435617Y-116487669D02*
X124098395Y-116486898D01*
X124098395Y-116486898D02*
X123919285Y-116486471D01*
X123919285Y-116486471D02*
X123561854Y-116485588D01*
X123561854Y-116485588D02*
X123244366Y-116484724D01*
X123244366Y-116484724D02*
X122964431Y-116483832D01*
X122964431Y-116483832D02*
X122719659Y-116482866D01*
X122719659Y-116482866D02*
X122507659Y-116481780D01*
X122507659Y-116481780D02*
X122326042Y-116480529D01*
X122326042Y-116480529D02*
X122172416Y-116479066D01*
X122172416Y-116479066D02*
X122044393Y-116477345D01*
X122044393Y-116477345D02*
X121939581Y-116475321D01*
X121939581Y-116475321D02*
X121855590Y-116472946D01*
X121855590Y-116472946D02*
X121790031Y-116470177D01*
X121790031Y-116470177D02*
X121740512Y-116466965D01*
X121740512Y-116466965D02*
X121704645Y-116463266D01*
X121704645Y-116463266D02*
X121680037Y-116459033D01*
X121680037Y-116459033D02*
X121664301Y-116454221D01*
X121664301Y-116454221D02*
X121655044Y-116448783D01*
X121655044Y-116448783D02*
X121649956Y-116442802D01*
X121649956Y-116442802D02*
X121639031Y-116407630D01*
X121639031Y-116407630D02*
X121662845Y-116377606D01*
X121662845Y-116377606D02*
X121667571Y-116374010D01*
X121667571Y-116374010D02*
X121678932Y-116369049D01*
X121678932Y-116369049D02*
X121700420Y-116364642D01*
X121700420Y-116364642D02*
X121734349Y-116360757D01*
X121734349Y-116360757D02*
X121783031Y-116357362D01*
X121783031Y-116357362D02*
X121848778Y-116354428D01*
X121848778Y-116354428D02*
X121933903Y-116351922D01*
X121933903Y-116351922D02*
X122040718Y-116349814D01*
X122040718Y-116349814D02*
X122171535Y-116348072D01*
X122171535Y-116348072D02*
X122328667Y-116346664D01*
X122328667Y-116346664D02*
X122514427Y-116345560D01*
X122514427Y-116345560D02*
X122731127Y-116344728D01*
X122731127Y-116344728D02*
X122981079Y-116344138D01*
X122981079Y-116344138D02*
X123266595Y-116343757D01*
X123266595Y-116343757D02*
X123589989Y-116343555D01*
X123589989Y-116343555D02*
X123925601Y-116343500D01*
X123925601Y-116343500D02*
X124282966Y-116343548D01*
X124282966Y-116343548D02*
X124600371Y-116343714D01*
X124600371Y-116343714D02*
X124880189Y-116344034D01*
X124880189Y-116344034D02*
X125124792Y-116344543D01*
X125124792Y-116344543D02*
X125336553Y-116345275D01*
X125336553Y-116345275D02*
X125517845Y-116346267D01*
X125517845Y-116346267D02*
X125671041Y-116347552D01*
X125671041Y-116347552D02*
X125798514Y-116349166D01*
X125798514Y-116349166D02*
X125902637Y-116351144D01*
X125902637Y-116351144D02*
X125985782Y-116353521D01*
X125985782Y-116353521D02*
X126050322Y-116356332D01*
X126050322Y-116356332D02*
X126098630Y-116359611D01*
X126098630Y-116359611D02*
X126133080Y-116363395D01*
X126133080Y-116363395D02*
X126156043Y-116367718D01*
X126156043Y-116367718D02*
X126169894Y-116372615D01*
X126169894Y-116372615D02*
X126175763Y-116376720D01*
X126175763Y-116376720D02*
X126197409Y-116415019D01*
X126197409Y-116415019D02*
X126187062Y-116450900D01*
X126187062Y-116450900D02*
X126182752Y-116457408D01*
X126182752Y-116457408D02*
X126175598Y-116463180D01*
X126175598Y-116463180D02*
X126163206Y-116468252D01*
X126163206Y-116468252D02*
X126143181Y-116472663D01*
X126143181Y-116472663D02*
X126113127Y-116476450D01*
X126113127Y-116476450D02*
X126070649Y-116479651D01*
X126070649Y-116479651D02*
X126013352Y-116482303D01*
X126013352Y-116482303D02*
X125938840Y-116484443D01*
X125938840Y-116484443D02*
X125844720Y-116486110D01*
X125844720Y-116486110D02*
X125728594Y-116487341D01*
X125728594Y-116487341D02*
X125588069Y-116488173D01*
X125588069Y-116488173D02*
X125420749Y-116488644D01*
X125420749Y-116488644D02*
X125224239Y-116488791D01*
X125224239Y-116488791D02*
X124996144Y-116488653D01*
X124996144Y-116488653D02*
X124996144Y-116488653D01*
G36*
X124282966Y-116343548D02*
G01*
X124600371Y-116343714D01*
X124880189Y-116344034D01*
X125124792Y-116344543D01*
X125336553Y-116345275D01*
X125517845Y-116346267D01*
X125671041Y-116347552D01*
X125798514Y-116349166D01*
X125902637Y-116351144D01*
X125985782Y-116353521D01*
X126050322Y-116356332D01*
X126098630Y-116359611D01*
X126133080Y-116363395D01*
X126156043Y-116367718D01*
X126169894Y-116372615D01*
X126175763Y-116376720D01*
X126197409Y-116415019D01*
X126187062Y-116450900D01*
X126182752Y-116457408D01*
X126175598Y-116463180D01*
X126163206Y-116468252D01*
X126143181Y-116472663D01*
X126113127Y-116476450D01*
X126070649Y-116479651D01*
X126013352Y-116482303D01*
X125938840Y-116484443D01*
X125844720Y-116486110D01*
X125728594Y-116487341D01*
X125588069Y-116488173D01*
X125420749Y-116488644D01*
X125224239Y-116488791D01*
X124996144Y-116488653D01*
X124734068Y-116488266D01*
X124435617Y-116487669D01*
X124098395Y-116486898D01*
X123919285Y-116486471D01*
X123561854Y-116485588D01*
X123244366Y-116484724D01*
X122964431Y-116483832D01*
X122719659Y-116482866D01*
X122507659Y-116481780D01*
X122326042Y-116480529D01*
X122172416Y-116479066D01*
X122044393Y-116477345D01*
X121939581Y-116475321D01*
X121855590Y-116472946D01*
X121790031Y-116470177D01*
X121740512Y-116466965D01*
X121704645Y-116463266D01*
X121680037Y-116459033D01*
X121664301Y-116454221D01*
X121655044Y-116448783D01*
X121649956Y-116442802D01*
X121639031Y-116407630D01*
X121662845Y-116377606D01*
X121667571Y-116374010D01*
X121678932Y-116369049D01*
X121700420Y-116364642D01*
X121734349Y-116360757D01*
X121783031Y-116357362D01*
X121848778Y-116354428D01*
X121933903Y-116351922D01*
X122040718Y-116349814D01*
X122171535Y-116348072D01*
X122328667Y-116346664D01*
X122514427Y-116345560D01*
X122731127Y-116344728D01*
X122981079Y-116344138D01*
X123266595Y-116343757D01*
X123589989Y-116343555D01*
X123925601Y-116343500D01*
X124282966Y-116343548D01*
G37*
X124282966Y-116343548D02*
X124600371Y-116343714D01*
X124880189Y-116344034D01*
X125124792Y-116344543D01*
X125336553Y-116345275D01*
X125517845Y-116346267D01*
X125671041Y-116347552D01*
X125798514Y-116349166D01*
X125902637Y-116351144D01*
X125985782Y-116353521D01*
X126050322Y-116356332D01*
X126098630Y-116359611D01*
X126133080Y-116363395D01*
X126156043Y-116367718D01*
X126169894Y-116372615D01*
X126175763Y-116376720D01*
X126197409Y-116415019D01*
X126187062Y-116450900D01*
X126182752Y-116457408D01*
X126175598Y-116463180D01*
X126163206Y-116468252D01*
X126143181Y-116472663D01*
X126113127Y-116476450D01*
X126070649Y-116479651D01*
X126013352Y-116482303D01*
X125938840Y-116484443D01*
X125844720Y-116486110D01*
X125728594Y-116487341D01*
X125588069Y-116488173D01*
X125420749Y-116488644D01*
X125224239Y-116488791D01*
X124996144Y-116488653D01*
X124734068Y-116488266D01*
X124435617Y-116487669D01*
X124098395Y-116486898D01*
X123919285Y-116486471D01*
X123561854Y-116485588D01*
X123244366Y-116484724D01*
X122964431Y-116483832D01*
X122719659Y-116482866D01*
X122507659Y-116481780D01*
X122326042Y-116480529D01*
X122172416Y-116479066D01*
X122044393Y-116477345D01*
X121939581Y-116475321D01*
X121855590Y-116472946D01*
X121790031Y-116470177D01*
X121740512Y-116466965D01*
X121704645Y-116463266D01*
X121680037Y-116459033D01*
X121664301Y-116454221D01*
X121655044Y-116448783D01*
X121649956Y-116442802D01*
X121639031Y-116407630D01*
X121662845Y-116377606D01*
X121667571Y-116374010D01*
X121678932Y-116369049D01*
X121700420Y-116364642D01*
X121734349Y-116360757D01*
X121783031Y-116357362D01*
X121848778Y-116354428D01*
X121933903Y-116351922D01*
X122040718Y-116349814D01*
X122171535Y-116348072D01*
X122328667Y-116346664D01*
X122514427Y-116345560D01*
X122731127Y-116344728D01*
X122981079Y-116344138D01*
X123266595Y-116343757D01*
X123589989Y-116343555D01*
X123925601Y-116343500D01*
X124282966Y-116343548D01*
X119098992Y-117483311D02*
X119010486Y-117481142D01*
X119010486Y-117481142D02*
X118945384Y-117477386D01*
X118945384Y-117477386D02*
X118898955Y-117471864D01*
X118898955Y-117471864D02*
X118866470Y-117464399D01*
X118866470Y-117464399D02*
X118844245Y-117455359D01*
X118844245Y-117455359D02*
X118786809Y-117403726D01*
X118786809Y-117403726D02*
X118756698Y-117329577D01*
X118756698Y-117329577D02*
X118758556Y-117246142D01*
X118758556Y-117246142D02*
X118764045Y-117226878D01*
X118764045Y-117226878D02*
X118776103Y-117194297D01*
X118776103Y-117194297D02*
X118790743Y-117168139D01*
X118790743Y-117168139D02*
X118812394Y-117147699D01*
X118812394Y-117147699D02*
X118845487Y-117132271D01*
X118845487Y-117132271D02*
X118894452Y-117121152D01*
X118894452Y-117121152D02*
X118963717Y-117113636D01*
X118963717Y-117113636D02*
X119057713Y-117109017D01*
X119057713Y-117109017D02*
X119180870Y-117106592D01*
X119180870Y-117106592D02*
X119337616Y-117105654D01*
X119337616Y-117105654D02*
X119526738Y-117105500D01*
X119526738Y-117105500D02*
X120179823Y-117105500D01*
X120179823Y-117105500D02*
X120244305Y-117169982D01*
X120244305Y-117169982D02*
X120285577Y-117217751D01*
X120285577Y-117217751D02*
X120300149Y-117260213D01*
X120300149Y-117260213D02*
X120296271Y-117311592D01*
X120296271Y-117311592D02*
X120275725Y-117376493D01*
X120275725Y-117376493D02*
X120242783Y-117429606D01*
X120242783Y-117429606D02*
X120240185Y-117432318D01*
X120240185Y-117432318D02*
X120226179Y-117444667D01*
X120226179Y-117444667D02*
X120208420Y-117454504D01*
X120208420Y-117454504D02*
X120182174Y-117462171D01*
X120182174Y-117462171D02*
X120142702Y-117468012D01*
X120142702Y-117468012D02*
X120085269Y-117472368D01*
X120085269Y-117472368D02*
X120005137Y-117475583D01*
X120005137Y-117475583D02*
X119897570Y-117477999D01*
X119897570Y-117477999D02*
X119757831Y-117479959D01*
X119757831Y-117479959D02*
X119581182Y-117481806D01*
X119581182Y-117481806D02*
X119552233Y-117482084D01*
X119552233Y-117482084D02*
X119365135Y-117483604D01*
X119365135Y-117483604D02*
X119215632Y-117484072D01*
X119215632Y-117484072D02*
X119098992Y-117483311D01*
X119098992Y-117483311D02*
X119098992Y-117483311D01*
G36*
X120244305Y-117169982D02*
G01*
X120285577Y-117217751D01*
X120300149Y-117260213D01*
X120296271Y-117311592D01*
X120275725Y-117376493D01*
X120242783Y-117429606D01*
X120240185Y-117432318D01*
X120226179Y-117444667D01*
X120208420Y-117454504D01*
X120182174Y-117462171D01*
X120142702Y-117468012D01*
X120085269Y-117472368D01*
X120005137Y-117475583D01*
X119897570Y-117477999D01*
X119757831Y-117479959D01*
X119581182Y-117481806D01*
X119552233Y-117482084D01*
X119365135Y-117483604D01*
X119215632Y-117484072D01*
X119098992Y-117483311D01*
X119010486Y-117481142D01*
X118945384Y-117477386D01*
X118898955Y-117471864D01*
X118866470Y-117464399D01*
X118844245Y-117455359D01*
X118786809Y-117403726D01*
X118756698Y-117329577D01*
X118758556Y-117246142D01*
X118764045Y-117226878D01*
X118776103Y-117194297D01*
X118790743Y-117168139D01*
X118812394Y-117147699D01*
X118845487Y-117132271D01*
X118894452Y-117121152D01*
X118963717Y-117113636D01*
X119057713Y-117109017D01*
X119180870Y-117106592D01*
X119337616Y-117105654D01*
X119526738Y-117105500D01*
X120179823Y-117105500D01*
X120244305Y-117169982D01*
G37*
X120244305Y-117169982D02*
X120285577Y-117217751D01*
X120300149Y-117260213D01*
X120296271Y-117311592D01*
X120275725Y-117376493D01*
X120242783Y-117429606D01*
X120240185Y-117432318D01*
X120226179Y-117444667D01*
X120208420Y-117454504D01*
X120182174Y-117462171D01*
X120142702Y-117468012D01*
X120085269Y-117472368D01*
X120005137Y-117475583D01*
X119897570Y-117477999D01*
X119757831Y-117479959D01*
X119581182Y-117481806D01*
X119552233Y-117482084D01*
X119365135Y-117483604D01*
X119215632Y-117484072D01*
X119098992Y-117483311D01*
X119010486Y-117481142D01*
X118945384Y-117477386D01*
X118898955Y-117471864D01*
X118866470Y-117464399D01*
X118844245Y-117455359D01*
X118786809Y-117403726D01*
X118756698Y-117329577D01*
X118758556Y-117246142D01*
X118764045Y-117226878D01*
X118776103Y-117194297D01*
X118790743Y-117168139D01*
X118812394Y-117147699D01*
X118845487Y-117132271D01*
X118894452Y-117121152D01*
X118963717Y-117113636D01*
X119057713Y-117109017D01*
X119180870Y-117106592D01*
X119337616Y-117105654D01*
X119526738Y-117105500D01*
X120179823Y-117105500D01*
X120244305Y-117169982D01*
X119337396Y-114861538D02*
X119185961Y-114860517D01*
X119185961Y-114860517D02*
X119068009Y-114858572D01*
X119068009Y-114858572D02*
X118979116Y-114855505D01*
X118979116Y-114855505D02*
X118914859Y-114851116D01*
X118914859Y-114851116D02*
X118870814Y-114845205D01*
X118870814Y-114845205D02*
X118842557Y-114837574D01*
X118842557Y-114837574D02*
X118828796Y-114830414D01*
X118828796Y-114830414D02*
X118777885Y-114772325D01*
X118777885Y-114772325D02*
X118755528Y-114698175D01*
X118755528Y-114698175D02*
X118761170Y-114620772D01*
X118761170Y-114620772D02*
X118794254Y-114552928D01*
X118794254Y-114552928D02*
X118842552Y-114512850D01*
X118842552Y-114512850D02*
X118882457Y-114503315D01*
X118882457Y-114503315D02*
X118957912Y-114495284D01*
X118957912Y-114495284D02*
X119062162Y-114488781D01*
X119062162Y-114488781D02*
X119188450Y-114483831D01*
X119188450Y-114483831D02*
X119330020Y-114480456D01*
X119330020Y-114480456D02*
X119480115Y-114478682D01*
X119480115Y-114478682D02*
X119631978Y-114478532D01*
X119631978Y-114478532D02*
X119778854Y-114480031D01*
X119778854Y-114480031D02*
X119913985Y-114483202D01*
X119913985Y-114483202D02*
X120030615Y-114488070D01*
X120030615Y-114488070D02*
X120121989Y-114494659D01*
X120121989Y-114494659D02*
X120181348Y-114502992D01*
X120181348Y-114502992D02*
X120197316Y-114508021D01*
X120197316Y-114508021D02*
X120263296Y-114561818D01*
X120263296Y-114561818D02*
X120295941Y-114633069D01*
X120295941Y-114633069D02*
X120293646Y-114711199D01*
X120293646Y-114711199D02*
X120254802Y-114785634D01*
X120254802Y-114785634D02*
X120241695Y-114799962D01*
X120241695Y-114799962D02*
X120179823Y-114861833D01*
X120179823Y-114861833D02*
X119526738Y-114861833D01*
X119526738Y-114861833D02*
X119337396Y-114861538D01*
X119337396Y-114861538D02*
X119337396Y-114861538D01*
G36*
X119778854Y-114480031D02*
G01*
X119913985Y-114483202D01*
X120030615Y-114488070D01*
X120121989Y-114494659D01*
X120181348Y-114502992D01*
X120197316Y-114508021D01*
X120263296Y-114561818D01*
X120295941Y-114633069D01*
X120293646Y-114711199D01*
X120254802Y-114785634D01*
X120241695Y-114799962D01*
X120179823Y-114861833D01*
X119526738Y-114861833D01*
X119337396Y-114861538D01*
X119185961Y-114860517D01*
X119068009Y-114858572D01*
X118979116Y-114855505D01*
X118914859Y-114851116D01*
X118870814Y-114845205D01*
X118842557Y-114837574D01*
X118828796Y-114830414D01*
X118777885Y-114772325D01*
X118755528Y-114698175D01*
X118761170Y-114620772D01*
X118794254Y-114552928D01*
X118842552Y-114512850D01*
X118882457Y-114503315D01*
X118957912Y-114495284D01*
X119062162Y-114488781D01*
X119188450Y-114483831D01*
X119330020Y-114480456D01*
X119480115Y-114478682D01*
X119631978Y-114478532D01*
X119778854Y-114480031D01*
G37*
X119778854Y-114480031D02*
X119913985Y-114483202D01*
X120030615Y-114488070D01*
X120121989Y-114494659D01*
X120181348Y-114502992D01*
X120197316Y-114508021D01*
X120263296Y-114561818D01*
X120295941Y-114633069D01*
X120293646Y-114711199D01*
X120254802Y-114785634D01*
X120241695Y-114799962D01*
X120179823Y-114861833D01*
X119526738Y-114861833D01*
X119337396Y-114861538D01*
X119185961Y-114860517D01*
X119068009Y-114858572D01*
X118979116Y-114855505D01*
X118914859Y-114851116D01*
X118870814Y-114845205D01*
X118842557Y-114837574D01*
X118828796Y-114830414D01*
X118777885Y-114772325D01*
X118755528Y-114698175D01*
X118761170Y-114620772D01*
X118794254Y-114552928D01*
X118842552Y-114512850D01*
X118882457Y-114503315D01*
X118957912Y-114495284D01*
X119062162Y-114488781D01*
X119188450Y-114483831D01*
X119330020Y-114480456D01*
X119480115Y-114478682D01*
X119631978Y-114478532D01*
X119778854Y-114480031D01*
X123761178Y-114861410D02*
X123610247Y-114860212D01*
X123610247Y-114860212D02*
X123477474Y-114858346D01*
X123477474Y-114858346D02*
X123368325Y-114855918D01*
X123368325Y-114855918D02*
X123288267Y-114853035D01*
X123288267Y-114853035D02*
X123242768Y-114849805D01*
X123242768Y-114849805D02*
X123235260Y-114848363D01*
X123235260Y-114848363D02*
X123200865Y-114819222D01*
X123200865Y-114819222D02*
X123181136Y-114784863D01*
X123181136Y-114784863D02*
X123162115Y-114734833D01*
X123162115Y-114734833D02*
X122411423Y-114734833D01*
X122411423Y-114734833D02*
X122192338Y-114734230D01*
X122192338Y-114734230D02*
X122008067Y-114732446D01*
X122008067Y-114732446D02*
X121860074Y-114729523D01*
X121860074Y-114729523D02*
X121749825Y-114725502D01*
X121749825Y-114725502D02*
X121678781Y-114720423D01*
X121678781Y-114720423D02*
X121648409Y-114714328D01*
X121648409Y-114714328D02*
X121647533Y-114713477D01*
X121647533Y-114713477D02*
X121642479Y-114677526D01*
X121642479Y-114677526D02*
X121647710Y-114649977D01*
X121647710Y-114649977D02*
X121652540Y-114638801D01*
X121652540Y-114638801D02*
X121661996Y-114629798D01*
X121661996Y-114629798D02*
X121680281Y-114622732D01*
X121680281Y-114622732D02*
X121711597Y-114617371D01*
X121711597Y-114617371D02*
X121760146Y-114613477D01*
X121760146Y-114613477D02*
X121830132Y-114610819D01*
X121830132Y-114610819D02*
X121925755Y-114609159D01*
X121925755Y-114609159D02*
X122051219Y-114608265D01*
X122051219Y-114608265D02*
X122210725Y-114607901D01*
X122210725Y-114607901D02*
X122402584Y-114607833D01*
X122402584Y-114607833D02*
X123144082Y-114607833D01*
X123144082Y-114607833D02*
X123262718Y-114480833D01*
X123262718Y-114480833D02*
X124562249Y-114480833D01*
X124562249Y-114480833D02*
X124680885Y-114607833D01*
X124680885Y-114607833D02*
X125423064Y-114607833D01*
X125423064Y-114607833D02*
X125620687Y-114607963D01*
X125620687Y-114607963D02*
X125780176Y-114608488D01*
X125780176Y-114608488D02*
X125905730Y-114609613D01*
X125905730Y-114609613D02*
X126001549Y-114611541D01*
X126001549Y-114611541D02*
X126071832Y-114614478D01*
X126071832Y-114614478D02*
X126120777Y-114618628D01*
X126120777Y-114618628D02*
X126152585Y-114624194D01*
X126152585Y-114624194D02*
X126171455Y-114631382D01*
X126171455Y-114631382D02*
X126181585Y-114640396D01*
X126181585Y-114640396D02*
X126184295Y-114644875D01*
X126184295Y-114644875D02*
X126195145Y-114667825D01*
X126195145Y-114667825D02*
X126199252Y-114686497D01*
X126199252Y-114686497D02*
X126192889Y-114701333D01*
X126192889Y-114701333D02*
X126172329Y-114712773D01*
X126172329Y-114712773D02*
X126133844Y-114721259D01*
X126133844Y-114721259D02*
X126073709Y-114727232D01*
X126073709Y-114727232D02*
X125988195Y-114731133D01*
X125988195Y-114731133D02*
X125873577Y-114733402D01*
X125873577Y-114733402D02*
X125726126Y-114734481D01*
X125726126Y-114734481D02*
X125542117Y-114734811D01*
X125542117Y-114734811D02*
X125424136Y-114734833D01*
X125424136Y-114734833D02*
X125202114Y-114735418D01*
X125202114Y-114735418D02*
X125016803Y-114737150D01*
X125016803Y-114737150D02*
X124869292Y-114740000D01*
X124869292Y-114740000D02*
X124760668Y-114743937D01*
X124760668Y-114743937D02*
X124692019Y-114748932D01*
X124692019Y-114748932D02*
X124664431Y-114754953D01*
X124664431Y-114754953D02*
X124663900Y-114756000D01*
X124663900Y-114756000D02*
X124650238Y-114785201D01*
X124650238Y-114785201D02*
X124621567Y-114819500D01*
X124621567Y-114819500D02*
X124607937Y-114831394D01*
X124607937Y-114831394D02*
X124590364Y-114840827D01*
X124590364Y-114840827D02*
X124564161Y-114848082D01*
X124564161Y-114848082D02*
X124524642Y-114853444D01*
X124524642Y-114853444D02*
X124467122Y-114857198D01*
X124467122Y-114857198D02*
X124386914Y-114859629D01*
X124386914Y-114859629D02*
X124279331Y-114861022D01*
X124279331Y-114861022D02*
X124139689Y-114861661D01*
X124139689Y-114861661D02*
X123963300Y-114861831D01*
X123963300Y-114861831D02*
X123924798Y-114861833D01*
X123924798Y-114861833D02*
X123761178Y-114861410D01*
X123761178Y-114861410D02*
X123761178Y-114861410D01*
G36*
X124680885Y-114607833D02*
G01*
X125423064Y-114607833D01*
X125620687Y-114607963D01*
X125780176Y-114608488D01*
X125905730Y-114609613D01*
X126001549Y-114611541D01*
X126071832Y-114614478D01*
X126120777Y-114618628D01*
X126152585Y-114624194D01*
X126171455Y-114631382D01*
X126181585Y-114640396D01*
X126184295Y-114644875D01*
X126195145Y-114667825D01*
X126199252Y-114686497D01*
X126192889Y-114701333D01*
X126172329Y-114712773D01*
X126133844Y-114721259D01*
X126073709Y-114727232D01*
X125988195Y-114731133D01*
X125873577Y-114733402D01*
X125726126Y-114734481D01*
X125542117Y-114734811D01*
X125424136Y-114734833D01*
X125202114Y-114735418D01*
X125016803Y-114737150D01*
X124869292Y-114740000D01*
X124760668Y-114743937D01*
X124692019Y-114748932D01*
X124664431Y-114754953D01*
X124663900Y-114756000D01*
X124650238Y-114785201D01*
X124621567Y-114819500D01*
X124607937Y-114831394D01*
X124590364Y-114840827D01*
X124564161Y-114848082D01*
X124524642Y-114853444D01*
X124467122Y-114857198D01*
X124386914Y-114859629D01*
X124279331Y-114861022D01*
X124139689Y-114861661D01*
X123963300Y-114861831D01*
X123924798Y-114861833D01*
X123761178Y-114861410D01*
X123610247Y-114860212D01*
X123477474Y-114858346D01*
X123368325Y-114855918D01*
X123288267Y-114853035D01*
X123242768Y-114849805D01*
X123235260Y-114848363D01*
X123200865Y-114819222D01*
X123181136Y-114784863D01*
X123162115Y-114734833D01*
X122411423Y-114734833D01*
X122192338Y-114734230D01*
X122008067Y-114732446D01*
X121860074Y-114729523D01*
X121749825Y-114725502D01*
X121678781Y-114720423D01*
X121648409Y-114714328D01*
X121647533Y-114713477D01*
X121642479Y-114677526D01*
X121647710Y-114649977D01*
X121652540Y-114638801D01*
X121661996Y-114629798D01*
X121680281Y-114622732D01*
X121711597Y-114617371D01*
X121760146Y-114613477D01*
X121830132Y-114610819D01*
X121925755Y-114609159D01*
X122051219Y-114608265D01*
X122210725Y-114607901D01*
X122402584Y-114607833D01*
X123144082Y-114607833D01*
X123262718Y-114480833D01*
X124562249Y-114480833D01*
X124680885Y-114607833D01*
G37*
X124680885Y-114607833D02*
X125423064Y-114607833D01*
X125620687Y-114607963D01*
X125780176Y-114608488D01*
X125905730Y-114609613D01*
X126001549Y-114611541D01*
X126071832Y-114614478D01*
X126120777Y-114618628D01*
X126152585Y-114624194D01*
X126171455Y-114631382D01*
X126181585Y-114640396D01*
X126184295Y-114644875D01*
X126195145Y-114667825D01*
X126199252Y-114686497D01*
X126192889Y-114701333D01*
X126172329Y-114712773D01*
X126133844Y-114721259D01*
X126073709Y-114727232D01*
X125988195Y-114731133D01*
X125873577Y-114733402D01*
X125726126Y-114734481D01*
X125542117Y-114734811D01*
X125424136Y-114734833D01*
X125202114Y-114735418D01*
X125016803Y-114737150D01*
X124869292Y-114740000D01*
X124760668Y-114743937D01*
X124692019Y-114748932D01*
X124664431Y-114754953D01*
X124663900Y-114756000D01*
X124650238Y-114785201D01*
X124621567Y-114819500D01*
X124607937Y-114831394D01*
X124590364Y-114840827D01*
X124564161Y-114848082D01*
X124524642Y-114853444D01*
X124467122Y-114857198D01*
X124386914Y-114859629D01*
X124279331Y-114861022D01*
X124139689Y-114861661D01*
X123963300Y-114861831D01*
X123924798Y-114861833D01*
X123761178Y-114861410D01*
X123610247Y-114860212D01*
X123477474Y-114858346D01*
X123368325Y-114855918D01*
X123288267Y-114853035D01*
X123242768Y-114849805D01*
X123235260Y-114848363D01*
X123200865Y-114819222D01*
X123181136Y-114784863D01*
X123162115Y-114734833D01*
X122411423Y-114734833D01*
X122192338Y-114734230D01*
X122008067Y-114732446D01*
X121860074Y-114729523D01*
X121749825Y-114725502D01*
X121678781Y-114720423D01*
X121648409Y-114714328D01*
X121647533Y-114713477D01*
X121642479Y-114677526D01*
X121647710Y-114649977D01*
X121652540Y-114638801D01*
X121661996Y-114629798D01*
X121680281Y-114622732D01*
X121711597Y-114617371D01*
X121760146Y-114613477D01*
X121830132Y-114610819D01*
X121925755Y-114609159D01*
X122051219Y-114608265D01*
X122210725Y-114607901D01*
X122402584Y-114607833D01*
X123144082Y-114607833D01*
X123262718Y-114480833D01*
X124562249Y-114480833D01*
X124680885Y-114607833D01*
X123207182Y-117856917D02*
X123165558Y-117804000D01*
X123165558Y-117804000D02*
X121674909Y-117804000D01*
X121674909Y-117804000D02*
X121633285Y-117856917D01*
X121633285Y-117856917D02*
X121591661Y-117909833D01*
X121591661Y-117909833D02*
X119533493Y-117909833D01*
X119533493Y-117909833D02*
X119176960Y-117909725D01*
X119176960Y-117909725D02*
X118860667Y-117909381D01*
X118860667Y-117909381D02*
X118582520Y-117908776D01*
X118582520Y-117908776D02*
X118340426Y-117907883D01*
X118340426Y-117907883D02*
X118132291Y-117906675D01*
X118132291Y-117906675D02*
X117956022Y-117905127D01*
X117956022Y-117905127D02*
X117809525Y-117903211D01*
X117809525Y-117903211D02*
X117690708Y-117900902D01*
X117690708Y-117900902D02*
X117597476Y-117898172D01*
X117597476Y-117898172D02*
X117527737Y-117894996D01*
X117527737Y-117894996D02*
X117479397Y-117891346D01*
X117479397Y-117891346D02*
X117450362Y-117887197D01*
X117450362Y-117887197D02*
X117439452Y-117883375D01*
X117439452Y-117883375D02*
X117399081Y-117830087D01*
X117399081Y-117830087D02*
X117380665Y-117756264D01*
X117380665Y-117756264D02*
X117384223Y-117677360D01*
X117384223Y-117677360D02*
X117409771Y-117608831D01*
X117409771Y-117608831D02*
X117439107Y-117576483D01*
X117439107Y-117576483D02*
X117453807Y-117571898D01*
X117453807Y-117571898D02*
X117486025Y-117567835D01*
X117486025Y-117567835D02*
X117537858Y-117564268D01*
X117537858Y-117564268D02*
X117611404Y-117561169D01*
X117611404Y-117561169D02*
X117708759Y-117558513D01*
X117708759Y-117558513D02*
X117832018Y-117556272D01*
X117832018Y-117556272D02*
X117983280Y-117554421D01*
X117983280Y-117554421D02*
X118164640Y-117552932D01*
X118164640Y-117552932D02*
X118378196Y-117551780D01*
X118378196Y-117551780D02*
X118626044Y-117550937D01*
X118626044Y-117550937D02*
X118910280Y-117550378D01*
X118910280Y-117550378D02*
X119233001Y-117550075D01*
X119233001Y-117550075D02*
X119533517Y-117550000D01*
X119533517Y-117550000D02*
X119877162Y-117550052D01*
X119877162Y-117550052D02*
X120180940Y-117550234D01*
X120180940Y-117550234D02*
X120447315Y-117550585D01*
X120447315Y-117550585D02*
X120678753Y-117551144D01*
X120678753Y-117551144D02*
X120877720Y-117551951D01*
X120877720Y-117551951D02*
X121046682Y-117553045D01*
X121046682Y-117553045D02*
X121188103Y-117554464D01*
X121188103Y-117554464D02*
X121304449Y-117556249D01*
X121304449Y-117556249D02*
X121398187Y-117558438D01*
X121398187Y-117558438D02*
X121471780Y-117561071D01*
X121471780Y-117561071D02*
X121527696Y-117564186D01*
X121527696Y-117564186D02*
X121568398Y-117567824D01*
X121568398Y-117567824D02*
X121596354Y-117572023D01*
X121596354Y-117572023D02*
X121614028Y-117576822D01*
X121614028Y-117576822D02*
X121623886Y-117582261D01*
X121623886Y-117582261D02*
X121624972Y-117583262D01*
X121624972Y-117583262D02*
X121651689Y-117617961D01*
X121651689Y-117617961D02*
X121658233Y-117636179D01*
X121658233Y-117636179D02*
X121678843Y-117641236D01*
X121678843Y-117641236D02*
X121738451Y-117645682D01*
X121738451Y-117645682D02*
X121833724Y-117649431D01*
X121833724Y-117649431D02*
X121961331Y-117652398D01*
X121961331Y-117652398D02*
X122117939Y-117654497D01*
X122117939Y-117654497D02*
X122300217Y-117655641D01*
X122300217Y-117655641D02*
X122420233Y-117655833D01*
X122420233Y-117655833D02*
X122616283Y-117655302D01*
X122616283Y-117655302D02*
X122788658Y-117653764D01*
X122788658Y-117653764D02*
X122934026Y-117651307D01*
X122934026Y-117651307D02*
X123049055Y-117648016D01*
X123049055Y-117648016D02*
X123130413Y-117643976D01*
X123130413Y-117643976D02*
X123174768Y-117639274D01*
X123174768Y-117639274D02*
X123182233Y-117636179D01*
X123182233Y-117636179D02*
X123195742Y-117606883D01*
X123195742Y-117606883D02*
X123215495Y-117583262D01*
X123215495Y-117583262D02*
X123229401Y-117573913D01*
X123229401Y-117573913D02*
X123253318Y-117566460D01*
X123253318Y-117566460D02*
X123291643Y-117560699D01*
X123291643Y-117560699D02*
X123348776Y-117556421D01*
X123348776Y-117556421D02*
X123429115Y-117553422D01*
X123429115Y-117553422D02*
X123537059Y-117551493D01*
X123537059Y-117551493D02*
X123677006Y-117550430D01*
X123677006Y-117550430D02*
X123853355Y-117550025D01*
X123853355Y-117550025D02*
X123924091Y-117550000D01*
X123924091Y-117550000D02*
X124599424Y-117550000D01*
X124599424Y-117550000D02*
X124634097Y-117602917D01*
X124634097Y-117602917D02*
X124668769Y-117655833D01*
X124668769Y-117655833D02*
X125417006Y-117655833D01*
X125417006Y-117655833D02*
X125614860Y-117655922D01*
X125614860Y-117655922D02*
X125774608Y-117656339D01*
X125774608Y-117656339D02*
X125900476Y-117657307D01*
X125900476Y-117657307D02*
X125996692Y-117659052D01*
X125996692Y-117659052D02*
X126067482Y-117661797D01*
X126067482Y-117661797D02*
X126117074Y-117665766D01*
X126117074Y-117665766D02*
X126149695Y-117671185D01*
X126149695Y-117671185D02*
X126169570Y-117678276D01*
X126169570Y-117678276D02*
X126180929Y-117687266D01*
X126180929Y-117687266D02*
X126187113Y-117696697D01*
X126187113Y-117696697D02*
X126196349Y-117739329D01*
X126196349Y-117739329D02*
X126175763Y-117770780D01*
X126175763Y-117770780D02*
X126162386Y-117779750D01*
X126162386Y-117779750D02*
X126139258Y-117786977D01*
X126139258Y-117786977D02*
X126102180Y-117792642D01*
X126102180Y-117792642D02*
X126046953Y-117796928D01*
X126046953Y-117796928D02*
X125969378Y-117800014D01*
X125969378Y-117800014D02*
X125865258Y-117802082D01*
X125865258Y-117802082D02*
X125730392Y-117803314D01*
X125730392Y-117803314D02*
X125560583Y-117803890D01*
X125560583Y-117803890D02*
X125405656Y-117804000D01*
X125405656Y-117804000D02*
X124668769Y-117804000D01*
X124668769Y-117804000D02*
X124634097Y-117856917D01*
X124634097Y-117856917D02*
X124599424Y-117909833D01*
X124599424Y-117909833D02*
X123248806Y-117909833D01*
X123248806Y-117909833D02*
X123207182Y-117856917D01*
X123207182Y-117856917D02*
X123207182Y-117856917D01*
G36*
X124634097Y-117602917D02*
G01*
X124668769Y-117655833D01*
X125417006Y-117655833D01*
X125614860Y-117655922D01*
X125774608Y-117656339D01*
X125900476Y-117657307D01*
X125996692Y-117659052D01*
X126067482Y-117661797D01*
X126117074Y-117665766D01*
X126149695Y-117671185D01*
X126169570Y-117678276D01*
X126180929Y-117687266D01*
X126187113Y-117696697D01*
X126196349Y-117739329D01*
X126175763Y-117770780D01*
X126162386Y-117779750D01*
X126139258Y-117786977D01*
X126102180Y-117792642D01*
X126046953Y-117796928D01*
X125969378Y-117800014D01*
X125865258Y-117802082D01*
X125730392Y-117803314D01*
X125560583Y-117803890D01*
X125405656Y-117804000D01*
X124668769Y-117804000D01*
X124634097Y-117856917D01*
X124599424Y-117909833D01*
X123248806Y-117909833D01*
X123207182Y-117856917D01*
X123165558Y-117804000D01*
X121674909Y-117804000D01*
X121633285Y-117856917D01*
X121591661Y-117909833D01*
X119533493Y-117909833D01*
X119176960Y-117909725D01*
X118860667Y-117909381D01*
X118582520Y-117908776D01*
X118340426Y-117907883D01*
X118132291Y-117906675D01*
X117956022Y-117905127D01*
X117809525Y-117903211D01*
X117690708Y-117900902D01*
X117597476Y-117898172D01*
X117527737Y-117894996D01*
X117479397Y-117891346D01*
X117450362Y-117887197D01*
X117439452Y-117883375D01*
X117399081Y-117830087D01*
X117380665Y-117756264D01*
X117384223Y-117677360D01*
X117409771Y-117608831D01*
X117439107Y-117576483D01*
X117453807Y-117571898D01*
X117486025Y-117567835D01*
X117537858Y-117564268D01*
X117611404Y-117561169D01*
X117708759Y-117558513D01*
X117832018Y-117556272D01*
X117983280Y-117554421D01*
X118164640Y-117552932D01*
X118378196Y-117551780D01*
X118626044Y-117550937D01*
X118910280Y-117550378D01*
X119233001Y-117550075D01*
X119533517Y-117550000D01*
X119877162Y-117550052D01*
X120180940Y-117550234D01*
X120447315Y-117550585D01*
X120678753Y-117551144D01*
X120877720Y-117551951D01*
X121046682Y-117553045D01*
X121188103Y-117554464D01*
X121304449Y-117556249D01*
X121398187Y-117558438D01*
X121471780Y-117561071D01*
X121527696Y-117564186D01*
X121568398Y-117567824D01*
X121596354Y-117572023D01*
X121614028Y-117576822D01*
X121623886Y-117582261D01*
X121624972Y-117583262D01*
X121651689Y-117617961D01*
X121658233Y-117636179D01*
X121678843Y-117641236D01*
X121738451Y-117645682D01*
X121833724Y-117649431D01*
X121961331Y-117652398D01*
X122117939Y-117654497D01*
X122300217Y-117655641D01*
X122420233Y-117655833D01*
X122616283Y-117655302D01*
X122788658Y-117653764D01*
X122934026Y-117651307D01*
X123049055Y-117648016D01*
X123130413Y-117643976D01*
X123174768Y-117639274D01*
X123182233Y-117636179D01*
X123195742Y-117606883D01*
X123215495Y-117583262D01*
X123229401Y-117573913D01*
X123253318Y-117566460D01*
X123291643Y-117560699D01*
X123348776Y-117556421D01*
X123429115Y-117553422D01*
X123537059Y-117551493D01*
X123677006Y-117550430D01*
X123853355Y-117550025D01*
X123924091Y-117550000D01*
X124599424Y-117550000D01*
X124634097Y-117602917D01*
G37*
X124634097Y-117602917D02*
X124668769Y-117655833D01*
X125417006Y-117655833D01*
X125614860Y-117655922D01*
X125774608Y-117656339D01*
X125900476Y-117657307D01*
X125996692Y-117659052D01*
X126067482Y-117661797D01*
X126117074Y-117665766D01*
X126149695Y-117671185D01*
X126169570Y-117678276D01*
X126180929Y-117687266D01*
X126187113Y-117696697D01*
X126196349Y-117739329D01*
X126175763Y-117770780D01*
X126162386Y-117779750D01*
X126139258Y-117786977D01*
X126102180Y-117792642D01*
X126046953Y-117796928D01*
X125969378Y-117800014D01*
X125865258Y-117802082D01*
X125730392Y-117803314D01*
X125560583Y-117803890D01*
X125405656Y-117804000D01*
X124668769Y-117804000D01*
X124634097Y-117856917D01*
X124599424Y-117909833D01*
X123248806Y-117909833D01*
X123207182Y-117856917D01*
X123165558Y-117804000D01*
X121674909Y-117804000D01*
X121633285Y-117856917D01*
X121591661Y-117909833D01*
X119533493Y-117909833D01*
X119176960Y-117909725D01*
X118860667Y-117909381D01*
X118582520Y-117908776D01*
X118340426Y-117907883D01*
X118132291Y-117906675D01*
X117956022Y-117905127D01*
X117809525Y-117903211D01*
X117690708Y-117900902D01*
X117597476Y-117898172D01*
X117527737Y-117894996D01*
X117479397Y-117891346D01*
X117450362Y-117887197D01*
X117439452Y-117883375D01*
X117399081Y-117830087D01*
X117380665Y-117756264D01*
X117384223Y-117677360D01*
X117409771Y-117608831D01*
X117439107Y-117576483D01*
X117453807Y-117571898D01*
X117486025Y-117567835D01*
X117537858Y-117564268D01*
X117611404Y-117561169D01*
X117708759Y-117558513D01*
X117832018Y-117556272D01*
X117983280Y-117554421D01*
X118164640Y-117552932D01*
X118378196Y-117551780D01*
X118626044Y-117550937D01*
X118910280Y-117550378D01*
X119233001Y-117550075D01*
X119533517Y-117550000D01*
X119877162Y-117550052D01*
X120180940Y-117550234D01*
X120447315Y-117550585D01*
X120678753Y-117551144D01*
X120877720Y-117551951D01*
X121046682Y-117553045D01*
X121188103Y-117554464D01*
X121304449Y-117556249D01*
X121398187Y-117558438D01*
X121471780Y-117561071D01*
X121527696Y-117564186D01*
X121568398Y-117567824D01*
X121596354Y-117572023D01*
X121614028Y-117576822D01*
X121623886Y-117582261D01*
X121624972Y-117583262D01*
X121651689Y-117617961D01*
X121658233Y-117636179D01*
X121678843Y-117641236D01*
X121738451Y-117645682D01*
X121833724Y-117649431D01*
X121961331Y-117652398D01*
X122117939Y-117654497D01*
X122300217Y-117655641D01*
X122420233Y-117655833D01*
X122616283Y-117655302D01*
X122788658Y-117653764D01*
X122934026Y-117651307D01*
X123049055Y-117648016D01*
X123130413Y-117643976D01*
X123174768Y-117639274D01*
X123182233Y-117636179D01*
X123195742Y-117606883D01*
X123215495Y-117583262D01*
X123229401Y-117573913D01*
X123253318Y-117566460D01*
X123291643Y-117560699D01*
X123348776Y-117556421D01*
X123429115Y-117553422D01*
X123537059Y-117551493D01*
X123677006Y-117550430D01*
X123853355Y-117550025D01*
X123924091Y-117550000D01*
X124599424Y-117550000D01*
X124634097Y-117602917D01*
X117433777Y-118305318D02*
X117387464Y-118240191D01*
X117387464Y-118240191D02*
X117372711Y-118161189D01*
X117372711Y-118161189D02*
X117389520Y-118082656D01*
X117389520Y-118082656D02*
X117433777Y-118022349D01*
X117433777Y-118022349D02*
X117490761Y-117973333D01*
X117490761Y-117973333D02*
X119527454Y-117973333D01*
X119527454Y-117973333D02*
X119869810Y-117973390D01*
X119869810Y-117973390D02*
X120172323Y-117973584D01*
X120172323Y-117973584D02*
X120437479Y-117973956D01*
X120437479Y-117973956D02*
X120667770Y-117974544D01*
X120667770Y-117974544D02*
X120865683Y-117975390D01*
X120865683Y-117975390D02*
X121033708Y-117976530D01*
X121033708Y-117976530D02*
X121174333Y-117978006D01*
X121174333Y-117978006D02*
X121290047Y-117979856D01*
X121290047Y-117979856D02*
X121383341Y-117982120D01*
X121383341Y-117982120D02*
X121456701Y-117984837D01*
X121456701Y-117984837D02*
X121512618Y-117988047D01*
X121512618Y-117988047D02*
X121553580Y-117991788D01*
X121553580Y-117991788D02*
X121582077Y-117996101D01*
X121582077Y-117996101D02*
X121600597Y-118001024D01*
X121600597Y-118001024D02*
X121611190Y-118006284D01*
X121611190Y-118006284D02*
X121646384Y-118041266D01*
X121646384Y-118041266D02*
X121658233Y-118069784D01*
X121658233Y-118069784D02*
X121663284Y-118077914D01*
X121663284Y-118077914D02*
X121680995Y-118084500D01*
X121680995Y-118084500D02*
X121715203Y-118089698D01*
X121715203Y-118089698D02*
X121769747Y-118093660D01*
X121769747Y-118093660D02*
X121848466Y-118096540D01*
X121848466Y-118096540D02*
X121955196Y-118098492D01*
X121955196Y-118098492D02*
X122093777Y-118099671D01*
X122093777Y-118099671D02*
X122268045Y-118100229D01*
X122268045Y-118100229D02*
X122420233Y-118100333D01*
X122420233Y-118100333D02*
X122642558Y-118099751D01*
X122642558Y-118099751D02*
X122828160Y-118098022D01*
X122828160Y-118098022D02*
X122975954Y-118095179D01*
X122975954Y-118095179D02*
X123084858Y-118091250D01*
X123084858Y-118091250D02*
X123153787Y-118086266D01*
X123153787Y-118086266D02*
X123181656Y-118080256D01*
X123181656Y-118080256D02*
X123182233Y-118079167D01*
X123182233Y-118079167D02*
X123195896Y-118049966D01*
X123195896Y-118049966D02*
X123224567Y-118015667D01*
X123224567Y-118015667D02*
X123238179Y-118003787D01*
X123238179Y-118003787D02*
X123255728Y-117994362D01*
X123255728Y-117994362D02*
X123281895Y-117987110D01*
X123281895Y-117987110D02*
X123321358Y-117981747D01*
X123321358Y-117981747D02*
X123378797Y-117977989D01*
X123378797Y-117977989D02*
X123458890Y-117975553D01*
X123458890Y-117975553D02*
X123566317Y-117974154D01*
X123566317Y-117974154D02*
X123705757Y-117973510D01*
X123705757Y-117973510D02*
X123881889Y-117973337D01*
X123881889Y-117973337D02*
X123923067Y-117973333D01*
X123923067Y-117973333D02*
X124107321Y-117973445D01*
X124107321Y-117973445D02*
X124253921Y-117973969D01*
X124253921Y-117973969D02*
X124367546Y-117975190D01*
X124367546Y-117975190D02*
X124452876Y-117977390D01*
X124452876Y-117977390D02*
X124514590Y-117980853D01*
X124514590Y-117980853D02*
X124557366Y-117985863D01*
X124557366Y-117985863D02*
X124585884Y-117992704D01*
X124585884Y-117992704D02*
X124604823Y-118001658D01*
X124604823Y-118001658D02*
X124618862Y-118013010D01*
X124618862Y-118013010D02*
X124621567Y-118015667D01*
X124621567Y-118015667D02*
X124652644Y-118053575D01*
X124652644Y-118053575D02*
X124663900Y-118079167D01*
X124663900Y-118079167D02*
X124684876Y-118085387D01*
X124684876Y-118085387D02*
X124747062Y-118090572D01*
X124747062Y-118090572D02*
X124849347Y-118094689D01*
X124849347Y-118094689D02*
X124990620Y-118097708D01*
X124990620Y-118097708D02*
X125169771Y-118099598D01*
X125169771Y-118099598D02*
X125385688Y-118100326D01*
X125385688Y-118100326D02*
X125412725Y-118100333D01*
X125412725Y-118100333D02*
X125620268Y-118100512D01*
X125620268Y-118100512D02*
X125789215Y-118101343D01*
X125789215Y-118101343D02*
X125923302Y-118103266D01*
X125923302Y-118103266D02*
X126026266Y-118106724D01*
X126026266Y-118106724D02*
X126101843Y-118112157D01*
X126101843Y-118112157D02*
X126153771Y-118120007D01*
X126153771Y-118120007D02*
X126185785Y-118130715D01*
X126185785Y-118130715D02*
X126201622Y-118144722D01*
X126201622Y-118144722D02*
X126205019Y-118162470D01*
X126205019Y-118162470D02*
X126199712Y-118184400D01*
X126199712Y-118184400D02*
X126196584Y-118192901D01*
X126196584Y-118192901D02*
X126189701Y-118202000D01*
X126189701Y-118202000D02*
X126174038Y-118209358D01*
X126174038Y-118209358D02*
X126145526Y-118215156D01*
X126145526Y-118215156D02*
X126100095Y-118219575D01*
X126100095Y-118219575D02*
X126033677Y-118222795D01*
X126033677Y-118222795D02*
X125942203Y-118225000D01*
X125942203Y-118225000D02*
X125821602Y-118226369D01*
X125821602Y-118226369D02*
X125667808Y-118227083D01*
X125667808Y-118227083D02*
X125476749Y-118227326D01*
X125476749Y-118227326D02*
X125423636Y-118227333D01*
X125423636Y-118227333D02*
X125201699Y-118227918D01*
X125201699Y-118227918D02*
X125016471Y-118229651D01*
X125016471Y-118229651D02*
X124869041Y-118232503D01*
X124869041Y-118232503D02*
X124760496Y-118236443D01*
X124760496Y-118236443D02*
X124691926Y-118241441D01*
X124691926Y-118241441D02*
X124664418Y-118247466D01*
X124664418Y-118247466D02*
X124663900Y-118248500D01*
X124663900Y-118248500D02*
X124650238Y-118277701D01*
X124650238Y-118277701D02*
X124621567Y-118312000D01*
X124621567Y-118312000D02*
X124607955Y-118323880D01*
X124607955Y-118323880D02*
X124590405Y-118333305D01*
X124590405Y-118333305D02*
X124564238Y-118340557D01*
X124564238Y-118340557D02*
X124524775Y-118345920D01*
X124524775Y-118345920D02*
X124467337Y-118349678D01*
X124467337Y-118349678D02*
X124387244Y-118352114D01*
X124387244Y-118352114D02*
X124279817Y-118353513D01*
X124279817Y-118353513D02*
X124140377Y-118354157D01*
X124140377Y-118354157D02*
X123964245Y-118354330D01*
X123964245Y-118354330D02*
X123923067Y-118354333D01*
X123923067Y-118354333D02*
X123738813Y-118354222D01*
X123738813Y-118354222D02*
X123592213Y-118353698D01*
X123592213Y-118353698D02*
X123478587Y-118352477D01*
X123478587Y-118352477D02*
X123393257Y-118350277D01*
X123393257Y-118350277D02*
X123331544Y-118346814D01*
X123331544Y-118346814D02*
X123288768Y-118341804D01*
X123288768Y-118341804D02*
X123260250Y-118334963D01*
X123260250Y-118334963D02*
X123241311Y-118326009D01*
X123241311Y-118326009D02*
X123227272Y-118314657D01*
X123227272Y-118314657D02*
X123224567Y-118312000D01*
X123224567Y-118312000D02*
X123193490Y-118274092D01*
X123193490Y-118274092D02*
X123182233Y-118248500D01*
X123182233Y-118248500D02*
X123161253Y-118242324D01*
X123161253Y-118242324D02*
X123099035Y-118237169D01*
X123099035Y-118237169D02*
X122996663Y-118233063D01*
X122996663Y-118233063D02*
X122855221Y-118230038D01*
X122855221Y-118230038D02*
X122675792Y-118228124D01*
X122675792Y-118228124D02*
X122459461Y-118227350D01*
X122459461Y-118227350D02*
X122420233Y-118227333D01*
X122420233Y-118227333D02*
X122217447Y-118227536D01*
X122217447Y-118227536D02*
X122053155Y-118228246D01*
X122053155Y-118228246D02*
X121923518Y-118229617D01*
X121923518Y-118229617D02*
X121824699Y-118231804D01*
X121824699Y-118231804D02*
X121752860Y-118234960D01*
X121752860Y-118234960D02*
X121704163Y-118239239D01*
X121704163Y-118239239D02*
X121674769Y-118244795D01*
X121674769Y-118244795D02*
X121660841Y-118251782D01*
X121660841Y-118251782D02*
X121658233Y-118257883D01*
X121658233Y-118257883D02*
X121642323Y-118291882D01*
X121642323Y-118291882D02*
X121611190Y-118321383D01*
X121611190Y-118321383D02*
X121599823Y-118326921D01*
X121599823Y-118326921D02*
X121580836Y-118331810D01*
X121580836Y-118331810D02*
X121551739Y-118336092D01*
X121551739Y-118336092D02*
X121510045Y-118339804D01*
X121510045Y-118339804D02*
X121453264Y-118342986D01*
X121453264Y-118342986D02*
X121378906Y-118345678D01*
X121378906Y-118345678D02*
X121284484Y-118347919D01*
X121284484Y-118347919D02*
X121167509Y-118349748D01*
X121167509Y-118349748D02*
X121025490Y-118351205D01*
X121025490Y-118351205D02*
X120855940Y-118352329D01*
X120855940Y-118352329D02*
X120656369Y-118353160D01*
X120656369Y-118353160D02*
X120424288Y-118353736D01*
X120424288Y-118353736D02*
X120157209Y-118354098D01*
X120157209Y-118354098D02*
X119852642Y-118354284D01*
X119852642Y-118354284D02*
X119527454Y-118354333D01*
X119527454Y-118354333D02*
X117490761Y-118354333D01*
X117490761Y-118354333D02*
X117433777Y-118305318D01*
X117433777Y-118305318D02*
X117433777Y-118305318D01*
G36*
X119869810Y-117973390D02*
G01*
X120172323Y-117973584D01*
X120437479Y-117973956D01*
X120667770Y-117974544D01*
X120865683Y-117975390D01*
X121033708Y-117976530D01*
X121174333Y-117978006D01*
X121290047Y-117979856D01*
X121383341Y-117982120D01*
X121456701Y-117984837D01*
X121512618Y-117988047D01*
X121553580Y-117991788D01*
X121582077Y-117996101D01*
X121600597Y-118001024D01*
X121611190Y-118006284D01*
X121646384Y-118041266D01*
X121658233Y-118069784D01*
X121663284Y-118077914D01*
X121680995Y-118084500D01*
X121715203Y-118089698D01*
X121769747Y-118093660D01*
X121848466Y-118096540D01*
X121955196Y-118098492D01*
X122093777Y-118099671D01*
X122268045Y-118100229D01*
X122420233Y-118100333D01*
X122642558Y-118099751D01*
X122828160Y-118098022D01*
X122975954Y-118095179D01*
X123084858Y-118091250D01*
X123153787Y-118086266D01*
X123181656Y-118080256D01*
X123182233Y-118079167D01*
X123195896Y-118049966D01*
X123224567Y-118015667D01*
X123238179Y-118003787D01*
X123255728Y-117994362D01*
X123281895Y-117987110D01*
X123321358Y-117981747D01*
X123378797Y-117977989D01*
X123458890Y-117975553D01*
X123566317Y-117974154D01*
X123705757Y-117973510D01*
X123881889Y-117973337D01*
X123923067Y-117973333D01*
X124107321Y-117973445D01*
X124253921Y-117973969D01*
X124367546Y-117975190D01*
X124452876Y-117977390D01*
X124514590Y-117980853D01*
X124557366Y-117985863D01*
X124585884Y-117992704D01*
X124604823Y-118001658D01*
X124618862Y-118013010D01*
X124621567Y-118015667D01*
X124652644Y-118053575D01*
X124663900Y-118079167D01*
X124684876Y-118085387D01*
X124747062Y-118090572D01*
X124849347Y-118094689D01*
X124990620Y-118097708D01*
X125169771Y-118099598D01*
X125385688Y-118100326D01*
X125412725Y-118100333D01*
X125620268Y-118100512D01*
X125789215Y-118101343D01*
X125923302Y-118103266D01*
X126026266Y-118106724D01*
X126101843Y-118112157D01*
X126153771Y-118120007D01*
X126185785Y-118130715D01*
X126201622Y-118144722D01*
X126205019Y-118162470D01*
X126199712Y-118184400D01*
X126196584Y-118192901D01*
X126189701Y-118202000D01*
X126174038Y-118209358D01*
X126145526Y-118215156D01*
X126100095Y-118219575D01*
X126033677Y-118222795D01*
X125942203Y-118225000D01*
X125821602Y-118226369D01*
X125667808Y-118227083D01*
X125476749Y-118227326D01*
X125423636Y-118227333D01*
X125201699Y-118227918D01*
X125016471Y-118229651D01*
X124869041Y-118232503D01*
X124760496Y-118236443D01*
X124691926Y-118241441D01*
X124664418Y-118247466D01*
X124663900Y-118248500D01*
X124650238Y-118277701D01*
X124621567Y-118312000D01*
X124607955Y-118323880D01*
X124590405Y-118333305D01*
X124564238Y-118340557D01*
X124524775Y-118345920D01*
X124467337Y-118349678D01*
X124387244Y-118352114D01*
X124279817Y-118353513D01*
X124140377Y-118354157D01*
X123964245Y-118354330D01*
X123923067Y-118354333D01*
X123738813Y-118354222D01*
X123592213Y-118353698D01*
X123478587Y-118352477D01*
X123393257Y-118350277D01*
X123331544Y-118346814D01*
X123288768Y-118341804D01*
X123260250Y-118334963D01*
X123241311Y-118326009D01*
X123227272Y-118314657D01*
X123224567Y-118312000D01*
X123193490Y-118274092D01*
X123182233Y-118248500D01*
X123161253Y-118242324D01*
X123099035Y-118237169D01*
X122996663Y-118233063D01*
X122855221Y-118230038D01*
X122675792Y-118228124D01*
X122459461Y-118227350D01*
X122420233Y-118227333D01*
X122217447Y-118227536D01*
X122053155Y-118228246D01*
X121923518Y-118229617D01*
X121824699Y-118231804D01*
X121752860Y-118234960D01*
X121704163Y-118239239D01*
X121674769Y-118244795D01*
X121660841Y-118251782D01*
X121658233Y-118257883D01*
X121642323Y-118291882D01*
X121611190Y-118321383D01*
X121599823Y-118326921D01*
X121580836Y-118331810D01*
X121551739Y-118336092D01*
X121510045Y-118339804D01*
X121453264Y-118342986D01*
X121378906Y-118345678D01*
X121284484Y-118347919D01*
X121167509Y-118349748D01*
X121025490Y-118351205D01*
X120855940Y-118352329D01*
X120656369Y-118353160D01*
X120424288Y-118353736D01*
X120157209Y-118354098D01*
X119852642Y-118354284D01*
X119527454Y-118354333D01*
X117490761Y-118354333D01*
X117433777Y-118305318D01*
X117387464Y-118240191D01*
X117372711Y-118161189D01*
X117389520Y-118082656D01*
X117433777Y-118022349D01*
X117490761Y-117973333D01*
X119527454Y-117973333D01*
X119869810Y-117973390D01*
G37*
X119869810Y-117973390D02*
X120172323Y-117973584D01*
X120437479Y-117973956D01*
X120667770Y-117974544D01*
X120865683Y-117975390D01*
X121033708Y-117976530D01*
X121174333Y-117978006D01*
X121290047Y-117979856D01*
X121383341Y-117982120D01*
X121456701Y-117984837D01*
X121512618Y-117988047D01*
X121553580Y-117991788D01*
X121582077Y-117996101D01*
X121600597Y-118001024D01*
X121611190Y-118006284D01*
X121646384Y-118041266D01*
X121658233Y-118069784D01*
X121663284Y-118077914D01*
X121680995Y-118084500D01*
X121715203Y-118089698D01*
X121769747Y-118093660D01*
X121848466Y-118096540D01*
X121955196Y-118098492D01*
X122093777Y-118099671D01*
X122268045Y-118100229D01*
X122420233Y-118100333D01*
X122642558Y-118099751D01*
X122828160Y-118098022D01*
X122975954Y-118095179D01*
X123084858Y-118091250D01*
X123153787Y-118086266D01*
X123181656Y-118080256D01*
X123182233Y-118079167D01*
X123195896Y-118049966D01*
X123224567Y-118015667D01*
X123238179Y-118003787D01*
X123255728Y-117994362D01*
X123281895Y-117987110D01*
X123321358Y-117981747D01*
X123378797Y-117977989D01*
X123458890Y-117975553D01*
X123566317Y-117974154D01*
X123705757Y-117973510D01*
X123881889Y-117973337D01*
X123923067Y-117973333D01*
X124107321Y-117973445D01*
X124253921Y-117973969D01*
X124367546Y-117975190D01*
X124452876Y-117977390D01*
X124514590Y-117980853D01*
X124557366Y-117985863D01*
X124585884Y-117992704D01*
X124604823Y-118001658D01*
X124618862Y-118013010D01*
X124621567Y-118015667D01*
X124652644Y-118053575D01*
X124663900Y-118079167D01*
X124684876Y-118085387D01*
X124747062Y-118090572D01*
X124849347Y-118094689D01*
X124990620Y-118097708D01*
X125169771Y-118099598D01*
X125385688Y-118100326D01*
X125412725Y-118100333D01*
X125620268Y-118100512D01*
X125789215Y-118101343D01*
X125923302Y-118103266D01*
X126026266Y-118106724D01*
X126101843Y-118112157D01*
X126153771Y-118120007D01*
X126185785Y-118130715D01*
X126201622Y-118144722D01*
X126205019Y-118162470D01*
X126199712Y-118184400D01*
X126196584Y-118192901D01*
X126189701Y-118202000D01*
X126174038Y-118209358D01*
X126145526Y-118215156D01*
X126100095Y-118219575D01*
X126033677Y-118222795D01*
X125942203Y-118225000D01*
X125821602Y-118226369D01*
X125667808Y-118227083D01*
X125476749Y-118227326D01*
X125423636Y-118227333D01*
X125201699Y-118227918D01*
X125016471Y-118229651D01*
X124869041Y-118232503D01*
X124760496Y-118236443D01*
X124691926Y-118241441D01*
X124664418Y-118247466D01*
X124663900Y-118248500D01*
X124650238Y-118277701D01*
X124621567Y-118312000D01*
X124607955Y-118323880D01*
X124590405Y-118333305D01*
X124564238Y-118340557D01*
X124524775Y-118345920D01*
X124467337Y-118349678D01*
X124387244Y-118352114D01*
X124279817Y-118353513D01*
X124140377Y-118354157D01*
X123964245Y-118354330D01*
X123923067Y-118354333D01*
X123738813Y-118354222D01*
X123592213Y-118353698D01*
X123478587Y-118352477D01*
X123393257Y-118350277D01*
X123331544Y-118346814D01*
X123288768Y-118341804D01*
X123260250Y-118334963D01*
X123241311Y-118326009D01*
X123227272Y-118314657D01*
X123224567Y-118312000D01*
X123193490Y-118274092D01*
X123182233Y-118248500D01*
X123161253Y-118242324D01*
X123099035Y-118237169D01*
X122996663Y-118233063D01*
X122855221Y-118230038D01*
X122675792Y-118228124D01*
X122459461Y-118227350D01*
X122420233Y-118227333D01*
X122217447Y-118227536D01*
X122053155Y-118228246D01*
X121923518Y-118229617D01*
X121824699Y-118231804D01*
X121752860Y-118234960D01*
X121704163Y-118239239D01*
X121674769Y-118244795D01*
X121660841Y-118251782D01*
X121658233Y-118257883D01*
X121642323Y-118291882D01*
X121611190Y-118321383D01*
X121599823Y-118326921D01*
X121580836Y-118331810D01*
X121551739Y-118336092D01*
X121510045Y-118339804D01*
X121453264Y-118342986D01*
X121378906Y-118345678D01*
X121284484Y-118347919D01*
X121167509Y-118349748D01*
X121025490Y-118351205D01*
X120855940Y-118352329D01*
X120656369Y-118353160D01*
X120424288Y-118353736D01*
X120157209Y-118354098D01*
X119852642Y-118354284D01*
X119527454Y-118354333D01*
X117490761Y-118354333D01*
X117433777Y-118305318D01*
X117387464Y-118240191D01*
X117372711Y-118161189D01*
X117389520Y-118082656D01*
X117433777Y-118022349D01*
X117490761Y-117973333D01*
X119527454Y-117973333D01*
X119869810Y-117973390D01*
X118802306Y-116546258D02*
X118761137Y-116475565D01*
X118761137Y-116475565D02*
X118753576Y-116396345D01*
X118753576Y-116396345D02*
X118779198Y-116322305D01*
X118779198Y-116322305D02*
X118810380Y-116286020D01*
X118810380Y-116286020D02*
X118826890Y-116272531D01*
X118826890Y-116272531D02*
X118844746Y-116261817D01*
X118844746Y-116261817D02*
X118868692Y-116253560D01*
X118868692Y-116253560D02*
X118903476Y-116247438D01*
X118903476Y-116247438D02*
X118953842Y-116243133D01*
X118953842Y-116243133D02*
X119024538Y-116240325D01*
X119024538Y-116240325D02*
X119120308Y-116238694D01*
X119120308Y-116238694D02*
X119245899Y-116237920D01*
X119245899Y-116237920D02*
X119406057Y-116237684D01*
X119406057Y-116237684D02*
X119528173Y-116237667D01*
X119528173Y-116237667D02*
X119713234Y-116237774D01*
X119713234Y-116237774D02*
X119860647Y-116238283D01*
X119860647Y-116238283D02*
X119975095Y-116239480D01*
X119975095Y-116239480D02*
X120061265Y-116241647D01*
X120061265Y-116241647D02*
X120123839Y-116245070D01*
X120123839Y-116245070D02*
X120167503Y-116250032D01*
X120167503Y-116250032D02*
X120196942Y-116256817D01*
X120196942Y-116256817D02*
X120216839Y-116265710D01*
X120216839Y-116265710D02*
X120231879Y-116276995D01*
X120231879Y-116276995D02*
X120235819Y-116280586D01*
X120235819Y-116280586D02*
X120274949Y-116330848D01*
X120274949Y-116330848D02*
X120295125Y-116376247D01*
X120295125Y-116376247D02*
X120295502Y-116441312D01*
X120295502Y-116441312D02*
X120273092Y-116510303D01*
X120273092Y-116510303D02*
X120235295Y-116564093D01*
X120235295Y-116564093D02*
X120217389Y-116577142D01*
X120217389Y-116577142D02*
X120186370Y-116582552D01*
X120186370Y-116582552D02*
X120117600Y-116587330D01*
X120117600Y-116587330D02*
X120015656Y-116591343D01*
X120015656Y-116591343D02*
X119885117Y-116594458D01*
X119885117Y-116594458D02*
X119730560Y-116596544D01*
X119730560Y-116596544D02*
X119556565Y-116597466D01*
X119556565Y-116597466D02*
X119514898Y-116597500D01*
X119514898Y-116597500D02*
X118850446Y-116597500D01*
X118850446Y-116597500D02*
X118802306Y-116546258D01*
X118802306Y-116546258D02*
X118802306Y-116546258D01*
G36*
X119713234Y-116237774D02*
G01*
X119860647Y-116238283D01*
X119975095Y-116239480D01*
X120061265Y-116241647D01*
X120123839Y-116245070D01*
X120167503Y-116250032D01*
X120196942Y-116256817D01*
X120216839Y-116265710D01*
X120231879Y-116276995D01*
X120235819Y-116280586D01*
X120274949Y-116330848D01*
X120295125Y-116376247D01*
X120295502Y-116441312D01*
X120273092Y-116510303D01*
X120235295Y-116564093D01*
X120217389Y-116577142D01*
X120186370Y-116582552D01*
X120117600Y-116587330D01*
X120015656Y-116591343D01*
X119885117Y-116594458D01*
X119730560Y-116596544D01*
X119556565Y-116597466D01*
X119514898Y-116597500D01*
X118850446Y-116597500D01*
X118802306Y-116546258D01*
X118761137Y-116475565D01*
X118753576Y-116396345D01*
X118779198Y-116322305D01*
X118810380Y-116286020D01*
X118826890Y-116272531D01*
X118844746Y-116261817D01*
X118868692Y-116253560D01*
X118903476Y-116247438D01*
X118953842Y-116243133D01*
X119024538Y-116240325D01*
X119120308Y-116238694D01*
X119245899Y-116237920D01*
X119406057Y-116237684D01*
X119528173Y-116237667D01*
X119713234Y-116237774D01*
G37*
X119713234Y-116237774D02*
X119860647Y-116238283D01*
X119975095Y-116239480D01*
X120061265Y-116241647D01*
X120123839Y-116245070D01*
X120167503Y-116250032D01*
X120196942Y-116256817D01*
X120216839Y-116265710D01*
X120231879Y-116276995D01*
X120235819Y-116280586D01*
X120274949Y-116330848D01*
X120295125Y-116376247D01*
X120295502Y-116441312D01*
X120273092Y-116510303D01*
X120235295Y-116564093D01*
X120217389Y-116577142D01*
X120186370Y-116582552D01*
X120117600Y-116587330D01*
X120015656Y-116591343D01*
X119885117Y-116594458D01*
X119730560Y-116596544D01*
X119556565Y-116597466D01*
X119514898Y-116597500D01*
X118850446Y-116597500D01*
X118802306Y-116546258D01*
X118761137Y-116475565D01*
X118753576Y-116396345D01*
X118779198Y-116322305D01*
X118810380Y-116286020D01*
X118826890Y-116272531D01*
X118844746Y-116261817D01*
X118868692Y-116253560D01*
X118903476Y-116247438D01*
X118953842Y-116243133D01*
X119024538Y-116240325D01*
X119120308Y-116238694D01*
X119245899Y-116237920D01*
X119406057Y-116237684D01*
X119528173Y-116237667D01*
X119713234Y-116237774D01*
D14*
%TO.C,J6*%
X174261340Y-111249800D02*
G75*
G03*
X174261340Y-111249800I-1251000J0D01*
G01*
%TO.C,J21*%
X152264940Y-123746600D02*
G75*
G03*
X152264940Y-123746600I-1251000J0D01*
G01*
%TO.C,J20*%
X163237740Y-123772000D02*
G75*
G03*
X163237740Y-123772000I-1251000J0D01*
G01*
%TO.C,J15*%
X130203400Y-111300600D02*
G75*
G03*
X130203400Y-111300600I-1251000J0D01*
G01*
%TO.C,J17*%
X174261340Y-73759400D02*
G75*
G03*
X174261340Y-73759400I-1251000J0D01*
G01*
%TO.C,J13*%
X163258060Y-86281600D02*
G75*
G03*
X163258060Y-86281600I-1251000J0D01*
G01*
%TD*%
M02*
