%TF.GenerationSoftware,KiCad,Pcbnew,(6.0.2)*%
%TF.CreationDate,2023-01-30T01:25:14-05:00*%
%TF.ProjectId,bottom,626f7474-6f6d-42e6-9b69-6361645f7063,rev?*%
%TF.SameCoordinates,Original*%
%TF.FileFunction,Profile,NP*%
%FSLAX46Y46*%
G04 Gerber Fmt 4.6, Leading zero omitted, Abs format (unit mm)*
G04 Created by KiCad (PCBNEW (6.0.2)) date 2023-01-30 01:25:14*
%MOMM*%
%LPD*%
G01*
G04 APERTURE LIST*
%TA.AperFunction,Profile*%
%ADD10C,0.100000*%
%TD*%
G04 APERTURE END LIST*
D10*
X117564615Y-135895223D02*
X117515801Y-135867077D01*
X112660878Y-90658636D02*
X112739970Y-90590634D01*
X115296174Y-73416322D02*
X115316185Y-73379469D01*
X112417283Y-127367868D02*
X112382130Y-127343706D01*
X115539020Y-73131974D02*
X115573579Y-73108219D01*
X186110100Y-73079005D02*
X186201804Y-73129269D01*
X112323951Y-91055276D02*
X112382863Y-90969136D01*
X115262052Y-73492966D02*
X115278098Y-73454221D01*
X115646187Y-73066293D02*
X115684037Y-73048236D01*
X184426819Y-65434066D02*
X184456891Y-65483456D01*
X115414581Y-73244033D02*
X115443446Y-73213612D01*
X112051196Y-126770447D02*
X112047854Y-126727975D01*
X184510999Y-73079000D02*
X186110100Y-73079005D01*
X184456891Y-65483456D02*
X184484309Y-65534367D01*
X117224789Y-135604693D02*
X117191785Y-135559087D01*
X181777597Y-135956891D02*
X181725891Y-135970461D01*
X144406244Y-64985591D02*
X144443981Y-64972742D01*
X112649870Y-127471427D02*
X112609021Y-127459327D01*
X181725891Y-135970461D02*
X181673025Y-135978722D01*
X112056756Y-126812686D02*
X112051196Y-126770447D01*
X112027973Y-91829551D02*
X112046930Y-91726876D01*
X115209000Y-90368992D02*
X115209956Y-73738107D01*
X143999004Y-65349909D02*
X144040591Y-65281024D01*
X184484309Y-65534367D02*
X184509087Y-65586974D01*
X112453608Y-127390129D02*
X112417283Y-127367868D01*
X112220012Y-91236130D02*
X112269637Y-91144325D01*
X112228081Y-127197504D02*
X112202115Y-127163662D01*
X117007885Y-135033761D02*
X117005238Y-134977528D01*
X144560661Y-64946656D02*
X183379975Y-64939000D01*
X117379344Y-135767923D02*
X117337532Y-135730227D01*
X184281816Y-65254450D02*
X184321590Y-65296423D01*
X184001979Y-65051667D02*
X184052869Y-65079124D01*
X117515801Y-135867077D02*
X117468581Y-135836427D01*
X183949756Y-65026961D02*
X184001979Y-65051667D01*
X187063496Y-74143678D02*
X187098206Y-74242097D01*
X112100721Y-91525337D02*
X112135429Y-91426919D01*
X115505792Y-73157473D02*
X115539020Y-73131974D01*
X186752727Y-73602939D02*
X186816052Y-73685891D01*
X117718826Y-135963662D02*
X117666254Y-135943572D01*
X112775425Y-127494700D02*
X112733186Y-127489138D01*
X112074464Y-126896003D02*
X112064509Y-126854525D01*
X117260148Y-135648499D02*
X117224789Y-135604693D01*
X187098206Y-74242097D02*
X187127738Y-74342191D01*
X112135404Y-127054780D02*
X112117066Y-127016325D01*
X144443981Y-64972742D02*
X144482410Y-64961939D01*
X181898657Y-135900699D02*
X181852027Y-135926837D01*
X181802938Y-135948129D02*
X181777597Y-135956891D01*
X186376360Y-73243569D02*
X186458974Y-73307420D01*
X112064509Y-126854525D02*
X112056756Y-126812686D01*
X144482410Y-64961939D02*
X144521315Y-64953241D01*
X116009859Y-72978960D02*
X144008998Y-72978999D01*
X117666254Y-135943572D02*
X117614798Y-135920736D01*
X112047854Y-126727975D02*
X112046740Y-126685359D01*
X112315978Y-127290131D02*
X112285038Y-127260768D01*
X187028634Y-127219996D02*
X187000903Y-127245048D01*
X186538105Y-73375459D02*
X186613582Y-73447531D01*
X187192694Y-74753882D02*
X187195415Y-74858180D01*
X117423081Y-135803366D02*
X117379344Y-135767923D01*
X115762359Y-73018167D02*
X115802568Y-73006256D01*
X112285038Y-127260768D02*
X112255749Y-127229901D01*
X187000903Y-127245048D02*
X186941857Y-127290752D01*
X112997139Y-90412489D02*
X113089077Y-90362221D01*
X183672925Y-64946401D02*
X183729843Y-64956603D01*
X115609379Y-73086279D02*
X115646187Y-73066293D01*
X184359089Y-65340440D02*
X184394208Y-65386379D01*
X184149941Y-65141913D02*
X184195892Y-65177103D01*
X186458974Y-73307420D02*
X186538105Y-73375459D01*
X187152012Y-74443689D02*
X187170968Y-74546367D01*
X115226369Y-73613434D02*
X115236146Y-73572707D01*
X182052074Y-135753377D02*
X182036328Y-135775079D01*
X182036328Y-135775079D02*
X182001693Y-135815865D01*
X115361820Y-73309194D02*
X115387380Y-73275882D01*
X112529501Y-127428800D02*
X112491048Y-127410458D01*
X117161201Y-135511762D02*
X117133177Y-135462937D01*
X144086958Y-65216199D02*
X144112700Y-65185760D01*
X187200999Y-92079999D02*
X187210999Y-101109998D01*
X187249563Y-126797030D02*
X187234527Y-126870220D01*
X187234527Y-126870220D02*
X187212164Y-126941513D01*
X182001693Y-135815865D02*
X181963135Y-135852891D01*
X186910611Y-127311345D02*
X186845324Y-127347580D01*
X112100766Y-126976963D02*
X112086548Y-126936802D01*
X112568812Y-127445086D02*
X112529501Y-127428800D01*
X112382863Y-90969136D02*
X112446186Y-90886184D01*
X187170968Y-74546367D02*
X187184538Y-74649841D01*
X117107786Y-135412752D02*
X117085049Y-135361253D01*
X117133177Y-135462937D02*
X117107786Y-135412752D01*
X183500056Y-64934011D02*
X183557871Y-64935089D01*
X115278098Y-73454221D02*
X115296174Y-73416322D01*
X115338097Y-73343712D02*
X115361820Y-73309194D01*
X112733186Y-127489138D02*
X112691245Y-127481363D01*
X115573579Y-73108219D02*
X115609379Y-73086279D01*
X183896252Y-65005030D02*
X183949756Y-65026961D01*
X184509087Y-65586974D02*
X184510999Y-73079000D01*
X182144188Y-135477819D02*
X182139175Y-135531091D01*
X186201804Y-73129269D02*
X186290573Y-73184142D01*
X112739970Y-90590634D02*
X112822541Y-90526816D01*
X186321000Y-101820481D02*
X186321000Y-114929502D01*
X187127738Y-74342191D02*
X187152012Y-74443689D01*
X112959000Y-101790504D02*
X111999004Y-101080093D01*
X144521315Y-64953241D02*
X144560661Y-64946656D01*
X112269637Y-91144325D02*
X112323951Y-91055276D01*
X183786141Y-64969802D02*
X183841663Y-64985959D01*
X117770000Y-135981000D02*
X117718826Y-135963662D01*
X144008998Y-72978999D02*
X143999004Y-65349909D01*
X115473864Y-73184743D02*
X115505792Y-73157473D01*
X112086548Y-126936802D02*
X112074464Y-126896003D01*
X117008999Y-127501000D02*
X112860000Y-127501000D01*
X183841663Y-64985959D02*
X183896252Y-65005030D01*
X117468581Y-135836427D02*
X117423081Y-135803366D01*
X187210999Y-101109998D02*
X186321000Y-101820481D01*
X117085049Y-135361253D02*
X117065037Y-135308578D01*
X115684037Y-73048236D02*
X115722828Y-73032166D01*
X186520459Y-127422959D02*
X182111003Y-127421000D01*
X182144651Y-135450926D02*
X182144188Y-135477819D01*
X183729843Y-64956603D02*
X183786141Y-64969802D01*
X182128791Y-135583530D02*
X182121594Y-135609359D01*
X182080105Y-135707799D02*
X182052074Y-135753377D01*
X112071204Y-91625380D02*
X112100721Y-91525337D01*
X117337532Y-135730227D02*
X117297728Y-135690344D01*
X112860000Y-127501000D02*
X112775425Y-127494700D01*
X181852027Y-135926837D02*
X181802938Y-135948129D01*
X112046740Y-126685359D02*
X112049004Y-115709900D01*
X144199288Y-65103357D02*
X144230964Y-65079153D01*
X186941857Y-127290752D02*
X186910611Y-127311345D01*
X112491048Y-127410458D02*
X112453608Y-127390129D01*
X115843294Y-72996477D02*
X115884528Y-72988832D01*
X113820007Y-90359000D02*
X115209000Y-90368992D01*
X115387380Y-73275882D02*
X115414581Y-73244033D01*
X112135429Y-91426919D02*
X112175221Y-91330445D01*
X186595057Y-127419181D02*
X186520459Y-127422959D01*
X187023702Y-74047203D02*
X187063496Y-74143678D01*
X117191785Y-135559087D02*
X117161201Y-135511762D01*
X144230964Y-65079153D02*
X144263902Y-65056696D01*
X115802568Y-73006256D02*
X115843294Y-72996477D01*
X181673025Y-135978722D02*
X181619543Y-135981573D01*
X186816052Y-73685891D02*
X186874994Y-73772075D01*
X186613582Y-73447531D02*
X186685163Y-73523401D01*
X112046930Y-91726876D02*
X112071204Y-91625380D01*
X186929334Y-73861171D02*
X186978932Y-73952933D01*
X115248071Y-73532447D02*
X115262052Y-73492966D01*
X112175221Y-91330445D02*
X112220012Y-91236130D01*
X117005238Y-134977528D02*
X117005553Y-134921287D01*
X184195892Y-65177103D02*
X184239878Y-65214639D01*
X144263902Y-65056696D02*
X144298005Y-65036052D01*
X117033495Y-135200536D02*
X117022043Y-135145472D01*
X186290573Y-73184142D02*
X186376360Y-73243569D01*
X112513747Y-90806647D02*
X112585400Y-90730703D01*
X184102236Y-65109235D02*
X184149941Y-65141913D01*
X187146418Y-127075554D02*
X187125852Y-127106757D01*
X112382130Y-127343706D02*
X112348332Y-127317768D01*
X182140999Y-135419939D02*
X182144651Y-135450926D01*
X144140050Y-65156757D02*
X144168967Y-65129237D01*
X111999004Y-101080093D02*
X111999000Y-92140000D01*
X186845324Y-127347580D02*
X186776613Y-127377064D01*
X186874994Y-73772075D02*
X186929334Y-73861171D01*
X115213245Y-73696297D02*
X115218725Y-73654667D01*
X112348332Y-127317768D02*
X112315978Y-127290131D01*
X112202115Y-127163662D02*
X112178016Y-127128593D01*
X112049004Y-115709900D02*
X112959000Y-114979520D01*
X186321000Y-114929502D02*
X187261000Y-115640000D01*
X187212164Y-126941513D02*
X187182702Y-127010179D01*
X115236146Y-73572707D02*
X115248071Y-73532447D01*
X111999000Y-92140000D02*
X112014402Y-91933023D01*
X112691245Y-127481363D02*
X112649870Y-127471427D01*
X186685163Y-73523401D02*
X186752727Y-73602939D01*
X182121594Y-135609359D02*
X182103343Y-135659657D01*
X144112700Y-65185760D02*
X144140050Y-65156757D01*
X181920980Y-135885844D02*
X181898657Y-135900699D01*
X115209956Y-73738107D02*
X115213245Y-73696297D01*
X187184538Y-74649841D02*
X187192694Y-74753882D01*
X182103343Y-135659657D02*
X182080105Y-135707799D01*
X186705369Y-127399415D02*
X186668965Y-127407862D01*
X115722828Y-73032166D02*
X115762359Y-73018167D01*
X187261000Y-126690000D02*
X187249563Y-126797030D01*
X182139175Y-135531091D02*
X182128791Y-135583530D01*
X115443446Y-73213612D02*
X115473864Y-73184743D01*
X182111003Y-127421000D02*
X182140999Y-135419939D01*
X187080148Y-127165803D02*
X187028634Y-127219996D01*
X117005553Y-134921287D02*
X117008829Y-134865116D01*
X112255749Y-127229901D02*
X112228081Y-127197504D01*
X115218725Y-73654667D02*
X115226369Y-73613434D01*
X187261000Y-115640000D02*
X187261000Y-126690000D01*
X183557871Y-64935089D02*
X183615548Y-64939223D01*
X144040591Y-65281024D02*
X144062898Y-65247984D01*
X144298005Y-65036052D02*
X144333174Y-65017281D01*
X184394208Y-65386379D02*
X184426819Y-65434066D01*
X117008829Y-134865116D02*
X117008999Y-127501000D01*
X183615548Y-64939223D02*
X183672925Y-64946401D01*
X187125852Y-127106757D02*
X187080148Y-127165803D01*
X115316185Y-73379469D02*
X115338097Y-73343712D01*
X186668965Y-127407862D02*
X186595057Y-127419181D01*
X112178016Y-127128593D02*
X112155756Y-127092267D01*
X112908370Y-90467360D02*
X112997139Y-90412489D01*
X144369305Y-65000438D02*
X144406244Y-64985591D01*
X186978932Y-73952933D02*
X187023702Y-74047203D01*
X112822541Y-90526816D02*
X112908370Y-90467360D01*
X115926157Y-72983349D02*
X115967964Y-72980058D01*
X112446186Y-90886184D02*
X112513747Y-90806647D01*
X184052869Y-65079124D02*
X184102236Y-65109235D01*
X183379975Y-64939000D02*
X183500056Y-64934011D01*
X144333174Y-65017281D02*
X144369305Y-65000438D01*
X187195415Y-74858180D02*
X187200999Y-92079999D01*
X117013495Y-135089829D02*
X117007885Y-135033761D01*
X186776613Y-127377064D02*
X186705369Y-127399415D01*
X144062898Y-65247984D02*
X144086958Y-65216199D01*
X112014402Y-91933023D02*
X112027973Y-91829551D01*
X184321590Y-65296423D02*
X184359089Y-65340440D01*
X112117066Y-127016325D02*
X112100766Y-126976963D01*
X112155756Y-127092267D02*
X112135404Y-127054780D01*
X112585400Y-90730703D02*
X112660878Y-90658636D01*
X184239878Y-65214639D02*
X184281816Y-65254450D01*
X187182702Y-127010179D02*
X187146418Y-127075554D01*
X117297728Y-135690344D02*
X117260148Y-135648499D01*
X112959000Y-114979520D02*
X112959000Y-101790504D01*
X115967964Y-72980058D02*
X116009859Y-72978960D01*
X117047843Y-135254973D02*
X117033495Y-135200536D01*
X113089077Y-90362221D02*
X113820007Y-90359000D01*
X117614798Y-135920736D02*
X117564615Y-135895223D01*
X112609021Y-127459327D02*
X112568812Y-127445086D01*
X181963135Y-135852891D02*
X181920980Y-135885844D01*
X117022043Y-135145472D02*
X117013495Y-135089829D01*
X144168967Y-65129237D02*
X144199288Y-65103357D01*
X115884528Y-72988832D02*
X115926157Y-72983349D01*
X181619543Y-135981573D02*
X117770000Y-135981000D01*
X117065037Y-135308578D02*
X117047843Y-135254973D01*
M02*
