%TF.GenerationSoftware,KiCad,Pcbnew,(6.0.2)*%
%TF.CreationDate,2023-01-30T01:25:14-05:00*%
%TF.ProjectId,bottom,626f7474-6f6d-42e6-9b69-6361645f7063,rev?*%
%TF.SameCoordinates,Original*%
%TF.FileFunction,Legend,Bot*%
%TF.FilePolarity,Positive*%
%FSLAX46Y46*%
G04 Gerber Fmt 4.6, Leading zero omitted, Abs format (unit mm)*
G04 Created by KiCad (PCBNEW (6.0.2)) date 2023-01-30 01:25:14*
%MOMM*%
%LPD*%
G01*
G04 APERTURE LIST*
%ADD10C,0.200000*%
%ADD11C,0.150000*%
%ADD12C,0.250000*%
%ADD13C,0.300000*%
%ADD14C,0.050800*%
%ADD15C,2.499360*%
%ADD16C,1.200000*%
G04 APERTURE END LIST*
D10*
X143348828Y-116229535D02*
X143348828Y-117579535D01*
X143863114Y-117579535D01*
X143991685Y-117515250D01*
X144055971Y-117450964D01*
X144120257Y-117322392D01*
X144120257Y-117129535D01*
X144055971Y-117000964D01*
X143991685Y-116936678D01*
X143863114Y-116872392D01*
X143348828Y-116872392D01*
X144891685Y-116229535D02*
X144763114Y-116293821D01*
X144698828Y-116358107D01*
X144634542Y-116486678D01*
X144634542Y-116872392D01*
X144698828Y-117000964D01*
X144763114Y-117065250D01*
X144891685Y-117129535D01*
X145084542Y-117129535D01*
X145213114Y-117065250D01*
X145277400Y-117000964D01*
X145341685Y-116872392D01*
X145341685Y-116486678D01*
X145277400Y-116358107D01*
X145213114Y-116293821D01*
X145084542Y-116229535D01*
X144891685Y-116229535D01*
X146498828Y-116293821D02*
X146370257Y-116229535D01*
X146113114Y-116229535D01*
X145984542Y-116293821D01*
X145920257Y-116358107D01*
X145855971Y-116486678D01*
X145855971Y-116872392D01*
X145920257Y-117000964D01*
X145984542Y-117065250D01*
X146113114Y-117129535D01*
X146370257Y-117129535D01*
X146498828Y-117065250D01*
X147077400Y-116229535D02*
X147077400Y-117579535D01*
X147205971Y-116743821D02*
X147591685Y-116229535D01*
X147591685Y-117129535D02*
X147077400Y-116615250D01*
X148684542Y-116293821D02*
X148555971Y-116229535D01*
X148298828Y-116229535D01*
X148170257Y-116293821D01*
X148105971Y-116422392D01*
X148105971Y-116936678D01*
X148170257Y-117065250D01*
X148298828Y-117129535D01*
X148555971Y-117129535D01*
X148684542Y-117065250D01*
X148748828Y-116936678D01*
X148748828Y-116808107D01*
X148105971Y-116679535D01*
X149134542Y-117129535D02*
X149648828Y-117129535D01*
X149327400Y-117579535D02*
X149327400Y-116422392D01*
X149391685Y-116293821D01*
X149520257Y-116229535D01*
X149648828Y-116229535D01*
X151384542Y-117579535D02*
X151641685Y-117579535D01*
X151770257Y-117515250D01*
X151898828Y-117386678D01*
X151963114Y-117129535D01*
X151963114Y-116679535D01*
X151898828Y-116422392D01*
X151770257Y-116293821D01*
X151641685Y-116229535D01*
X151384542Y-116229535D01*
X151255971Y-116293821D01*
X151127400Y-116422392D01*
X151063114Y-116679535D01*
X151063114Y-117129535D01*
X151127400Y-117386678D01*
X151255971Y-117515250D01*
X151384542Y-117579535D01*
X152541685Y-117129535D02*
X152541685Y-115779535D01*
X152541685Y-117065250D02*
X152670257Y-117129535D01*
X152927400Y-117129535D01*
X153055971Y-117065250D01*
X153120257Y-117000964D01*
X153184542Y-116872392D01*
X153184542Y-116486678D01*
X153120257Y-116358107D01*
X153055971Y-116293821D01*
X152927400Y-116229535D01*
X152670257Y-116229535D01*
X152541685Y-116293821D01*
X154277400Y-116293821D02*
X154148828Y-116229535D01*
X153891685Y-116229535D01*
X153763114Y-116293821D01*
X153698828Y-116422392D01*
X153698828Y-116936678D01*
X153763114Y-117065250D01*
X153891685Y-117129535D01*
X154148828Y-117129535D01*
X154277400Y-117065250D01*
X154341685Y-116936678D01*
X154341685Y-116808107D01*
X153698828Y-116679535D01*
X154920257Y-116229535D02*
X154920257Y-117129535D01*
X154920257Y-116872392D02*
X154984542Y-117000964D01*
X155048828Y-117065250D01*
X155177400Y-117129535D01*
X155305971Y-117129535D01*
X156334542Y-116229535D02*
X156334542Y-116936678D01*
X156270257Y-117065250D01*
X156141685Y-117129535D01*
X155884542Y-117129535D01*
X155755971Y-117065250D01*
X156334542Y-116293821D02*
X156205971Y-116229535D01*
X155884542Y-116229535D01*
X155755971Y-116293821D01*
X155691685Y-116422392D01*
X155691685Y-116550964D01*
X155755971Y-116679535D01*
X155884542Y-116743821D01*
X156205971Y-116743821D01*
X156334542Y-116808107D01*
X156784542Y-117129535D02*
X157298828Y-117129535D01*
X156977400Y-117579535D02*
X156977400Y-116422392D01*
X157041685Y-116293821D01*
X157170257Y-116229535D01*
X157298828Y-116229535D01*
X157941685Y-116229535D02*
X157813114Y-116293821D01*
X157748828Y-116358107D01*
X157684542Y-116486678D01*
X157684542Y-116872392D01*
X157748828Y-117000964D01*
X157813114Y-117065250D01*
X157941685Y-117129535D01*
X158134542Y-117129535D01*
X158263114Y-117065250D01*
X158327400Y-117000964D01*
X158391685Y-116872392D01*
X158391685Y-116486678D01*
X158327400Y-116358107D01*
X158263114Y-116293821D01*
X158134542Y-116229535D01*
X157941685Y-116229535D01*
X158970257Y-116229535D02*
X158970257Y-117129535D01*
X158970257Y-116872392D02*
X159034542Y-117000964D01*
X159098828Y-117065250D01*
X159227400Y-117129535D01*
X159355971Y-117129535D01*
X160834542Y-116229535D02*
X160834542Y-117579535D01*
X161284542Y-116615250D01*
X161734542Y-117579535D01*
X161734542Y-116229535D01*
X162377400Y-116229535D02*
X162377400Y-117129535D01*
X162377400Y-117579535D02*
X162313114Y-117515250D01*
X162377400Y-117450964D01*
X162441685Y-117515250D01*
X162377400Y-117579535D01*
X162377400Y-117450964D01*
X163598828Y-116229535D02*
X163598828Y-117579535D01*
X163598828Y-116293821D02*
X163470257Y-116229535D01*
X163213114Y-116229535D01*
X163084542Y-116293821D01*
X163020257Y-116358107D01*
X162955971Y-116486678D01*
X162955971Y-116872392D01*
X163020257Y-117000964D01*
X163084542Y-117065250D01*
X163213114Y-117129535D01*
X163470257Y-117129535D01*
X163598828Y-117065250D01*
X164241685Y-116229535D02*
X164241685Y-117129535D01*
X164241685Y-117579535D02*
X164177400Y-117515250D01*
X164241685Y-117450964D01*
X164305971Y-117515250D01*
X164241685Y-117579535D01*
X164241685Y-117450964D01*
X165848828Y-116615250D02*
X166491685Y-116615250D01*
X165720257Y-116229535D02*
X166170257Y-117579535D01*
X166620257Y-116229535D01*
X167648828Y-116229535D02*
X167648828Y-117579535D01*
X167648828Y-116293821D02*
X167520257Y-116229535D01*
X167263114Y-116229535D01*
X167134542Y-116293821D01*
X167070257Y-116358107D01*
X167005971Y-116486678D01*
X167005971Y-116872392D01*
X167070257Y-117000964D01*
X167134542Y-117065250D01*
X167263114Y-117129535D01*
X167520257Y-117129535D01*
X167648828Y-117065250D01*
X168870257Y-116229535D02*
X168870257Y-116936678D01*
X168805971Y-117065250D01*
X168677400Y-117129535D01*
X168420257Y-117129535D01*
X168291685Y-117065250D01*
X168870257Y-116293821D02*
X168741685Y-116229535D01*
X168420257Y-116229535D01*
X168291685Y-116293821D01*
X168227400Y-116422392D01*
X168227400Y-116550964D01*
X168291685Y-116679535D01*
X168420257Y-116743821D01*
X168741685Y-116743821D01*
X168870257Y-116808107D01*
X169513114Y-117129535D02*
X169513114Y-115779535D01*
X169513114Y-117065250D02*
X169641685Y-117129535D01*
X169898828Y-117129535D01*
X170027400Y-117065250D01*
X170091685Y-117000964D01*
X170155971Y-116872392D01*
X170155971Y-116486678D01*
X170091685Y-116358107D01*
X170027400Y-116293821D01*
X169898828Y-116229535D01*
X169641685Y-116229535D01*
X169513114Y-116293821D01*
X170541685Y-117129535D02*
X171055971Y-117129535D01*
X170734542Y-117579535D02*
X170734542Y-116422392D01*
X170798828Y-116293821D01*
X170927400Y-116229535D01*
X171055971Y-116229535D01*
X172020257Y-116293821D02*
X171891685Y-116229535D01*
X171634542Y-116229535D01*
X171505971Y-116293821D01*
X171441685Y-116422392D01*
X171441685Y-116936678D01*
X171505971Y-117065250D01*
X171634542Y-117129535D01*
X171891685Y-117129535D01*
X172020257Y-117065250D01*
X172084542Y-116936678D01*
X172084542Y-116808107D01*
X171441685Y-116679535D01*
X172663114Y-116229535D02*
X172663114Y-117129535D01*
X172663114Y-116872392D02*
X172727400Y-117000964D01*
X172791685Y-117065250D01*
X172920257Y-117129535D01*
X173048828Y-117129535D01*
X149584542Y-114056035D02*
X149584542Y-115406035D01*
X149584542Y-114763178D02*
X150355971Y-114763178D01*
X150355971Y-114056035D02*
X150355971Y-115406035D01*
X151577400Y-114056035D02*
X151577400Y-114763178D01*
X151513114Y-114891750D01*
X151384542Y-114956035D01*
X151127400Y-114956035D01*
X150998828Y-114891750D01*
X151577400Y-114120321D02*
X151448828Y-114056035D01*
X151127400Y-114056035D01*
X150998828Y-114120321D01*
X150934542Y-114248892D01*
X150934542Y-114377464D01*
X150998828Y-114506035D01*
X151127400Y-114570321D01*
X151448828Y-114570321D01*
X151577400Y-114634607D01*
X152220257Y-114956035D02*
X152220257Y-114056035D01*
X152220257Y-114827464D02*
X152284542Y-114891750D01*
X152413114Y-114956035D01*
X152605971Y-114956035D01*
X152734542Y-114891750D01*
X152798828Y-114763178D01*
X152798828Y-114056035D01*
X153313114Y-114956035D02*
X154020257Y-114956035D01*
X153313114Y-114056035D01*
X154020257Y-114056035D01*
X155370257Y-115406035D02*
X156141685Y-115406035D01*
X155755971Y-114056035D02*
X155755971Y-115406035D01*
X157105971Y-114120321D02*
X156977400Y-114056035D01*
X156720257Y-114056035D01*
X156591685Y-114120321D01*
X156527400Y-114248892D01*
X156527400Y-114763178D01*
X156591685Y-114891750D01*
X156720257Y-114956035D01*
X156977400Y-114956035D01*
X157105971Y-114891750D01*
X157170257Y-114763178D01*
X157170257Y-114634607D01*
X156527400Y-114506035D01*
X158327400Y-114120321D02*
X158198828Y-114056035D01*
X157941685Y-114056035D01*
X157813114Y-114120321D01*
X157748828Y-114184607D01*
X157684542Y-114313178D01*
X157684542Y-114698892D01*
X157748828Y-114827464D01*
X157813114Y-114891750D01*
X157941685Y-114956035D01*
X158198828Y-114956035D01*
X158327400Y-114891750D01*
X158905971Y-114056035D02*
X158905971Y-115406035D01*
X159484542Y-114056035D02*
X159484542Y-114763178D01*
X159420257Y-114891750D01*
X159291685Y-114956035D01*
X159098828Y-114956035D01*
X158970257Y-114891750D01*
X158905971Y-114827464D01*
X161155971Y-114056035D02*
X161155971Y-115406035D01*
X161798828Y-114956035D02*
X161798828Y-114056035D01*
X161798828Y-114827464D02*
X161863114Y-114891750D01*
X161991685Y-114956035D01*
X162184542Y-114956035D01*
X162313114Y-114891750D01*
X162377400Y-114763178D01*
X162377400Y-114056035D01*
X163598828Y-114120321D02*
X163470257Y-114056035D01*
X163213114Y-114056035D01*
X163084542Y-114120321D01*
X163020257Y-114184607D01*
X162955971Y-114313178D01*
X162955971Y-114698892D01*
X163020257Y-114827464D01*
X163084542Y-114891750D01*
X163213114Y-114956035D01*
X163470257Y-114956035D01*
X163598828Y-114891750D01*
X165141685Y-115277464D02*
X165205971Y-115341750D01*
X165334542Y-115406035D01*
X165655971Y-115406035D01*
X165784542Y-115341750D01*
X165848828Y-115277464D01*
X165913114Y-115148892D01*
X165913114Y-115020321D01*
X165848828Y-114827464D01*
X165077400Y-114056035D01*
X165913114Y-114056035D01*
X166748828Y-115406035D02*
X166877400Y-115406035D01*
X167005971Y-115341750D01*
X167070257Y-115277464D01*
X167134542Y-115148892D01*
X167198828Y-114891750D01*
X167198828Y-114570321D01*
X167134542Y-114313178D01*
X167070257Y-114184607D01*
X167005971Y-114120321D01*
X166877400Y-114056035D01*
X166748828Y-114056035D01*
X166620257Y-114120321D01*
X166555971Y-114184607D01*
X166491685Y-114313178D01*
X166427400Y-114570321D01*
X166427400Y-114891750D01*
X166491685Y-115148892D01*
X166555971Y-115277464D01*
X166620257Y-115341750D01*
X166748828Y-115406035D01*
X167713114Y-115277464D02*
X167777400Y-115341750D01*
X167905971Y-115406035D01*
X168227400Y-115406035D01*
X168355971Y-115341750D01*
X168420257Y-115277464D01*
X168484542Y-115148892D01*
X168484542Y-115020321D01*
X168420257Y-114827464D01*
X167648828Y-114056035D01*
X168484542Y-114056035D01*
X168998828Y-115277464D02*
X169063114Y-115341750D01*
X169191685Y-115406035D01*
X169513114Y-115406035D01*
X169641685Y-115341750D01*
X169705971Y-115277464D01*
X169770257Y-115148892D01*
X169770257Y-115020321D01*
X169705971Y-114827464D01*
X168934542Y-114056035D01*
X169770257Y-114056035D01*
D11*
X155728590Y-113382619D02*
X156061923Y-112382619D01*
X156395257Y-113382619D01*
X156633352Y-113382619D02*
X157252400Y-113382619D01*
X156919066Y-113001666D01*
X157061923Y-113001666D01*
X157157161Y-112954047D01*
X157204780Y-112906428D01*
X157252400Y-112811190D01*
X157252400Y-112573095D01*
X157204780Y-112477857D01*
X157157161Y-112430238D01*
X157061923Y-112382619D01*
X156776209Y-112382619D01*
X156680971Y-112430238D01*
X156633352Y-112477857D01*
X157680971Y-112477857D02*
X157728590Y-112430238D01*
X157680971Y-112382619D01*
X157633352Y-112430238D01*
X157680971Y-112477857D01*
X157680971Y-112382619D01*
X158633352Y-113382619D02*
X158157161Y-113382619D01*
X158109542Y-112906428D01*
X158157161Y-112954047D01*
X158252400Y-113001666D01*
X158490495Y-113001666D01*
X158585733Y-112954047D01*
X158633352Y-112906428D01*
X158680971Y-112811190D01*
X158680971Y-112573095D01*
X158633352Y-112477857D01*
X158585733Y-112430238D01*
X158490495Y-112382619D01*
X158252400Y-112382619D01*
X158157161Y-112430238D01*
X158109542Y-112477857D01*
D12*
X118362240Y-78384761D02*
X117362240Y-78384761D01*
X118076526Y-78718095D01*
X117362240Y-79051428D01*
X118362240Y-79051428D01*
X118362240Y-79527619D02*
X117362240Y-79527619D01*
X118362240Y-80003809D02*
X117362240Y-80003809D01*
X117362240Y-80241904D01*
X117409860Y-80384761D01*
X117505098Y-80480000D01*
X117600336Y-80527619D01*
X117790812Y-80575238D01*
X117933669Y-80575238D01*
X118124145Y-80527619D01*
X118219383Y-80480000D01*
X118314621Y-80384761D01*
X118362240Y-80241904D01*
X118362240Y-80003809D01*
X118362240Y-81003809D02*
X117362240Y-81003809D01*
X118362240Y-82241904D02*
X117362240Y-82241904D01*
X117838431Y-82241904D02*
X117838431Y-82813333D01*
X118362240Y-82813333D02*
X117362240Y-82813333D01*
X117362240Y-83480000D02*
X117362240Y-83670476D01*
X117409860Y-83765714D01*
X117505098Y-83860952D01*
X117695574Y-83908571D01*
X118028907Y-83908571D01*
X118219383Y-83860952D01*
X118314621Y-83765714D01*
X118362240Y-83670476D01*
X118362240Y-83480000D01*
X118314621Y-83384761D01*
X118219383Y-83289523D01*
X118028907Y-83241904D01*
X117695574Y-83241904D01*
X117505098Y-83289523D01*
X117409860Y-83384761D01*
X117362240Y-83480000D01*
X118314621Y-84289523D02*
X118362240Y-84432380D01*
X118362240Y-84670476D01*
X118314621Y-84765714D01*
X118267002Y-84813333D01*
X118171764Y-84860952D01*
X118076526Y-84860952D01*
X117981288Y-84813333D01*
X117933669Y-84765714D01*
X117886050Y-84670476D01*
X117838431Y-84480000D01*
X117790812Y-84384761D01*
X117743193Y-84337142D01*
X117647955Y-84289523D01*
X117552717Y-84289523D01*
X117457479Y-84337142D01*
X117409860Y-84384761D01*
X117362240Y-84480000D01*
X117362240Y-84718095D01*
X117409860Y-84860952D01*
X117362240Y-85146666D02*
X117362240Y-85718095D01*
X118362240Y-85432380D02*
X117362240Y-85432380D01*
D13*
X134131288Y-95851428D02*
X133059860Y-95851428D01*
X132845574Y-95780000D01*
X132702717Y-95637142D01*
X132631288Y-95422857D01*
X132631288Y-95280000D01*
X132631288Y-97280000D02*
X132631288Y-96565714D01*
X134131288Y-96565714D01*
X132774145Y-98637142D02*
X132702717Y-98565714D01*
X132631288Y-98351428D01*
X132631288Y-98208571D01*
X132702717Y-97994285D01*
X132845574Y-97851428D01*
X132988431Y-97780000D01*
X133274145Y-97708571D01*
X133488431Y-97708571D01*
X133774145Y-97780000D01*
X133917002Y-97851428D01*
X134059860Y-97994285D01*
X134131288Y-98208571D01*
X134131288Y-98351428D01*
X134059860Y-98565714D01*
X133988431Y-98637142D01*
X134131288Y-99708571D02*
X133059860Y-99708571D01*
X132845574Y-99637142D01*
X132702717Y-99494285D01*
X132631288Y-99280000D01*
X132631288Y-99137142D01*
X132631288Y-101137142D02*
X132631288Y-100422857D01*
X134131288Y-100422857D01*
X132774145Y-102494285D02*
X132702717Y-102422857D01*
X132631288Y-102208571D01*
X132631288Y-102065714D01*
X132702717Y-101851428D01*
X132845574Y-101708571D01*
X132988431Y-101637142D01*
X133274145Y-101565714D01*
X133488431Y-101565714D01*
X133774145Y-101637142D01*
X133917002Y-101708571D01*
X134059860Y-101851428D01*
X134131288Y-102065714D01*
X134131288Y-102208571D01*
X134059860Y-102422857D01*
X133988431Y-102494285D01*
X134131288Y-103565714D02*
X133059860Y-103565714D01*
X132845574Y-103494285D01*
X132702717Y-103351428D01*
X132631288Y-103137142D01*
X132631288Y-102994285D01*
X132631288Y-104994285D02*
X132631288Y-104280000D01*
X134131288Y-104280000D01*
X132774145Y-106351428D02*
X132702717Y-106280000D01*
X132631288Y-106065714D01*
X132631288Y-105922857D01*
X132702717Y-105708571D01*
X132845574Y-105565714D01*
X132988431Y-105494285D01*
X133274145Y-105422857D01*
X133488431Y-105422857D01*
X133774145Y-105494285D01*
X133917002Y-105565714D01*
X134059860Y-105708571D01*
X134131288Y-105922857D01*
X134131288Y-106065714D01*
X134059860Y-106280000D01*
X133988431Y-106351428D01*
X134131288Y-107422857D02*
X133059860Y-107422857D01*
X132845574Y-107351428D01*
X132702717Y-107208571D01*
X132631288Y-106994285D01*
X132631288Y-106851428D01*
X132631288Y-108851428D02*
X132631288Y-108137142D01*
X134131288Y-108137142D01*
X132774145Y-110208571D02*
X132702717Y-110137142D01*
X132631288Y-109922857D01*
X132631288Y-109780000D01*
X132702717Y-109565714D01*
X132845574Y-109422857D01*
X132988431Y-109351428D01*
X133274145Y-109280000D01*
X133488431Y-109280000D01*
X133774145Y-109351428D01*
X133917002Y-109422857D01*
X134059860Y-109565714D01*
X134131288Y-109780000D01*
X134131288Y-109922857D01*
X134059860Y-110137142D01*
X133988431Y-110208571D01*
X177495257Y-80401071D02*
X177495257Y-78901071D01*
X176995257Y-79972500D01*
X176495257Y-78901071D01*
X176495257Y-80401071D01*
X175780971Y-80401071D02*
X175780971Y-78901071D01*
X175066685Y-80401071D02*
X175066685Y-78901071D01*
X174709542Y-78901071D01*
X174495257Y-78972500D01*
X174352400Y-79115357D01*
X174280971Y-79258214D01*
X174209542Y-79543928D01*
X174209542Y-79758214D01*
X174280971Y-80043928D01*
X174352400Y-80186785D01*
X174495257Y-80329642D01*
X174709542Y-80401071D01*
X175066685Y-80401071D01*
X173566685Y-80401071D02*
X173566685Y-78901071D01*
X177030971Y-81316071D02*
X176745257Y-81316071D01*
X176602400Y-81387500D01*
X176459542Y-81530357D01*
X176388114Y-81816071D01*
X176388114Y-82316071D01*
X176459542Y-82601785D01*
X176602400Y-82744642D01*
X176745257Y-82816071D01*
X177030971Y-82816071D01*
X177173828Y-82744642D01*
X177316685Y-82601785D01*
X177388114Y-82316071D01*
X177388114Y-81816071D01*
X177316685Y-81530357D01*
X177173828Y-81387500D01*
X177030971Y-81316071D01*
X175745257Y-81316071D02*
X175745257Y-82530357D01*
X175673828Y-82673214D01*
X175602400Y-82744642D01*
X175459542Y-82816071D01*
X175173828Y-82816071D01*
X175030971Y-82744642D01*
X174959542Y-82673214D01*
X174888114Y-82530357D01*
X174888114Y-81316071D01*
X174388114Y-81316071D02*
X173530971Y-81316071D01*
X173959542Y-82816071D02*
X173959542Y-81316071D01*
X181773828Y-128137142D02*
X181559542Y-128208571D01*
X181202400Y-128208571D01*
X181059542Y-128137142D01*
X180988114Y-128065714D01*
X180916685Y-127922857D01*
X180916685Y-127780000D01*
X180988114Y-127637142D01*
X181059542Y-127565714D01*
X181202400Y-127494285D01*
X181488114Y-127422857D01*
X181630971Y-127351428D01*
X181702400Y-127280000D01*
X181773828Y-127137142D01*
X181773828Y-126994285D01*
X181702400Y-126851428D01*
X181630971Y-126780000D01*
X181488114Y-126708571D01*
X181130971Y-126708571D01*
X180916685Y-126780000D01*
X179988114Y-127494285D02*
X179988114Y-128208571D01*
X180488114Y-126708571D02*
X179988114Y-127494285D01*
X179488114Y-126708571D01*
X178988114Y-128208571D02*
X178988114Y-126708571D01*
X178130971Y-128208571D01*
X178130971Y-126708571D01*
X176559542Y-128065714D02*
X176630971Y-128137142D01*
X176845257Y-128208571D01*
X176988114Y-128208571D01*
X177202400Y-128137142D01*
X177345257Y-127994285D01*
X177416685Y-127851428D01*
X177488114Y-127565714D01*
X177488114Y-127351428D01*
X177416685Y-127065714D01*
X177345257Y-126922857D01*
X177202400Y-126780000D01*
X176988114Y-126708571D01*
X176845257Y-126708571D01*
X176630971Y-126780000D01*
X176559542Y-126851428D01*
X174488114Y-126708571D02*
X174202400Y-126708571D01*
X174059542Y-126780000D01*
X173916685Y-126922857D01*
X173845257Y-127208571D01*
X173845257Y-127708571D01*
X173916685Y-127994285D01*
X174059542Y-128137142D01*
X174202400Y-128208571D01*
X174488114Y-128208571D01*
X174630971Y-128137142D01*
X174773828Y-127994285D01*
X174845257Y-127708571D01*
X174845257Y-127208571D01*
X174773828Y-126922857D01*
X174630971Y-126780000D01*
X174488114Y-126708571D01*
X173202400Y-126708571D02*
X173202400Y-127922857D01*
X173130971Y-128065714D01*
X173059542Y-128137142D01*
X172916685Y-128208571D01*
X172630971Y-128208571D01*
X172488114Y-128137142D01*
X172416685Y-128065714D01*
X172345257Y-127922857D01*
X172345257Y-126708571D01*
X171845257Y-126708571D02*
X170988114Y-126708571D01*
X171416685Y-128208571D02*
X171416685Y-126708571D01*
D12*
X134828590Y-74627380D02*
X134828590Y-73627380D01*
X134447638Y-73627380D01*
X134352400Y-73675000D01*
X134304780Y-73722619D01*
X134257161Y-73817857D01*
X134257161Y-73960714D01*
X134304780Y-74055952D01*
X134352400Y-74103571D01*
X134447638Y-74151190D01*
X134828590Y-74151190D01*
X133685733Y-74627380D02*
X133780971Y-74579761D01*
X133828590Y-74532142D01*
X133876209Y-74436904D01*
X133876209Y-74151190D01*
X133828590Y-74055952D01*
X133780971Y-74008333D01*
X133685733Y-73960714D01*
X133542876Y-73960714D01*
X133447638Y-74008333D01*
X133400019Y-74055952D01*
X133352400Y-74151190D01*
X133352400Y-74436904D01*
X133400019Y-74532142D01*
X133447638Y-74579761D01*
X133542876Y-74627380D01*
X133685733Y-74627380D01*
X133019066Y-73960714D02*
X132828590Y-74627380D01*
X132638114Y-74151190D01*
X132447638Y-74627380D01*
X132257161Y-73960714D01*
X131495257Y-74579761D02*
X131590495Y-74627380D01*
X131780971Y-74627380D01*
X131876209Y-74579761D01*
X131923828Y-74484523D01*
X131923828Y-74103571D01*
X131876209Y-74008333D01*
X131780971Y-73960714D01*
X131590495Y-73960714D01*
X131495257Y-74008333D01*
X131447638Y-74103571D01*
X131447638Y-74198809D01*
X131923828Y-74294047D01*
X131019066Y-74627380D02*
X131019066Y-73960714D01*
X131019066Y-74151190D02*
X130971447Y-74055952D01*
X130923828Y-74008333D01*
X130828590Y-73960714D01*
X130733352Y-73960714D01*
X128828590Y-74627380D02*
X128876209Y-74627380D01*
X128971447Y-74579761D01*
X129114304Y-74436904D01*
X129352400Y-74151190D01*
X129447638Y-74008333D01*
X129495257Y-73865476D01*
X129495257Y-73770238D01*
X129447638Y-73675000D01*
X129352400Y-73627380D01*
X129304780Y-73627380D01*
X129209542Y-73675000D01*
X129161923Y-73770238D01*
X129161923Y-73817857D01*
X129209542Y-73913095D01*
X129257161Y-73960714D01*
X129542876Y-74151190D01*
X129590495Y-74198809D01*
X129638114Y-74294047D01*
X129638114Y-74436904D01*
X129590495Y-74532142D01*
X129542876Y-74579761D01*
X129447638Y-74627380D01*
X129304780Y-74627380D01*
X129209542Y-74579761D01*
X129161923Y-74532142D01*
X129019066Y-74341666D01*
X128971447Y-74198809D01*
X128971447Y-74103571D01*
X135947638Y-76237380D02*
X135947638Y-75237380D01*
X135614304Y-75951666D01*
X135280971Y-75237380D01*
X135280971Y-76237380D01*
X134804780Y-76237380D02*
X134804780Y-75237380D01*
X134328590Y-76237380D02*
X134328590Y-75237380D01*
X134090495Y-75237380D01*
X133947638Y-75285000D01*
X133852400Y-75380238D01*
X133804780Y-75475476D01*
X133757161Y-75665952D01*
X133757161Y-75808809D01*
X133804780Y-75999285D01*
X133852400Y-76094523D01*
X133947638Y-76189761D01*
X134090495Y-76237380D01*
X134328590Y-76237380D01*
X133328590Y-76237380D02*
X133328590Y-75237380D01*
X132090495Y-76237380D02*
X132090495Y-75237380D01*
X131852400Y-75237380D01*
X131709542Y-75285000D01*
X131614304Y-75380238D01*
X131566685Y-75475476D01*
X131519066Y-75665952D01*
X131519066Y-75808809D01*
X131566685Y-75999285D01*
X131614304Y-76094523D01*
X131709542Y-76189761D01*
X131852400Y-76237380D01*
X132090495Y-76237380D01*
X130709542Y-76189761D02*
X130804780Y-76237380D01*
X130995257Y-76237380D01*
X131090495Y-76189761D01*
X131138114Y-76094523D01*
X131138114Y-75713571D01*
X131090495Y-75618333D01*
X130995257Y-75570714D01*
X130804780Y-75570714D01*
X130709542Y-75618333D01*
X130661923Y-75713571D01*
X130661923Y-75808809D01*
X131138114Y-75904047D01*
X130328590Y-75570714D02*
X130090495Y-76237380D01*
X129852400Y-75570714D01*
X129471447Y-76237380D02*
X129471447Y-75570714D01*
X129471447Y-75237380D02*
X129519066Y-75285000D01*
X129471447Y-75332619D01*
X129423828Y-75285000D01*
X129471447Y-75237380D01*
X129471447Y-75332619D01*
X128566685Y-76189761D02*
X128661923Y-76237380D01*
X128852400Y-76237380D01*
X128947638Y-76189761D01*
X128995257Y-76142142D01*
X129042876Y-76046904D01*
X129042876Y-75761190D01*
X128995257Y-75665952D01*
X128947638Y-75618333D01*
X128852400Y-75570714D01*
X128661923Y-75570714D01*
X128566685Y-75618333D01*
X127757161Y-76189761D02*
X127852400Y-76237380D01*
X128042876Y-76237380D01*
X128138114Y-76189761D01*
X128185733Y-76094523D01*
X128185733Y-75713571D01*
X128138114Y-75618333D01*
X128042876Y-75570714D01*
X127852400Y-75570714D01*
X127757161Y-75618333D01*
X127709542Y-75713571D01*
X127709542Y-75808809D01*
X128185733Y-75904047D01*
D13*
X154916685Y-80351071D02*
X154916685Y-78851071D01*
X154416685Y-79922500D01*
X153916685Y-78851071D01*
X153916685Y-80351071D01*
X153202400Y-80351071D02*
X153202400Y-78851071D01*
X152488114Y-80351071D02*
X152488114Y-78851071D01*
X152130971Y-78851071D01*
X151916685Y-78922500D01*
X151773828Y-79065357D01*
X151702400Y-79208214D01*
X151630971Y-79493928D01*
X151630971Y-79708214D01*
X151702400Y-79993928D01*
X151773828Y-80136785D01*
X151916685Y-80279642D01*
X152130971Y-80351071D01*
X152488114Y-80351071D01*
X150988114Y-80351071D02*
X150988114Y-78851071D01*
X153738114Y-82766071D02*
X153738114Y-81266071D01*
X153023828Y-82766071D02*
X153023828Y-81266071D01*
X152166685Y-82766071D01*
X152166685Y-81266071D01*
D10*
X151376209Y-105903809D02*
X151328590Y-105951428D01*
X151233352Y-105999047D01*
X151138114Y-105999047D01*
X151042876Y-105951428D01*
X150995257Y-105903809D01*
X150947638Y-105808571D01*
X150947638Y-105713333D01*
X150995257Y-105618095D01*
X151042876Y-105570476D01*
X151138114Y-105522857D01*
X151233352Y-105522857D01*
X151328590Y-105570476D01*
X151376209Y-105618095D01*
X151376209Y-105999047D02*
X151376209Y-105618095D01*
X151423828Y-105570476D01*
X151471447Y-105570476D01*
X151566685Y-105618095D01*
X151614304Y-105713333D01*
X151614304Y-105951428D01*
X151519066Y-106094285D01*
X151376209Y-106189523D01*
X151185733Y-106237142D01*
X150995257Y-106189523D01*
X150852400Y-106094285D01*
X150757161Y-105951428D01*
X150709542Y-105760952D01*
X150757161Y-105570476D01*
X150852400Y-105427619D01*
X150995257Y-105332380D01*
X151185733Y-105284761D01*
X151376209Y-105332380D01*
X151519066Y-105427619D01*
X152042876Y-105427619D02*
X152042876Y-106427619D01*
X152471447Y-105427619D02*
X152471447Y-105951428D01*
X152423828Y-106046666D01*
X152328590Y-106094285D01*
X152185733Y-106094285D01*
X152090495Y-106046666D01*
X152042876Y-105999047D01*
X153376209Y-105427619D02*
X153376209Y-105951428D01*
X153328590Y-106046666D01*
X153233352Y-106094285D01*
X153042876Y-106094285D01*
X152947638Y-106046666D01*
X153376209Y-105475238D02*
X153280971Y-105427619D01*
X153042876Y-105427619D01*
X152947638Y-105475238D01*
X152900019Y-105570476D01*
X152900019Y-105665714D01*
X152947638Y-105760952D01*
X153042876Y-105808571D01*
X153280971Y-105808571D01*
X153376209Y-105856190D01*
X153852400Y-106094285D02*
X153852400Y-105427619D01*
X153852400Y-105999047D02*
X153900019Y-106046666D01*
X153995257Y-106094285D01*
X154138114Y-106094285D01*
X154233352Y-106046666D01*
X154280971Y-105951428D01*
X154280971Y-105427619D01*
X154661923Y-106094285D02*
X155185733Y-106094285D01*
X154661923Y-105427619D01*
X155185733Y-105427619D01*
X155328590Y-105332380D02*
X156090495Y-105332380D01*
X156185733Y-106094285D02*
X156566685Y-106094285D01*
X156328590Y-106427619D02*
X156328590Y-105570476D01*
X156376209Y-105475238D01*
X156471447Y-105427619D01*
X156566685Y-105427619D01*
X157280971Y-105475238D02*
X157185733Y-105427619D01*
X156995257Y-105427619D01*
X156900019Y-105475238D01*
X156852400Y-105570476D01*
X156852400Y-105951428D01*
X156900019Y-106046666D01*
X156995257Y-106094285D01*
X157185733Y-106094285D01*
X157280971Y-106046666D01*
X157328590Y-105951428D01*
X157328590Y-105856190D01*
X156852400Y-105760952D01*
X158185733Y-105475238D02*
X158090495Y-105427619D01*
X157900019Y-105427619D01*
X157804780Y-105475238D01*
X157757161Y-105522857D01*
X157709542Y-105618095D01*
X157709542Y-105903809D01*
X157757161Y-105999047D01*
X157804780Y-106046666D01*
X157900019Y-106094285D01*
X158090495Y-106094285D01*
X158185733Y-106046666D01*
X158614304Y-105427619D02*
X158614304Y-106427619D01*
X159042876Y-105427619D02*
X159042876Y-105951428D01*
X158995257Y-106046666D01*
X158900019Y-106094285D01*
X158757161Y-106094285D01*
X158661923Y-106046666D01*
X158614304Y-105999047D01*
X159519066Y-106094285D02*
X159519066Y-105427619D01*
X159519066Y-105999047D02*
X159566685Y-106046666D01*
X159661923Y-106094285D01*
X159804780Y-106094285D01*
X159900019Y-106046666D01*
X159947638Y-105951428D01*
X159947638Y-105427619D01*
X160566685Y-105427619D02*
X160471447Y-105475238D01*
X160423828Y-105522857D01*
X160376209Y-105618095D01*
X160376209Y-105903809D01*
X160423828Y-105999047D01*
X160471447Y-106046666D01*
X160566685Y-106094285D01*
X160709542Y-106094285D01*
X160804780Y-106046666D01*
X160852400Y-105999047D01*
X160900019Y-105903809D01*
X160900019Y-105618095D01*
X160852400Y-105522857D01*
X160804780Y-105475238D01*
X160709542Y-105427619D01*
X160566685Y-105427619D01*
X161471447Y-105427619D02*
X161376209Y-105475238D01*
X161328590Y-105570476D01*
X161328590Y-106427619D01*
X161995257Y-105427619D02*
X161900019Y-105475238D01*
X161852400Y-105522857D01*
X161804780Y-105618095D01*
X161804780Y-105903809D01*
X161852400Y-105999047D01*
X161900019Y-106046666D01*
X161995257Y-106094285D01*
X162138114Y-106094285D01*
X162233352Y-106046666D01*
X162280971Y-105999047D01*
X162328590Y-105903809D01*
X162328590Y-105618095D01*
X162280971Y-105522857D01*
X162233352Y-105475238D01*
X162138114Y-105427619D01*
X161995257Y-105427619D01*
X163185733Y-106094285D02*
X163185733Y-105284761D01*
X163138114Y-105189523D01*
X163090495Y-105141904D01*
X162995257Y-105094285D01*
X162852400Y-105094285D01*
X162757161Y-105141904D01*
X163185733Y-105475238D02*
X163090495Y-105427619D01*
X162900019Y-105427619D01*
X162804780Y-105475238D01*
X162757161Y-105522857D01*
X162709542Y-105618095D01*
X162709542Y-105903809D01*
X162757161Y-105999047D01*
X162804780Y-106046666D01*
X162900019Y-106094285D01*
X163090495Y-106094285D01*
X163185733Y-106046666D01*
X163566685Y-106094285D02*
X163804780Y-105427619D01*
X164042876Y-106094285D02*
X163804780Y-105427619D01*
X163709542Y-105189523D01*
X163661923Y-105141904D01*
X163566685Y-105094285D01*
D14*
%TO.C,J0*%
X183361020Y-132047073D02*
X183645863Y-132047073D01*
X183702831Y-132028083D01*
X183740810Y-131990104D01*
X183759800Y-131933136D01*
X183759800Y-131895157D01*
X183361020Y-132312926D02*
X183361020Y-132350905D01*
X183380010Y-132388884D01*
X183398999Y-132407874D01*
X183436978Y-132426863D01*
X183512936Y-132445853D01*
X183607884Y-132445853D01*
X183683842Y-132426863D01*
X183721821Y-132407874D01*
X183740810Y-132388884D01*
X183759800Y-132350905D01*
X183759800Y-132312926D01*
X183740810Y-132274947D01*
X183721821Y-132255958D01*
X183683842Y-132236968D01*
X183607884Y-132217979D01*
X183512936Y-132217979D01*
X183436978Y-132236968D01*
X183398999Y-132255958D01*
X183380010Y-132274947D01*
X183361020Y-132312926D01*
%TO.C,J82*%
X153425221Y-69911620D02*
X153425221Y-70196463D01*
X153444211Y-70253431D01*
X153482190Y-70291410D01*
X153539159Y-70310400D01*
X153577138Y-70310400D01*
X153178358Y-70082526D02*
X153216337Y-70063536D01*
X153235326Y-70044547D01*
X153254316Y-70006568D01*
X153254316Y-69987578D01*
X153235326Y-69949599D01*
X153216337Y-69930610D01*
X153178358Y-69911620D01*
X153102400Y-69911620D01*
X153064420Y-69930610D01*
X153045431Y-69949599D01*
X153026441Y-69987578D01*
X153026441Y-70006568D01*
X153045431Y-70044547D01*
X153064420Y-70063536D01*
X153102400Y-70082526D01*
X153178358Y-70082526D01*
X153216337Y-70101515D01*
X153235326Y-70120505D01*
X153254316Y-70158484D01*
X153254316Y-70234442D01*
X153235326Y-70272421D01*
X153216337Y-70291410D01*
X153178358Y-70310400D01*
X153102400Y-70310400D01*
X153064420Y-70291410D01*
X153045431Y-70272421D01*
X153026441Y-70234442D01*
X153026441Y-70158484D01*
X153045431Y-70120505D01*
X153064420Y-70101515D01*
X153102400Y-70082526D01*
X152874525Y-69949599D02*
X152855536Y-69930610D01*
X152817557Y-69911620D01*
X152722609Y-69911620D01*
X152684630Y-69930610D01*
X152665640Y-69949599D01*
X152646651Y-69987578D01*
X152646651Y-70025557D01*
X152665640Y-70082526D01*
X152893515Y-70310400D01*
X152646651Y-70310400D01*
%TO.C,J81*%
X176125221Y-70111620D02*
X176125221Y-70396463D01*
X176144211Y-70453431D01*
X176182190Y-70491410D01*
X176239159Y-70510400D01*
X176277138Y-70510400D01*
X175878358Y-70282526D02*
X175916337Y-70263536D01*
X175935326Y-70244547D01*
X175954316Y-70206568D01*
X175954316Y-70187578D01*
X175935326Y-70149599D01*
X175916337Y-70130610D01*
X175878358Y-70111620D01*
X175802400Y-70111620D01*
X175764420Y-70130610D01*
X175745431Y-70149599D01*
X175726441Y-70187578D01*
X175726441Y-70206568D01*
X175745431Y-70244547D01*
X175764420Y-70263536D01*
X175802400Y-70282526D01*
X175878358Y-70282526D01*
X175916337Y-70301515D01*
X175935326Y-70320505D01*
X175954316Y-70358484D01*
X175954316Y-70434442D01*
X175935326Y-70472421D01*
X175916337Y-70491410D01*
X175878358Y-70510400D01*
X175802400Y-70510400D01*
X175764420Y-70491410D01*
X175745431Y-70472421D01*
X175726441Y-70434442D01*
X175726441Y-70358484D01*
X175745431Y-70320505D01*
X175764420Y-70301515D01*
X175802400Y-70282526D01*
X175346651Y-70510400D02*
X175574525Y-70510400D01*
X175460588Y-70510400D02*
X175460588Y-70111620D01*
X175498567Y-70168589D01*
X175536546Y-70206568D01*
X175574525Y-70225557D01*
D11*
%TO.C,J0*%
X185079400Y-129630000D02*
X182379400Y-129630000D01*
X182379400Y-129130000D02*
X181329400Y-129130000D01*
X179029400Y-135130000D02*
X174079400Y-135130000D01*
X182379400Y-134630000D02*
X185079400Y-134630000D01*
X181279400Y-129130000D02*
X179279400Y-129130000D01*
X171179400Y-135130000D02*
X172029400Y-135130000D01*
X181279400Y-135130000D02*
X182379400Y-135130000D01*
X177279400Y-129130000D02*
X171179400Y-129130000D01*
X171179400Y-129130000D02*
X171179400Y-135130000D01*
X185079400Y-134630000D02*
X185079400Y-129630000D01*
X182379400Y-135130000D02*
X182379400Y-134630000D01*
X182379400Y-129630000D02*
X182379400Y-129130000D01*
%TO.C,J82*%
X156152400Y-67170000D02*
X156152400Y-72120000D01*
X156152400Y-75020000D02*
X156152400Y-74170000D01*
X150152400Y-64920000D02*
X150152400Y-66920000D01*
X150152400Y-75020000D02*
X156152400Y-75020000D01*
X150152400Y-68920000D02*
X150152400Y-75020000D01*
%TO.C,J81*%
X178852400Y-75020000D02*
X178852400Y-74170000D01*
X172852400Y-68920000D02*
X172852400Y-75020000D01*
X178852400Y-67170000D02*
X178852400Y-72120000D01*
X172852400Y-64920000D02*
X172852400Y-66920000D01*
X172852400Y-75020000D02*
X178852400Y-75020000D01*
%TD*%
D15*
%TO.C,J40*%
X145511780Y-77077200D03*
X153009860Y-77079740D03*
X160507940Y-77077200D03*
X148013680Y-79579100D03*
X158006040Y-79579100D03*
%TD*%
%TO.C,J90*%
X167911780Y-76977200D03*
X175409860Y-76979740D03*
X182907940Y-76977200D03*
X170413680Y-79479100D03*
X180406040Y-79479100D03*
%TD*%
D16*
%TO.C,J0*%
X174279400Y-132130000D03*
X180279400Y-132130000D03*
%TD*%
%TO.C,J82*%
X153152400Y-71920000D03*
X153152400Y-65920000D03*
%TD*%
%TO.C,J81*%
X175852400Y-71920000D03*
X175852400Y-65920000D03*
%TD*%
M02*
